<?xml version="1.0" encoding="UTF-8" standalone="no"?>
<svg
   width="250.474pt"
   height="130.037pt"
   viewBox="0 0 250.474 130.037"
   version="1.1"
   id="svg313"
   sodipodi:docname="2006Howard_fig2.pdf"
   xmlns:inkscape="http://www.inkscape.org/namespaces/inkscape"
   xmlns:sodipodi="http://sodipodi.sourceforge.net/DTD/sodipodi-0.dtd"
   xmlns="http://www.w3.org/2000/svg"
   xmlns:svg="http://www.w3.org/2000/svg">
  <sodipodi:namedview
     id="namedview315"
     pagecolor="#ffffff"
     bordercolor="#666666"
     borderopacity="1.0"
     inkscape:showpageshadow="2"
     inkscape:pageopacity="0.0"
     inkscape:pagecheckerboard="0"
     inkscape:deskcolor="#d1d1d1"
     inkscape:document-units="pt" />
  <defs
     id="defs11">
    <clipPath
       id="clip-0">
      <path
         clip-rule="nonzero"
         d="M 39 30 L 241.765625 30 L 241.765625 114 L 39 114 Z M 39 30 "
         id="path2" />
    </clipPath>
    <clipPath
       id="clip-1">
      <path
         clip-rule="nonzero"
         d="M 92 108 L 175 108 L 175 124.101562 L 92 124.101562 Z M 92 108 "
         id="path5" />
    </clipPath>
    <clipPath
       id="clip-2">
      <path
         clip-rule="nonzero"
         d="M 5.46875 39 L 11 39 L 11 46 L 5.46875 46 Z M 5.46875 39 "
         id="path8" />
    </clipPath>
  </defs>
  <path
     fill-rule="evenodd"
     fill="rgb(0%, 0%, 0%)"
     fill-opacity="1"
     d="M 84.324219 6.859375 L 85.125 6.859375 L 85.125 12.902344 L 84.324219 12.902344 Z M 84.324219 6.859375 "
     id="path13" />
  <path
     fill="none"
     stroke-width="0.45"
     stroke-linecap="butt"
     stroke-linejoin="miter"
     stroke="rgb(0%, 0%, 0%)"
     stroke-opacity="1"
     stroke-miterlimit="10"
     d="M -0.00034375 0.00178125 C 2.18325 2.474438 5.9645 2.712719 8.441062 0.525219 C 10.913719 -1.654469 11.152 -5.435719 8.968406 -7.912281 C 6.784812 -10.388844 3.003562 -10.623219 0.527 -8.439625 C -1.949563 -6.256031 -2.183938 -2.474781 -0.00034375 0.00178125 Z M -0.00034375 0.00178125 "
     transform="matrix(1, 0, 0, -1, 47.348, 38.451)"
     id="path15" />
  <path
     fill="none"
     stroke-width="1.407"
     stroke-linecap="butt"
     stroke-linejoin="bevel"
     stroke="rgb(0%, 0%, 0%)"
     stroke-opacity="1"
     stroke-miterlimit="10"
     d="M 0.00103125 0.00040625 L 0.00103125 -12.933187 "
     transform="matrix(1, 0, 0, -1, 51.831, 18.934)"
     id="path17" />
  <path
     fill-rule="evenodd"
     fill="rgb(0%, 0%, 0%)"
     fill-opacity="1"
     d="M 53.941406 31.515625 L 49.722656 31.515625 L 51.832031 36.441406 L 53.941406 31.515625 "
     id="path19" />
  <path
     fill="none"
     stroke-width="0.45"
     stroke-linecap="butt"
     stroke-linejoin="miter"
     stroke="rgb(0%, 0%, 0%)"
     stroke-opacity="1"
     stroke-miterlimit="10"
     d="M -0.00178125 0.00178125 C 2.181812 2.474438 5.963062 2.712719 8.439625 0.525219 C 10.912281 -1.654469 11.150562 -5.435719 8.966969 -7.912281 C 6.783375 -10.388844 3.002125 -10.623219 0.525562 -8.439625 C -1.947094 -6.256031 -2.185375 -2.474781 -0.00178125 0.00178125 Z M -0.00178125 0.00178125 "
     transform="matrix(1, 0, 0, -1, 88.201, 38.451)"
     id="path21" />
  <path
     fill="none"
     stroke-width="2.813"
     stroke-linecap="butt"
     stroke-linejoin="bevel"
     stroke="rgb(0%, 0%, 0%)"
     stroke-opacity="1"
     stroke-miterlimit="10"
     d="M -0.00040625 -0.0004375 L -0.00040625 -9.348094 "
     transform="matrix(1, 0, 0, -1, 92.684, 18.648)"
     id="path23" />
  <path
     fill-rule="evenodd"
     fill="rgb(0%, 0%, 0%)"
     fill-opacity="1"
     d="M 96.902344 27.292969 L 88.464844 27.292969 L 92.683594 37.140625 L 96.902344 27.292969 "
     id="path25" />
  <path
     fill="none"
     stroke-width="0.45"
     stroke-linecap="butt"
     stroke-linejoin="miter"
     stroke="rgb(0%, 0%, 0%)"
     stroke-opacity="1"
     stroke-miterlimit="10"
     d="M -0.0005625 0.00178125 C 2.183031 2.474438 5.964281 2.712719 8.440844 0.525219 C 10.9135 -1.654469 11.151781 -5.435719 8.968187 -7.912281 C 6.784594 -10.388844 3.003344 -10.623219 0.526781 -8.439625 C -1.945875 -6.256031 -2.184156 -2.474781 -0.0005625 0.00178125 Z M -0.0005625 0.00178125 "
     transform="matrix(1, 0, 0, -1, 67.774, 38.451)"
     id="path27" />
  <path
     fill="none"
     stroke-width="1.407"
     stroke-linecap="butt"
     stroke-linejoin="bevel"
     stroke="rgb(0%, 0%, 0%)"
     stroke-opacity="1"
     stroke-miterlimit="10"
     d="M -0.0001875 0.00040625 L -0.0001875 -12.933187 "
     transform="matrix(1, 0, 0, -1, 72.258, 18.934)"
     id="path29" />
  <path
     fill-rule="evenodd"
     fill="rgb(0%, 0%, 0%)"
     fill-opacity="1"
     d="M 74.367188 31.515625 L 70.148438 31.515625 L 72.257812 36.441406 L 74.367188 31.515625 "
     id="path31" />
  <path
     fill="none"
     stroke-width="0.45"
     stroke-linecap="butt"
     stroke-linejoin="miter"
     stroke="rgb(0%, 0%, 0%)"
     stroke-opacity="1"
     stroke-miterlimit="10"
     d="M 0.0016875 0.00178125 C 2.185281 2.474438 5.966531 2.712719 8.439187 0.525219 C 10.91575 -1.654469 11.150125 -5.435719 8.966531 -7.912281 C 6.782937 -10.388844 3.001687 -10.623219 0.529031 -8.439625 C -1.947531 -6.256031 -2.185813 -2.474781 0.0016875 0.00178125 Z M 0.0016875 0.00178125 "
     transform="matrix(1, 0, 0, -1, 129.053, 38.451)"
     id="path33" />
  <path
     fill="none"
     stroke-width="1.407"
     stroke-linecap="butt"
     stroke-linejoin="bevel"
     stroke="rgb(0%, 0%, 0%)"
     stroke-opacity="1"
     stroke-miterlimit="10"
     d="M -0.00184375 0.00040625 L -0.00184375 -12.933187 "
     transform="matrix(1, 0, 0, -1, 133.537, 18.934)"
     id="path35" />
  <path
     fill-rule="evenodd"
     fill="rgb(0%, 0%, 0%)"
     fill-opacity="1"
     d="M 135.648438 31.515625 L 131.425781 31.515625 L 133.535156 36.441406 L 135.648438 31.515625 "
     id="path37" />
  <path
     fill="none"
     stroke-width="0.45"
     stroke-linecap="butt"
     stroke-linejoin="miter"
     stroke="rgb(0%, 0%, 0%)"
     stroke-opacity="1"
     stroke-miterlimit="10"
     d="M 0.00190625 0.00178125 C 2.181594 2.474438 5.96675 2.712719 8.439406 0.525219 C 10.915969 -1.654469 11.150344 -5.435719 8.96675 -7.912281 C 6.783156 -10.388844 3.001906 -10.623219 0.525344 -8.439625 C -1.947313 -6.256031 -2.185594 -2.474781 0.00190625 0.00178125 Z M 0.00190625 0.00178125 "
     transform="matrix(1, 0, 0, -1, 108.627, 38.451)"
     id="path39" />
  <path
     fill="none"
     stroke-width="1.407"
     stroke-linecap="butt"
     stroke-linejoin="bevel"
     stroke="rgb(0%, 0%, 0%)"
     stroke-opacity="1"
     stroke-miterlimit="10"
     d="M -0.001625 0.00040625 L -0.001625 -12.933187 "
     transform="matrix(1, 0, 0, -1, 113.111, 18.934)"
     id="path41" />
  <path
     fill-rule="evenodd"
     fill="rgb(0%, 0%, 0%)"
     fill-opacity="1"
     d="M 115.21875 31.515625 L 111 31.515625 L 113.109375 36.441406 L 115.21875 31.515625 "
     id="path43" />
  <g
     clip-path="url(#clip-0)"
     id="g47">
    <path
       fill="none"
       stroke-width="0.45"
       stroke-linecap="butt"
       stroke-linejoin="miter"
       stroke="rgb(0%, 0%, 0%)"
       stroke-opacity="1"
       stroke-miterlimit="10"
       d="M 0.00046875 0.00178125 C 2.184062 2.474438 5.965312 2.712719 8.437969 0.525219 C 10.914531 -1.654469 11.152812 -5.435719 8.965312 -7.912281 C 6.781719 -10.388844 3.000469 -10.623219 0.527812 -8.439625 C -1.94875 -6.256031 -2.183125 -2.474781 0.00046875 0.00178125 Z M 20.42625 0.00178125 C 22.609844 2.474438 26.391094 2.712719 28.867656 0.525219 C 31.340312 -1.654469 31.578594 -5.435719 29.391094 -7.912281 C 27.2075 -10.388844 23.42625 -10.623219 20.953594 -8.439625 C 18.477031 -6.256031 18.242656 -2.474781 20.42625 0.00178125 Z M 40.852031 0.00178125 C 43.035625 2.474438 46.816875 2.712719 49.293437 0.525219 C 51.766094 -1.654469 52.004375 -5.435719 49.820781 -7.912281 C 47.637187 -10.388844 43.855937 -10.623219 41.379375 -8.439625 C 38.906719 -6.256031 38.668437 -2.474781 40.852031 0.00178125 Z M 61.277812 0.00178125 C 63.461406 2.474438 67.242656 2.712719 69.719219 0.525219 C 72.195781 -1.654469 72.430156 -5.435719 70.246562 -7.912281 C 68.062969 -10.388844 64.281719 -10.623219 61.805156 -8.439625 C 59.3325 -6.256031 59.094219 -2.474781 61.277812 0.00178125 Z M 81.703594 0.00178125 C 83.887187 2.474438 87.668437 2.712719 90.145 0.525219 C 92.621562 -1.654469 92.855937 -5.435719 90.672344 -7.912281 C 88.48875 -10.388844 84.7075 -10.623219 82.234844 -8.439625 C 79.758281 -6.256031 79.523906 -2.474781 81.703594 0.00178125 Z M -102.132344 -59.002125 C -99.94875 -56.525562 -96.1675 -56.291187 -93.690938 -58.474781 C -91.218281 -60.658375 -90.98 -64.439625 -93.163594 -66.916187 C -95.347188 -69.388844 -99.128438 -69.627125 -101.605 -67.443531 C -104.081563 -65.259937 -104.315938 -61.478687 -102.132344 -59.002125 Z M -61.280781 -59.002125 C -59.097188 -56.525562 -55.315938 -56.291187 -52.839375 -58.474781 C -50.366719 -60.658375 -50.128438 -64.439625 -52.312031 -66.916187 C -54.495625 -69.388844 -58.276875 -69.627125 -60.753438 -67.443531 C -63.226094 -65.259937 -63.464375 -61.478687 -61.280781 -59.002125 Z M -81.706563 -59.002125 C -79.522969 -56.525562 -75.741719 -56.291187 -73.265156 -58.474781 C -70.7925 -60.658375 -70.554219 -64.439625 -72.737813 -66.916187 C -74.921406 -69.388844 -78.702656 -69.627125 -81.179219 -67.443531 C -83.651875 -65.259937 -83.890156 -61.478687 -81.706563 -59.002125 Z M -20.425313 -59.002125 C -18.241719 -56.525562 -14.460469 -56.291187 -11.987813 -58.474781 C -9.51125 -60.658375 -9.276875 -64.439625 -11.460469 -66.916187 C -13.644063 -69.388844 -17.425313 -69.627125 -19.897969 -67.443531 C -22.374531 -65.259937 -22.612813 -61.478687 -20.425313 -59.002125 Z M -40.851094 -59.002125 C -38.671406 -56.525562 -34.88625 -56.291187 -32.413594 -58.474781 C -29.937031 -60.658375 -29.702656 -64.439625 -31.88625 -66.916187 C -34.069844 -69.388844 -37.851094 -69.627125 -40.327656 -67.443531 C -42.800313 -65.259937 -43.038594 -61.478687 -40.851094 -59.002125 Z M 0.00046875 -59.002125 C 2.184062 -56.525562 5.965312 -56.291187 8.437969 -58.474781 C 10.914531 -60.658375 11.152812 -64.439625 8.965312 -66.916187 C 6.781719 -69.388844 3.000469 -69.627125 0.527812 -67.443531 C -1.94875 -65.259937 -2.183125 -61.478687 0.00046875 -59.002125 Z M 20.42625 -59.002125 C 22.609844 -56.525562 26.391094 -56.291187 28.867656 -58.474781 C 31.340312 -60.658375 31.578594 -64.439625 29.391094 -66.916187 C 27.2075 -69.388844 23.42625 -69.627125 20.953594 -67.443531 C 18.477031 -65.259937 18.242656 -61.478687 20.42625 -59.002125 Z M 40.852031 -59.002125 C 43.035625 -56.525562 46.816875 -56.291187 49.293437 -58.474781 C 51.766094 -60.658375 52.004375 -64.439625 49.820781 -66.916187 C 47.637187 -69.388844 43.855937 -69.627125 41.379375 -67.443531 C 38.906719 -65.259937 38.668437 -61.478687 40.852031 -59.002125 Z M 61.277812 -59.002125 C 63.461406 -56.525562 67.242656 -56.291187 69.719219 -58.474781 C 72.195781 -60.658375 72.430156 -64.439625 70.246562 -66.916187 C 68.062969 -69.388844 64.281719 -69.627125 61.805156 -67.443531 C 59.3325 -65.259937 59.094219 -61.478687 61.277812 -59.002125 Z M 81.703594 -59.002125 C 83.887187 -56.525562 87.668437 -56.291187 90.145 -58.474781 C 92.621562 -60.658375 92.855937 -64.439625 90.672344 -66.916187 C 88.48875 -69.388844 84.7075 -69.627125 82.234844 -67.443531 C 79.758281 -65.259937 79.523906 -61.478687 81.703594 -59.002125 Z M 81.703594 -59.002125 "
       transform="matrix(1, 0, 0, -1, 149.48, 38.451)"
       id="path45" />
  </g>
  <path
     fill="none"
     stroke-width="0.45"
     stroke-linecap="butt"
     stroke-linejoin="bevel"
     stroke="rgb(0%, 0%, 0%)"
     stroke-opacity="1"
     stroke-miterlimit="10"
     d="M -0.0011875 -0.0009375 L 0.264437 -43.782187 "
     transform="matrix(1, 0, 0, -1, 51.759, 48.21)"
     id="path49" />
  <path
     fill-rule="evenodd"
     fill="rgb(0%, 0%, 0%)"
     fill-opacity="1"
     d="M 53.429688 91.746094 L 50.613281 91.765625 L 52.039062 95.039062 L 53.429688 91.746094 "
     id="path51" />
  <path
     fill="none"
     stroke-width="0.45"
     stroke-linecap="butt"
     stroke-linejoin="bevel"
     stroke="rgb(0%, 0%, 0%)"
     stroke-opacity="1"
     stroke-miterlimit="10"
     d="M 0.00084375 -0.0009375 L 0.262562 -43.782187 "
     transform="matrix(1, 0, 0, -1, 235.464, 48.21)"
     id="path53" />
  <path
     fill-rule="evenodd"
     fill="rgb(0%, 0%, 0%)"
     fill-opacity="1"
     d="M 237.132812 91.746094 L 234.320312 91.765625 L 235.746094 95.039062 L 237.132812 91.746094 "
     id="path55" />
  <path
     fill="none"
     stroke-width="0.45"
     stroke-linecap="butt"
     stroke-linejoin="bevel"
     stroke="rgb(0%, 0%, 0%)"
     stroke-opacity="1"
     stroke-miterlimit="10"
     d="M 0.0016875 -0.0009375 L 0.263406 -43.782187 "
     transform="matrix(1, 0, 0, -1, 215.053, 48.21)"
     id="path57" />
  <path
     fill-rule="evenodd"
     fill="rgb(0%, 0%, 0%)"
     fill-opacity="1"
     d="M 216.722656 91.746094 L 213.90625 91.765625 L 215.335938 95.039062 L 216.722656 91.746094 "
     id="path59" />
  <path
     fill="none"
     stroke-width="0.45"
     stroke-linecap="butt"
     stroke-linejoin="bevel"
     stroke="rgb(0%, 0%, 0%)"
     stroke-opacity="1"
     stroke-miterlimit="10"
     d="M 0.000625 -0.0009375 L 0.262344 -43.782187 "
     transform="matrix(1, 0, 0, -1, 194.64, 48.21)"
     id="path61" />
  <path
     fill-rule="evenodd"
     fill="rgb(0%, 0%, 0%)"
     fill-opacity="1"
     d="M 196.308594 91.746094 L 193.496094 91.765625 L 194.921875 95.039062 L 196.308594 91.746094 "
     id="path63" />
  <path
     fill="none"
     stroke-width="0.45"
     stroke-linecap="butt"
     stroke-linejoin="bevel"
     stroke="rgb(0%, 0%, 0%)"
     stroke-opacity="1"
     stroke-miterlimit="10"
     d="M -0.0014375 -0.0009375 L 0.264187 -43.782187 "
     transform="matrix(1, 0, 0, -1, 174.228, 48.21)"
     id="path65" />
  <path
     fill-rule="evenodd"
     fill="rgb(0%, 0%, 0%)"
     fill-opacity="1"
     d="M 175.898438 91.746094 L 173.085938 91.765625 L 174.511719 95.039062 L 175.898438 91.746094 "
     id="path67" />
  <path
     fill="none"
     stroke-width="0.45"
     stroke-linecap="butt"
     stroke-linejoin="bevel"
     stroke="rgb(0%, 0%, 0%)"
     stroke-opacity="1"
     stroke-miterlimit="10"
     d="M -0.00059375 -0.0009375 L 0.265031 -43.782187 "
     transform="matrix(1, 0, 0, -1, 153.817, 48.21)"
     id="path69" />
  <path
     fill-rule="evenodd"
     fill="rgb(0%, 0%, 0%)"
     fill-opacity="1"
     d="M 155.484375 91.746094 L 152.671875 91.765625 L 154.097656 95.039062 L 155.484375 91.746094 "
     id="path71" />
  <path
     fill="none"
     stroke-width="0.45"
     stroke-linecap="butt"
     stroke-linejoin="bevel"
     stroke="rgb(0%, 0%, 0%)"
     stroke-opacity="1"
     stroke-miterlimit="10"
     d="M 0.00125 -0.0009375 L 0.262969 -43.782187 "
     transform="matrix(1, 0, 0, -1, 133.405, 48.21)"
     id="path73" />
  <path
     fill-rule="evenodd"
     fill="rgb(0%, 0%, 0%)"
     fill-opacity="1"
     d="M 135.074219 91.746094 L 132.261719 91.765625 L 133.6875 95.039062 L 135.074219 91.746094 "
     id="path75" />
  <path
     fill="none"
     stroke-width="0.45"
     stroke-linecap="butt"
     stroke-linejoin="bevel"
     stroke="rgb(0%, 0%, 0%)"
     stroke-opacity="1"
     stroke-miterlimit="10"
     d="M -0.0018125 -0.0009375 L 0.263813 -43.782187 "
     transform="matrix(1, 0, 0, -1, 112.994, 48.21)"
     id="path77" />
  <path
     fill-rule="evenodd"
     fill="rgb(0%, 0%, 0%)"
     fill-opacity="1"
     d="M 114.664062 91.746094 L 111.847656 91.765625 L 113.277344 95.039062 L 114.664062 91.746094 "
     id="path79" />
  <path
     fill="none"
     stroke-width="0.45"
     stroke-linecap="butt"
     stroke-linejoin="bevel"
     stroke="rgb(0%, 0%, 0%)"
     stroke-opacity="1"
     stroke-miterlimit="10"
     d="M 0.00003125 -0.0009375 L 0.265656 -43.782187 "
     transform="matrix(1, 0, 0, -1, 92.582, 48.21)"
     id="path81" />
  <path
     fill-rule="evenodd"
     fill="rgb(0%, 0%, 0%)"
     fill-opacity="1"
     d="M 94.25 91.746094 L 91.4375 91.765625 L 92.863281 95.039062 L 94.25 91.746094 "
     id="path83" />
  <path
     fill="none"
     stroke-width="0.45"
     stroke-linecap="butt"
     stroke-linejoin="bevel"
     stroke="rgb(0%, 0%, 0%)"
     stroke-opacity="1"
     stroke-miterlimit="10"
     d="M 0.000875 -0.0009375 L 0.262594 -43.782187 "
     transform="matrix(1, 0, 0, -1, 72.171, 48.21)"
     id="path85" />
  <path
     fill-rule="evenodd"
     fill="rgb(0%, 0%, 0%)"
     fill-opacity="1"
     d="M 73.839844 91.746094 L 71.027344 91.765625 L 72.453125 95.039062 L 73.839844 91.746094 "
     id="path87" />
  <path
     fill="none"
     stroke-width="0.45"
     stroke-linecap="butt"
     stroke-linejoin="bevel"
     stroke="rgb(0%, 0%, 0%)"
     stroke-opacity="1"
     stroke-miterlimit="10"
     d="M -0.00146875 0.00134375 C 3.631344 -5.080687 7.717281 -4.818969 10.619625 -0.072875 "
     transform="matrix(1, 0, 0, -1, 56.771, 106.224)"
     id="path89" />
  <path
     fill-rule="evenodd"
     fill="rgb(0%, 0%, 0%)"
     fill-opacity="1"
     d="M 57.589844 107.367188 C 56.957031 107.820312 56.078125 107.675781 55.625 107.042969 C 55.175781 106.410156 55.320312 105.53125 55.953125 105.078125 C 56.585938 104.628906 57.464844 104.773438 57.914062 105.40625 C 58.367188 106.039062 58.21875 106.917969 57.589844 107.367188 "
     id="path91" />
  <path
     fill-rule="evenodd"
     fill="rgb(0%, 0%, 0%)"
     fill-opacity="1"
     d="M 66.65625 107.496094 C 65.992188 107.089844 65.785156 106.222656 66.191406 105.558594 C 66.59375 104.898438 67.460938 104.6875 68.125 105.09375 C 68.785156 105.5 68.996094 106.363281 68.589844 107.027344 C 68.1875 107.691406 67.320312 107.898438 66.65625 107.496094 "
     id="path93" />
  <path
     fill="none"
     stroke-width="0.45"
     stroke-linecap="butt"
     stroke-linejoin="bevel"
     stroke="rgb(0%, 0%, 0%)"
     stroke-opacity="1"
     stroke-miterlimit="10"
     d="M -0.00040625 0.00190625 C 12.108969 -7.40825 25.737875 -7.021531 35.413656 -0.103562 "
     transform="matrix(1, 0, 0, -1, 54.559, 108.248)"
     id="path95" />
  <path
     fill-rule="evenodd"
     fill="rgb(0%, 0%, 0%)"
     fill-opacity="1"
     d="M 55.757812 108.980469 C 55.355469 109.644531 54.488281 109.851562 53.824219 109.449219 C 53.160156 109.042969 52.953125 108.175781 53.359375 107.515625 C 53.765625 106.851562 54.632812 106.640625 55.292969 107.050781 C 55.957031 107.453125 56.164062 108.320312 55.757812 108.980469 "
     id="path97" />
  <path
     fill-rule="evenodd"
     fill="rgb(0%, 0%, 0%)"
     fill-opacity="1"
     d="M 88.828125 109.167969 C 88.375 108.535156 88.519531 107.65625 89.152344 107.207031 C 89.785156 106.753906 90.664062 106.898438 91.117188 107.53125 C 91.566406 108.164062 91.421875 109.042969 90.789062 109.496094 C 90.160156 109.945312 89.277344 109.800781 88.828125 109.167969 "
     id="path99" />
  <path
     fill="none"
     stroke-width="0.45"
     stroke-linecap="butt"
     stroke-linejoin="bevel"
     stroke="rgb(0%, 0%, 0%)"
     stroke-opacity="1"
     stroke-miterlimit="10"
     d="M -0.00040625 -0.0013125 C 3.632406 -5.079437 7.718344 -4.817719 10.620687 -0.071625 "
     transform="matrix(1, 0, 0, -1, 219.934, 106.944)"
     id="path101" />
  <path
     fill-rule="evenodd"
     fill="rgb(0%, 0%, 0%)"
     fill-opacity="1"
     d="M 220.753906 108.089844 C 220.121094 108.539062 219.242188 108.394531 218.789062 107.761719 C 218.339844 107.132812 218.484375 106.253906 219.117188 105.800781 C 219.746094 105.347656 220.628906 105.496094 221.078125 106.128906 C 221.53125 106.757812 221.386719 107.636719 220.753906 108.089844 "
     id="path103" />
  <path
     fill-rule="evenodd"
     fill="rgb(0%, 0%, 0%)"
     fill-opacity="1"
     d="M 229.820312 108.214844 C 229.15625 107.808594 228.949219 106.945312 229.355469 106.28125 C 229.757812 105.617188 230.625 105.410156 231.289062 105.8125 C 231.949219 106.21875 232.160156 107.085938 231.753906 107.746094 C 231.351562 108.410156 230.484375 108.621094 229.820312 108.214844 "
     id="path105" />
  <path
     fill="none"
     stroke-width="0.45"
     stroke-linecap="butt"
     stroke-linejoin="bevel"
     stroke="rgb(0%, 0%, 0%)"
     stroke-opacity="1"
     stroke-miterlimit="10"
     d="M 0.000625 -0.0013125 C 3.629531 -5.079437 7.719375 -4.817719 10.621719 -0.071625 "
     transform="matrix(1, 0, 0, -1, 199.89, 106.944)"
     id="path107" />
  <path
     fill-rule="evenodd"
     fill="rgb(0%, 0%, 0%)"
     fill-opacity="1"
     d="M 200.707031 108.089844 C 200.074219 108.539062 199.195312 108.394531 198.746094 107.761719 C 198.292969 107.132812 198.441406 106.253906 199.070312 105.800781 C 199.703125 105.347656 200.582031 105.496094 201.035156 106.128906 C 201.484375 106.757812 201.339844 107.636719 200.707031 108.089844 "
     id="path109" />
  <path
     fill-rule="evenodd"
     fill="rgb(0%, 0%, 0%)"
     fill-opacity="1"
     d="M 209.777344 108.214844 C 209.113281 107.808594 208.902344 106.945312 209.308594 106.28125 C 209.714844 105.617188 210.582031 105.410156 211.242188 105.8125 C 211.90625 106.21875 212.113281 107.085938 211.710938 107.746094 C 211.304688 108.410156 210.4375 108.621094 209.777344 108.214844 "
     id="path111" />
  <path
     fill="none"
     stroke-width="0.45"
     stroke-linecap="butt"
     stroke-linejoin="bevel"
     stroke="rgb(0%, 0%, 0%)"
     stroke-opacity="1"
     stroke-miterlimit="10"
     d="M -0.00159375 -0.0013125 C 3.631219 -5.079437 7.717156 -4.817719 10.6195 -0.071625 "
     transform="matrix(1, 0, 0, -1, 179.318, 106.944)"
     id="path113" />
  <path
     fill-rule="evenodd"
     fill="rgb(0%, 0%, 0%)"
     fill-opacity="1"
     d="M 180.136719 108.089844 C 179.503906 108.539062 178.625 108.394531 178.175781 107.761719 C 177.722656 107.132812 177.867188 106.253906 178.5 105.800781 C 179.132812 105.347656 180.011719 105.496094 180.464844 106.128906 C 180.914062 106.757812 180.769531 107.636719 180.136719 108.089844 "
     id="path115" />
  <path
     fill-rule="evenodd"
     fill="rgb(0%, 0%, 0%)"
     fill-opacity="1"
     d="M 189.203125 108.214844 C 188.542969 107.808594 188.332031 106.945312 188.738281 106.28125 C 189.140625 105.617188 190.007812 105.410156 190.671875 105.8125 C 191.335938 106.21875 191.542969 107.085938 191.140625 107.746094 C 190.734375 108.410156 189.867188 108.621094 189.203125 108.214844 "
     id="path117" />
  <path
     fill="none"
     stroke-width="0.45"
     stroke-linecap="butt"
     stroke-linejoin="bevel"
     stroke="rgb(0%, 0%, 0%)"
     stroke-opacity="1"
     stroke-miterlimit="10"
     d="M 0.00153125 -0.0013125 C 3.630437 -5.079437 7.716375 -4.817719 10.618719 -0.071625 "
     transform="matrix(1, 0, 0, -1, 159.143, 106.944)"
     id="path119" />
  <path
     fill-rule="evenodd"
     fill="rgb(0%, 0%, 0%)"
     fill-opacity="1"
     d="M 159.960938 108.089844 C 159.328125 108.539062 158.449219 108.394531 157.996094 107.761719 C 157.546875 107.132812 157.691406 106.253906 158.324219 105.800781 C 158.957031 105.347656 159.835938 105.496094 160.285156 106.128906 C 160.738281 106.757812 160.59375 107.636719 159.960938 108.089844 "
     id="path121" />
  <path
     fill-rule="evenodd"
     fill="rgb(0%, 0%, 0%)"
     fill-opacity="1"
     d="M 169.027344 108.214844 C 168.367188 107.808594 168.15625 106.945312 168.5625 106.28125 C 168.96875 105.617188 169.832031 105.410156 170.496094 105.8125 C 171.15625 106.21875 171.367188 107.085938 170.960938 107.746094 C 170.558594 108.410156 169.691406 108.621094 169.027344 108.214844 "
     id="path123" />
  <path
     fill="none"
     stroke-width="0.45"
     stroke-linecap="butt"
     stroke-linejoin="bevel"
     stroke="rgb(0%, 0%, 0%)"
     stroke-opacity="1"
     stroke-miterlimit="10"
     d="M 0.001125 -0.0005 C 3.630031 -5.082531 7.719875 -4.816906 10.618313 -0.0708125 "
     transform="matrix(1, 0, 0, -1, 138.702, 106.812)"
     id="path125" />
  <path
     fill-rule="evenodd"
     fill="rgb(0%, 0%, 0%)"
     fill-opacity="1"
     d="M 139.519531 107.957031 C 138.886719 108.40625 138.007812 108.261719 137.558594 107.632812 C 137.105469 106.996094 137.253906 106.117188 137.882812 105.667969 C 138.515625 105.21875 139.394531 105.363281 139.847656 105.992188 C 140.296875 106.625 140.152344 107.507812 139.519531 107.957031 "
     id="path127" />
  <path
     fill-rule="evenodd"
     fill="rgb(0%, 0%, 0%)"
     fill-opacity="1"
     d="M 148.589844 108.082031 C 147.925781 107.679688 147.714844 106.8125 148.121094 106.148438 C 148.527344 105.484375 149.394531 105.277344 150.054688 105.679688 C 150.71875 106.085938 150.925781 106.953125 150.523438 107.617188 C 150.117188 108.277344 149.25 108.488281 148.589844 108.082031 "
     id="path129" />
  <path
     fill="none"
     stroke-width="0.45"
     stroke-linecap="butt"
     stroke-linejoin="bevel"
     stroke="rgb(0%, 0%, 0%)"
     stroke-opacity="1"
     stroke-miterlimit="10"
     d="M 0.00071875 0.00178125 C 3.629625 -5.08025 7.719469 -4.818531 10.621813 -0.0685312 "
     transform="matrix(1, 0, 0, -1, 118.261, 107.076)"
     id="path131" />
  <path
     fill-rule="evenodd"
     fill="rgb(0%, 0%, 0%)"
     fill-opacity="1"
     d="M 119.078125 108.21875 C 118.449219 108.671875 117.570312 108.523438 117.117188 107.894531 C 116.664062 107.261719 116.8125 106.382812 117.441406 105.929688 C 118.074219 105.480469 118.953125 105.628906 119.40625 106.257812 C 119.855469 106.890625 119.710938 107.769531 119.078125 108.21875 "
     id="path133" />
  <path
     fill-rule="evenodd"
     fill="rgb(0%, 0%, 0%)"
     fill-opacity="1"
     d="M 128.148438 108.347656 C 127.484375 107.941406 127.277344 107.074219 127.679688 106.410156 C 128.085938 105.75 128.953125 105.539062 129.613281 105.945312 C 130.277344 106.351562 130.488281 107.21875 130.082031 107.878906 C 129.675781 108.542969 128.808594 108.753906 128.148438 108.347656 "
     id="path135" />
  <path
     fill="none"
     stroke-width="0.45"
     stroke-linecap="butt"
     stroke-linejoin="bevel"
     stroke="rgb(0%, 0%, 0%)"
     stroke-opacity="1"
     stroke-miterlimit="10"
     d="M -0.0016875 0.0003125 C 3.631125 -5.081719 7.717062 -4.816094 10.619406 -0.07 "
     transform="matrix(1, 0, 0, -1, 97.822, 106.68)"
     id="path137" />
  <path
     fill-rule="evenodd"
     fill="rgb(0%, 0%, 0%)"
     fill-opacity="1"
     d="M 98.640625 107.824219 C 98.007812 108.277344 97.128906 108.132812 96.675781 107.5 C 96.226562 106.867188 96.371094 105.988281 97.003906 105.535156 C 97.636719 105.085938 98.515625 105.230469 98.964844 105.863281 C 99.417969 106.496094 99.269531 107.375 98.640625 107.824219 "
     id="path139" />
  <path
     fill-rule="evenodd"
     fill="rgb(0%, 0%, 0%)"
     fill-opacity="1"
     d="M 107.707031 107.949219 C 107.046875 107.546875 106.835938 106.679688 107.242188 106.015625 C 107.644531 105.355469 108.511719 105.144531 109.175781 105.550781 C 109.839844 105.953125 110.046875 106.820312 109.640625 107.484375 C 109.238281 108.148438 108.371094 108.355469 107.707031 107.949219 "
     id="path141" />
  <path
     fill="none"
     stroke-width="0.45"
     stroke-linecap="butt"
     stroke-linejoin="bevel"
     stroke="rgb(0%, 0%, 0%)"
     stroke-opacity="1"
     stroke-miterlimit="10"
     d="M -0.000000000000028422 0.0003125 C 3.632812 -5.081719 7.71875 -4.816094 10.621094 -0.07 "
     transform="matrix(1, 0, 0, -1, 77.25, 106.68)"
     id="path143" />
  <path
     fill-rule="evenodd"
     fill="rgb(0%, 0%, 0%)"
     fill-opacity="1"
     d="M 78.066406 107.824219 C 77.4375 108.277344 76.558594 108.132812 76.105469 107.5 C 75.652344 106.867188 75.800781 105.988281 76.433594 105.535156 C 77.0625 105.085938 77.941406 105.230469 78.394531 105.863281 C 78.847656 106.496094 78.699219 107.375 78.066406 107.824219 "
     id="path145" />
  <path
     fill-rule="evenodd"
     fill="rgb(0%, 0%, 0%)"
     fill-opacity="1"
     d="M 87.136719 107.949219 C 86.472656 107.546875 86.265625 106.679688 86.667969 106.015625 C 87.074219 105.355469 87.941406 105.144531 88.601562 105.550781 C 89.265625 105.953125 89.476562 106.820312 89.070312 107.484375 C 88.664062 108.148438 87.796875 108.355469 87.136719 107.949219 "
     id="path147" />
  <path
     fill="none"
     stroke-width="0.45"
     stroke-linecap="butt"
     stroke-linejoin="bevel"
     stroke="rgb(0%, 0%, 0%)"
     stroke-opacity="1"
     stroke-miterlimit="10"
     d="M -0.00046875 0.00015625 C 20.5425 -13.675625 43.6675 -12.964687 60.081562 -0.187344 "
     transform="matrix(1, 0, 0, -1, 52.645, 108.715)"
     id="path149" />
  <path
     fill-rule="evenodd"
     fill="rgb(0%, 0%, 0%)"
     fill-opacity="1"
     d="M 53.816406 109.496094 C 53.386719 110.140625 52.511719 110.316406 51.863281 109.886719 C 51.21875 109.457031 51.042969 108.582031 51.472656 107.933594 C 51.902344 107.289062 52.777344 107.113281 53.425781 107.542969 C 54.070312 107.972656 54.246094 108.847656 53.816406 109.496094 "
     id="path151" />
  <path
     fill-rule="evenodd"
     fill="rgb(0%, 0%, 0%)"
     fill-opacity="1"
     d="M 111.617188 109.765625 C 111.140625 109.152344 111.25 108.269531 111.863281 107.792969 C 112.476562 107.316406 113.359375 107.425781 113.835938 108.039062 C 114.3125 108.652344 114.203125 109.535156 113.589844 110.011719 C 112.976562 110.488281 112.09375 110.378906 111.617188 109.765625 "
     id="path153" />
  <path
     fill="none"
     stroke-width="0.45"
     stroke-linecap="butt"
     stroke-linejoin="bevel"
     stroke="rgb(0%, 0%, 0%)"
     stroke-opacity="1"
     stroke-miterlimit="10"
     d="M -0.00096875 -0.00175 C 12.108406 -7.404094 25.737313 -7.021281 35.413094 -0.0994063 "
     transform="matrix(1, 0, 0, -1, 177.208, 108.467)"
     id="path155" />
  <path
     fill-rule="evenodd"
     fill="rgb(0%, 0%, 0%)"
     fill-opacity="1"
     d="M 178.40625 109.199219 C 178.003906 109.863281 177.136719 110.070312 176.472656 109.667969 C 175.8125 109.261719 175.601562 108.394531 176.007812 107.730469 C 176.414062 107.070312 177.277344 106.859375 177.941406 107.265625 C 178.605469 107.671875 178.8125 108.539062 178.40625 109.199219 "
     id="path157" />
  <path
     fill-rule="evenodd"
     fill="rgb(0%, 0%, 0%)"
     fill-opacity="1"
     d="M 211.476562 109.386719 C 211.023438 108.757812 211.171875 107.875 211.800781 107.425781 C 212.433594 106.972656 213.3125 107.117188 213.765625 107.75 C 214.21875 108.382812 214.070312 109.261719 213.4375 109.714844 C 212.808594 110.164062 211.929688 110.019531 211.476562 109.386719 "
     id="path159" />
  <path
     fill="none"
     stroke-width="0.45"
     stroke-linecap="butt"
     stroke-linejoin="bevel"
     stroke="rgb(0%, 0%, 0%)"
     stroke-opacity="1"
     stroke-miterlimit="10"
     d="M 0.001125 -0.0019375 C 12.106594 -7.408187 25.739406 -7.021469 35.411281 -0.1035 "
     transform="matrix(1, 0, 0, -1, 136.327, 108.334)"
     id="path161" />
  <path
     fill-rule="evenodd"
     fill="rgb(0%, 0%, 0%)"
     fill-opacity="1"
     d="M 137.527344 109.070312 C 137.121094 109.730469 136.253906 109.941406 135.59375 109.535156 C 134.929688 109.128906 134.722656 108.261719 135.128906 107.601562 C 135.53125 106.9375 136.398438 106.730469 137.0625 107.136719 C 137.722656 107.539062 137.933594 108.40625 137.527344 109.070312 "
     id="path163" />
  <path
     fill-rule="evenodd"
     fill="rgb(0%, 0%, 0%)"
     fill-opacity="1"
     d="M 170.597656 109.253906 C 170.144531 108.621094 170.289062 107.742188 170.921875 107.292969 C 171.554688 106.839844 172.433594 106.984375 172.882812 107.617188 C 173.335938 108.25 173.191406 109.128906 172.558594 109.582031 C 171.925781 110.03125 171.046875 109.886719 170.597656 109.253906 "
     id="path165" />
  <path
     fill="none"
     stroke-width="0.45"
     stroke-linecap="butt"
     stroke-linejoin="bevel"
     stroke="rgb(0%, 0%, 0%)"
     stroke-opacity="1"
     stroke-miterlimit="10"
     d="M -0.000875 0.0006875 C 12.1085 -7.405562 25.737406 -7.02275 35.413187 -0.100875 "
     transform="matrix(1, 0, 0, -1, 95.579, 108.071)"
     id="path167" />
  <path
     fill-rule="evenodd"
     fill="rgb(0%, 0%, 0%)"
     fill-opacity="1"
     d="M 96.78125 108.804688 C 96.375 109.46875 95.507812 109.675781 94.84375 109.269531 C 94.183594 108.867188 93.972656 108 94.378906 107.339844 C 94.785156 106.675781 95.652344 106.464844 96.3125 106.871094 C 96.976562 107.277344 97.183594 108.144531 96.78125 108.804688 "
     id="path169" />
  <path
     fill-rule="evenodd"
     fill="rgb(0%, 0%, 0%)"
     fill-opacity="1"
     d="M 129.847656 108.992188 C 129.394531 108.359375 129.542969 107.480469 130.171875 107.027344 C 130.804688 106.578125 131.683594 106.722656 132.136719 107.355469 C 132.589844 107.984375 132.441406 108.867188 131.8125 109.316406 C 131.179688 109.769531 130.300781 109.625 129.847656 108.992188 "
     id="path171" />
  <path
     fill="none"
     stroke-width="0.45"
     stroke-linecap="butt"
     stroke-linejoin="bevel"
     stroke="rgb(0%, 0%, 0%)"
     stroke-opacity="1"
     stroke-miterlimit="10"
     d="M -0.00165625 0.0015 C 12.107719 -7.40475 25.740531 -7.021937 35.412406 -0.100062 "
     transform="matrix(1, 0, 0, -1, 197.779, 107.939)"
     id="path173" />
  <path
     fill-rule="evenodd"
     fill="rgb(0%, 0%, 0%)"
     fill-opacity="1"
     d="M 198.980469 108.675781 C 198.574219 109.335938 197.707031 109.546875 197.046875 109.140625 C 196.382812 108.734375 196.175781 107.867188 196.578125 107.203125 C 196.984375 106.542969 197.851562 106.335938 198.515625 106.738281 C 199.175781 107.144531 199.386719 108.011719 198.980469 108.675781 "
     id="path175" />
  <path
     fill-rule="evenodd"
     fill="rgb(0%, 0%, 0%)"
     fill-opacity="1"
     d="M 232.046875 108.859375 C 231.597656 108.226562 231.742188 107.347656 232.375 106.898438 C 233.007812 106.445312 233.882812 106.589844 234.335938 107.222656 C 234.789062 107.855469 234.640625 108.734375 234.011719 109.183594 C 233.378906 109.636719 232.5 109.492188 232.046875 108.859375 "
     id="path177" />
  <path
     fill="none"
     stroke-width="0.45"
     stroke-linecap="butt"
     stroke-linejoin="bevel"
     stroke="rgb(0%, 0%, 0%)"
     stroke-opacity="1"
     stroke-miterlimit="10"
     d="M 0.00071875 0.0015 C 12.106187 -7.40475 25.739 -7.021937 35.414781 -0.100062 "
     transform="matrix(1, 0, 0, -1, 156.636, 107.939)"
     id="path179" />
  <path
     fill-rule="evenodd"
     fill="rgb(0%, 0%, 0%)"
     fill-opacity="1"
     d="M 157.835938 108.675781 C 157.429688 109.335938 156.5625 109.546875 155.902344 109.140625 C 155.238281 108.734375 155.03125 107.867188 155.4375 107.203125 C 155.839844 106.542969 156.707031 106.335938 157.367188 106.738281 C 158.03125 107.144531 158.242188 108.011719 157.835938 108.675781 "
     id="path181" />
  <path
     fill-rule="evenodd"
     fill="rgb(0%, 0%, 0%)"
     fill-opacity="1"
     d="M 190.902344 108.859375 C 190.453125 108.226562 190.597656 107.347656 191.230469 106.898438 C 191.859375 106.445312 192.742188 106.589844 193.191406 107.222656 C 193.644531 107.855469 193.496094 108.734375 192.867188 109.183594 C 192.234375 109.636719 191.355469 109.492188 190.902344 108.859375 "
     id="path183" />
  <path
     fill="none"
     stroke-width="0.45"
     stroke-linecap="butt"
     stroke-linejoin="bevel"
     stroke="rgb(0%, 0%, 0%)"
     stroke-opacity="1"
     stroke-miterlimit="10"
     d="M 0.00134375 -0.000125 C 12.106812 -7.406375 25.739625 -7.019656 35.4115 -0.101687 "
     transform="matrix(1, 0, 0, -1, 116.151, 108.203)"
     id="path185" />
  <path
     fill-rule="evenodd"
     fill="rgb(0%, 0%, 0%)"
     fill-opacity="1"
     d="M 117.351562 108.9375 C 116.945312 109.597656 116.078125 109.808594 115.417969 109.402344 C 114.753906 108.996094 114.546875 108.132812 114.949219 107.46875 C 115.355469 106.804688 116.222656 106.597656 116.886719 107.003906 C 117.546875 107.40625 117.757812 108.273438 117.351562 108.9375 "
     id="path187" />
  <path
     fill-rule="evenodd"
     fill="rgb(0%, 0%, 0%)"
     fill-opacity="1"
     d="M 150.417969 109.121094 C 149.96875 108.492188 150.113281 107.613281 150.746094 107.160156 C 151.375 106.710938 152.257812 106.855469 152.707031 107.484375 C 153.160156 108.117188 153.015625 108.996094 152.382812 109.449219 C 151.75 109.902344 150.871094 109.753906 150.417969 109.121094 "
     id="path189" />
  <path
     fill="none"
     stroke-width="0.45"
     stroke-linecap="butt"
     stroke-linejoin="bevel"
     stroke="rgb(0%, 0%, 0%)"
     stroke-opacity="1"
     stroke-miterlimit="10"
     d="M -0.0001875 -0.0003125 C 12.105281 -7.406563 25.738094 -7.02375 35.413875 -0.101875 "
     transform="matrix(1, 0, 0, -1, 75.008, 108.07)"
     id="path191" />
  <path
     fill-rule="evenodd"
     fill="rgb(0%, 0%, 0%)"
     fill-opacity="1"
     d="M 76.207031 108.804688 C 75.800781 109.46875 74.9375 109.675781 74.273438 109.269531 C 73.609375 108.867188 73.402344 108 73.808594 107.335938 C 74.210938 106.675781 75.078125 106.464844 75.742188 106.871094 C 76.402344 107.277344 76.613281 108.140625 76.207031 108.804688 "
     id="path193" />
  <path
     fill-rule="evenodd"
     fill="rgb(0%, 0%, 0%)"
     fill-opacity="1"
     d="M 109.277344 108.992188 C 108.824219 108.359375 108.96875 107.480469 109.601562 107.027344 C 110.234375 106.578125 111.113281 106.722656 111.5625 107.355469 C 112.015625 107.984375 111.871094 108.863281 111.238281 109.316406 C 110.605469 109.769531 109.726562 109.621094 109.277344 108.992188 "
     id="path195" />
  <path
     fill="none"
     stroke-width="0.45"
     stroke-linecap="butt"
     stroke-linejoin="bevel"
     stroke="rgb(0%, 0%, 0%)"
     stroke-opacity="1"
     stroke-miterlimit="10"
     d="M -0.0013125 -0.001875 C 20.541656 -13.67375 43.666656 -12.966719 60.080719 -0.189375 "
     transform="matrix(1, 0, 0, -1, 175.556, 108.545)"
     id="path197" />
  <path
     fill-rule="evenodd"
     fill="rgb(0%, 0%, 0%)"
     fill-opacity="1"
     d="M 176.726562 109.324219 C 176.296875 109.96875 175.421875 110.144531 174.773438 109.714844 C 174.128906 109.285156 173.953125 108.410156 174.382812 107.765625 C 174.8125 107.117188 175.6875 106.945312 176.335938 107.375 C 176.980469 107.804688 177.15625 108.679688 176.726562 109.324219 "
     id="path199" />
  <path
     fill-rule="evenodd"
     fill="rgb(0%, 0%, 0%)"
     fill-opacity="1"
     d="M 234.527344 109.597656 C 234.050781 108.984375 234.160156 108.097656 234.773438 107.621094 C 235.386719 107.144531 236.269531 107.257812 236.746094 107.867188 C 237.222656 108.480469 237.113281 109.367188 236.5 109.84375 C 235.886719 110.320312 235.003906 110.210938 234.527344 109.597656 "
     id="path201" />
  <path
     fill="none"
     stroke-width="0.45"
     stroke-linecap="butt"
     stroke-linejoin="bevel"
     stroke="rgb(0%, 0%, 0%)"
     stroke-opacity="1"
     stroke-miterlimit="10"
     d="M 0.00090625 -0.00140625 C 20.543875 -13.677187 43.668875 -12.96625 60.082937 -0.188906 "
     transform="matrix(1, 0, 0, -1, 155.378, 108.94)"
     id="path203" />
  <path
     fill-rule="evenodd"
     fill="rgb(0%, 0%, 0%)"
     fill-opacity="1"
     d="M 156.550781 109.71875 C 156.117188 110.367188 155.246094 110.542969 154.597656 110.113281 C 153.953125 109.679688 153.777344 108.808594 154.207031 108.160156 C 154.636719 107.515625 155.511719 107.339844 156.15625 107.769531 C 156.804688 108.199219 156.980469 109.074219 156.550781 109.71875 "
     id="path205" />
  <path
     fill-rule="evenodd"
     fill="rgb(0%, 0%, 0%)"
     fill-opacity="1"
     d="M 214.347656 109.992188 C 213.871094 109.382812 213.984375 108.496094 214.59375 108.019531 C 215.210938 107.542969 216.09375 107.652344 216.570312 108.265625 C 217.046875 108.878906 216.9375 109.761719 216.324219 110.238281 C 215.710938 110.714844 214.828125 110.605469 214.347656 109.992188 "
     id="path207" />
  <path
     fill="none"
     stroke-width="0.45"
     stroke-linecap="butt"
     stroke-linejoin="bevel"
     stroke="rgb(0%, 0%, 0%)"
     stroke-opacity="1"
     stroke-miterlimit="10"
     d="M 0.00159375 0.00121875 C 20.540656 -13.674562 43.669563 -12.963625 60.079719 -0.186281 "
     transform="matrix(1, 0, 0, -1, 134.807, 108.677)"
     id="path209" />
  <path
     fill-rule="evenodd"
     fill="rgb(0%, 0%, 0%)"
     fill-opacity="1"
     d="M 135.976562 109.457031 C 135.546875 110.101562 134.671875 110.277344 134.027344 109.847656 C 133.378906 109.417969 133.203125 108.542969 133.636719 107.894531 C 134.066406 107.25 134.941406 107.074219 135.585938 107.507812 C 136.234375 107.933594 136.40625 108.808594 135.976562 109.457031 "
     id="path211" />
  <path
     fill-rule="evenodd"
     fill="rgb(0%, 0%, 0%)"
     fill-opacity="1"
     d="M 193.777344 109.726562 C 193.300781 109.117188 193.410156 108.230469 194.023438 107.753906 C 194.636719 107.277344 195.519531 107.386719 195.996094 108 C 196.472656 108.613281 196.363281 109.496094 195.753906 109.972656 C 195.140625 110.449219 194.253906 110.34375 193.777344 109.726562 "
     id="path213" />
  <path
     fill="none"
     stroke-width="0.45"
     stroke-linecap="butt"
     stroke-linejoin="bevel"
     stroke="rgb(0%, 0%, 0%)"
     stroke-opacity="1"
     stroke-miterlimit="10"
     d="M -0.00190625 0.00121875 C 20.541062 -13.674562 43.666062 -12.963625 60.080125 -0.186281 "
     transform="matrix(1, 0, 0, -1, 114.498, 108.677)"
     id="path215" />
  <path
     fill-rule="evenodd"
     fill="rgb(0%, 0%, 0%)"
     fill-opacity="1"
     d="M 115.667969 109.457031 C 115.238281 110.101562 114.363281 110.277344 113.71875 109.847656 C 113.070312 109.417969 112.898438 108.542969 113.328125 107.894531 C 113.757812 107.25 114.632812 107.074219 115.277344 107.507812 C 115.925781 107.933594 116.097656 108.808594 115.667969 109.457031 "
     id="path217" />
  <path
     fill-rule="evenodd"
     fill="rgb(0%, 0%, 0%)"
     fill-opacity="1"
     d="M 173.46875 109.726562 C 172.992188 109.117188 173.101562 108.230469 173.714844 107.753906 C 174.328125 107.277344 175.214844 107.386719 175.6875 108 C 176.164062 108.613281 176.058594 109.496094 175.445312 109.972656 C 174.832031 110.449219 173.945312 110.34375 173.46875 109.726562 "
     id="path219" />
  <path
     fill="none"
     stroke-width="0.45"
     stroke-linecap="butt"
     stroke-linejoin="bevel"
     stroke="rgb(0%, 0%, 0%)"
     stroke-opacity="1"
     stroke-miterlimit="10"
     d="M -0.00184375 -0.00059375 C 20.541125 -13.676375 43.666125 -12.965437 60.080187 -0.188094 "
     transform="matrix(1, 0, 0, -1, 93.662, 108.808)"
     id="path221" />
  <path
     fill-rule="evenodd"
     fill="rgb(0%, 0%, 0%)"
     fill-opacity="1"
     d="M 94.832031 109.589844 C 94.402344 110.234375 93.527344 110.410156 92.882812 109.980469 C 92.234375 109.550781 92.0625 108.675781 92.492188 108.027344 C 92.921875 107.382812 93.796875 107.207031 94.441406 107.636719 C 95.089844 108.066406 95.265625 108.941406 94.832031 109.589844 "
     id="path223" />
  <path
     fill-rule="evenodd"
     fill="rgb(0%, 0%, 0%)"
     fill-opacity="1"
     d="M 152.632812 109.859375 C 152.15625 109.246094 152.265625 108.363281 152.878906 107.886719 C 153.492188 107.410156 154.378906 107.519531 154.855469 108.132812 C 155.332031 108.746094 155.222656 109.628906 154.609375 110.105469 C 153.996094 110.585938 153.109375 110.472656 152.632812 109.859375 "
     id="path225" />
  <path
     fill="none"
     stroke-width="0.45"
     stroke-linecap="butt"
     stroke-linejoin="bevel"
     stroke="rgb(0%, 0%, 0%)"
     stroke-opacity="1"
     stroke-miterlimit="10"
     d="M 0.0019375 -0.0010625 C 20.541 -13.676844 43.669906 -12.965906 60.080062 -0.188562 "
     transform="matrix(1, 0, 0, -1, 72.959, 108.413)"
     id="path227" />
  <path
     fill-rule="evenodd"
     fill="rgb(0%, 0%, 0%)"
     fill-opacity="1"
     d="M 74.128906 109.191406 C 73.699219 109.839844 72.824219 110.015625 72.179688 109.585938 C 71.53125 109.152344 71.359375 108.28125 71.789062 107.632812 C 72.21875 106.988281 73.09375 106.8125 73.738281 107.242188 C 74.386719 107.671875 74.5625 108.546875 74.128906 109.191406 "
     id="path229" />
  <path
     fill-rule="evenodd"
     fill="rgb(0%, 0%, 0%)"
     fill-opacity="1"
     d="M 131.929688 109.464844 C 131.453125 108.851562 131.5625 107.96875 132.175781 107.492188 C 132.789062 107.015625 133.675781 107.125 134.152344 107.738281 C 134.628906 108.351562 134.515625 109.234375 133.902344 109.710938 C 133.292969 110.1875 132.40625 110.078125 131.929688 109.464844 "
     id="path231" />
  <path
     fill="none"
     stroke-width="0.45"
     stroke-linecap="butt"
     stroke-linejoin="bevel"
     stroke="rgb(0%, 0%, 0%)"
     stroke-opacity="1"
     stroke-miterlimit="10"
     d="M -0.0004375 -0.0006875 C 27.839406 -20.422563 59.17925 -19.360063 81.421437 -0.281938 "
     transform="matrix(1, 0, 0, -1, 52.227, 108.679)"
     id="path233" />
  <path
     fill-rule="evenodd"
     fill="rgb(0%, 0%, 0%)"
     fill-opacity="1"
     d="M 53.359375 109.511719 C 52.902344 110.136719 52.019531 110.273438 51.394531 109.8125 C 50.769531 109.351562 50.632812 108.472656 51.09375 107.847656 C 51.550781 107.21875 52.433594 107.085938 53.058594 107.546875 C 53.6875 108.003906 53.820312 108.886719 53.359375 109.511719 "
     id="path235" />
  <path
     fill-rule="evenodd"
     fill="rgb(0%, 0%, 0%)"
     fill-opacity="1"
     d="M 132.582031 109.875 C 132.074219 109.285156 132.144531 108.398438 132.734375 107.890625 C 133.324219 107.386719 134.210938 107.453125 134.71875 108.042969 C 135.222656 108.632812 135.15625 109.519531 134.566406 110.027344 C 133.976562 110.53125 133.089844 110.464844 132.582031 109.875 "
     id="path237" />
  <path
     fill="none"
     stroke-width="0.45"
     stroke-linecap="butt"
     stroke-linejoin="bevel"
     stroke="rgb(0%, 0%, 0%)"
     stroke-opacity="1"
     stroke-miterlimit="10"
     d="M 0.0013125 -0.00040625 C 27.83725 -20.422281 59.181 -19.359781 81.423187 -0.281656 "
     transform="matrix(1, 0, 0, -1, 156.444, 108.316)"
     id="path239" />
  <path
     fill-rule="evenodd"
     fill="rgb(0%, 0%, 0%)"
     fill-opacity="1"
     d="M 157.578125 109.148438 C 157.117188 109.773438 156.238281 109.910156 155.613281 109.449219 C 154.984375 108.992188 154.851562 108.109375 155.3125 107.484375 C 155.769531 106.859375 156.648438 106.722656 157.277344 107.183594 C 157.902344 107.640625 158.039062 108.523438 157.578125 109.148438 "
     id="path241" />
  <path
     fill-rule="evenodd"
     fill="rgb(0%, 0%, 0%)"
     fill-opacity="1"
     d="M 236.800781 109.511719 C 236.292969 108.925781 236.363281 108.035156 236.953125 107.527344 C 237.539062 107.023438 238.429688 107.09375 238.933594 107.679688 C 239.441406 108.269531 239.371094 109.160156 238.785156 109.664062 C 238.195312 110.171875 237.304688 110.101562 236.800781 109.511719 "
     id="path243" />
  <path
     fill="none"
     stroke-width="0.45"
     stroke-linecap="butt"
     stroke-linejoin="bevel"
     stroke="rgb(0%, 0%, 0%)"
     stroke-opacity="1"
     stroke-miterlimit="10"
     d="M -0.00159375 -0.00103125 C 27.83825 -20.422906 59.178094 -19.360406 81.420281 -0.282281 "
     transform="matrix(1, 0, 0, -1, 134.818, 108.581)"
     id="path245" />
  <path
     fill-rule="evenodd"
     fill="rgb(0%, 0%, 0%)"
     fill-opacity="1"
     d="M 135.949219 109.414062 C 135.492188 110.039062 134.609375 110.175781 133.984375 109.714844 C 133.359375 109.257812 133.222656 108.375 133.683594 107.75 C 134.140625 107.121094 135.023438 106.988281 135.648438 107.445312 C 136.277344 107.90625 136.410156 108.785156 135.949219 109.414062 "
     id="path247" />
  <path
     fill-rule="evenodd"
     fill="rgb(0%, 0%, 0%)"
     fill-opacity="1"
     d="M 215.171875 109.777344 C 214.667969 109.1875 214.734375 108.300781 215.324219 107.796875 C 215.914062 107.289062 216.800781 107.355469 217.308594 107.945312 C 217.8125 108.535156 217.746094 109.425781 217.15625 109.929688 C 216.566406 110.433594 215.679688 110.367188 215.171875 109.777344 "
     id="path249" />
  <path
     fill="none"
     stroke-width="0.45"
     stroke-linecap="butt"
     stroke-linejoin="bevel"
     stroke="rgb(0%, 0%, 0%)"
     stroke-opacity="1"
     stroke-miterlimit="10"
     d="M -0.0011875 -0.00021875 C 27.838656 -20.422094 59.1785 -19.359594 81.424594 -0.281469 "
     transform="matrix(1, 0, 0, -1, 114.509, 108.449)"
     id="path251" />
  <path
     fill-rule="evenodd"
     fill="rgb(0%, 0%, 0%)"
     fill-opacity="1"
     d="M 115.644531 109.28125 C 115.183594 109.90625 114.304688 110.042969 113.675781 109.585938 C 113.050781 109.125 112.914062 108.242188 113.375 107.617188 C 113.835938 106.992188 114.714844 106.855469 115.339844 107.316406 C 115.96875 107.773438 116.101562 108.65625 115.644531 109.28125 "
     id="path253" />
  <path
     fill-rule="evenodd"
     fill="rgb(0%, 0%, 0%)"
     fill-opacity="1"
     d="M 194.863281 109.644531 C 194.359375 109.054688 194.425781 108.167969 195.015625 107.660156 C 195.605469 107.15625 196.492188 107.222656 197 107.8125 C 197.503906 108.402344 197.4375 109.292969 196.847656 109.796875 C 196.257812 110.304688 195.371094 110.234375 194.863281 109.644531 "
     id="path255" />
  <g
     clip-path="url(#clip-1)"
     id="g259">
    <path
       fill="none"
       stroke-width="0.45"
       stroke-linecap="butt"
       stroke-linejoin="bevel"
       stroke="rgb(0%, 0%, 0%)"
       stroke-opacity="1"
       stroke-miterlimit="10"
       d="M 0.00146875 -0.0005625 C 27.837406 -20.422438 59.17725 -19.359938 81.423344 -0.281813 "
       transform="matrix(1, 0, 0, -1, 92.354, 108.976)"
       id="path257" />
  </g>
  <path
     fill-rule="evenodd"
     fill="rgb(0%, 0%, 0%)"
     fill-opacity="1"
     d="M 93.488281 109.808594 C 93.027344 110.433594 92.148438 110.570312 91.523438 110.109375 C 90.894531 109.652344 90.761719 108.769531 91.21875 108.144531 C 91.679688 107.519531 92.558594 107.382812 93.1875 107.84375 C 93.8125 108.300781 93.949219 109.183594 93.488281 109.808594 "
     id="path261" />
  <path
     fill-rule="evenodd"
     fill="rgb(0%, 0%, 0%)"
     fill-opacity="1"
     d="M 172.710938 110.175781 C 172.203125 109.585938 172.269531 108.695312 172.859375 108.1875 C 173.449219 107.683594 174.339844 107.753906 174.84375 108.34375 C 175.351562 108.929688 175.28125 109.820312 174.691406 110.324219 C 174.101562 110.832031 173.214844 110.761719 172.710938 110.175781 "
     id="path263" />
  <path
     fill="none"
     stroke-width="0.45"
     stroke-linecap="butt"
     stroke-linejoin="bevel"
     stroke="rgb(0%, 0%, 0%)"
     stroke-opacity="1"
     stroke-miterlimit="10"
     d="M -0.00059375 -0.00103125 C 27.83925 -20.422906 59.179094 -19.360406 81.421281 -0.278375 "
     transform="matrix(1, 0, 0, -1, 72.442, 108.581)"
     id="path265" />
  <path
     fill-rule="evenodd"
     fill="rgb(0%, 0%, 0%)"
     fill-opacity="1"
     d="M 73.578125 109.414062 C 73.117188 110.039062 72.234375 110.175781 71.609375 109.714844 C 70.984375 109.257812 70.847656 108.375 71.308594 107.746094 C 71.765625 107.121094 72.648438 106.984375 73.273438 107.445312 C 73.902344 107.90625 74.035156 108.785156 73.578125 109.414062 "
     id="path267" />
  <path
     fill-rule="evenodd"
     fill="rgb(0%, 0%, 0%)"
     fill-opacity="1"
     d="M 152.796875 109.777344 C 152.289062 109.1875 152.359375 108.300781 152.949219 107.792969 C 153.539062 107.289062 154.425781 107.355469 154.933594 107.945312 C 155.4375 108.535156 155.371094 109.425781 154.78125 109.929688 C 154.191406 110.433594 153.304688 110.367188 152.796875 109.777344 "
     id="path269" />
  <path
     fill-rule="evenodd"
     fill="rgb(0%, 0%, 0%)"
     fill-opacity="1"
     d="M 86.4375 12.902344 L 86.4375 8.523438 L 87.105469 8.523438 L 87.105469 9.148438 C 87.425781 8.664062 87.890625 8.425781 88.5 8.425781 C 88.761719 8.425781 89.003906 8.472656 89.226562 8.566406 C 89.445312 8.660156 89.613281 8.785156 89.722656 8.941406 C 89.832031 9.09375 89.910156 9.277344 89.953125 9.488281 C 89.980469 9.625 89.996094 9.867188 89.996094 10.210938 L 89.996094 12.902344 L 89.253906 12.902344 L 89.253906 10.238281 C 89.253906 9.9375 89.222656 9.710938 89.164062 9.5625 C 89.109375 9.410156 89.007812 9.289062 88.859375 9.203125 C 88.710938 9.113281 88.539062 9.066406 88.34375 9.066406 C 88.027344 9.066406 87.753906 9.167969 87.523438 9.367188 C 87.296875 9.570312 87.179688 9.949219 87.179688 10.511719 L 87.179688 12.902344 L 86.4375 12.902344 "
     id="path271" />
  <path
     fill-rule="evenodd"
     fill="rgb(0%, 0%, 0%)"
     fill-opacity="1"
     d="M 91.132812 14.578125 L 91.132812 8.523438 L 91.808594 8.523438 L 91.808594 9.09375 C 91.96875 8.871094 92.148438 8.703125 92.347656 8.59375 C 92.550781 8.480469 92.792969 8.425781 93.078125 8.425781 C 93.449219 8.425781 93.78125 8.523438 94.066406 8.714844 C 94.351562 8.90625 94.566406 9.179688 94.714844 9.527344 C 94.859375 9.878906 94.933594 10.261719 94.933594 10.679688 C 94.933594 11.128906 94.851562 11.53125 94.691406 11.890625 C 94.53125 12.246094 94.296875 12.523438 93.988281 12.714844 C 93.683594 12.902344 93.363281 13 93.023438 13 C 92.777344 13 92.554688 12.949219 92.359375 12.84375 C 92.160156 12.738281 92 12.605469 91.875 12.449219 L 91.875 14.578125 Z M 91.804688 10.738281 C 91.804688 11.300781 91.917969 11.71875 92.144531 11.984375 C 92.375 12.253906 92.648438 12.390625 92.972656 12.390625 C 93.304688 12.390625 93.585938 12.25 93.820312 11.972656 C 94.054688 11.691406 94.175781 11.261719 94.175781 10.675781 C 94.175781 10.117188 94.058594 9.699219 93.828125 9.421875 C 93.601562 9.144531 93.324219 9.007812 93.007812 9.007812 C 92.691406 9.007812 92.410156 9.152344 92.167969 9.449219 C 91.925781 9.746094 91.804688 10.175781 91.804688 10.738281 "
     id="path273" />
  <path
     fill-rule="evenodd"
     fill="rgb(0%, 0%, 0%)"
     fill-opacity="1"
     d="M 98.695312 12.902344 L 98.695312 12.257812 C 98.355469 12.753906 97.890625 13 97.304688 13 C 97.046875 13 96.804688 12.949219 96.582031 12.851562 C 96.359375 12.753906 96.191406 12.628906 96.085938 12.476562 C 95.976562 12.328125 95.898438 12.144531 95.855469 11.929688 C 95.824219 11.78125 95.808594 11.550781 95.808594 11.234375 L 95.808594 8.523438 L 96.550781 8.523438 L 96.550781 10.949219 C 96.550781 11.339844 96.566406 11.601562 96.597656 11.734375 C 96.644531 11.929688 96.742188 12.082031 96.894531 12.195312 C 97.046875 12.304688 97.230469 12.359375 97.453125 12.359375 C 97.675781 12.359375 97.886719 12.304688 98.078125 12.191406 C 98.273438 12.074219 98.414062 11.921875 98.496094 11.722656 C 98.574219 11.527344 98.617188 11.242188 98.617188 10.867188 L 98.617188 8.523438 L 99.359375 8.523438 L 99.359375 12.902344 L 98.695312 12.902344 "
     id="path275" />
  <path
     fill-rule="evenodd"
     fill="rgb(0%, 0%, 0%)"
     fill-opacity="1"
     d="M 102.140625 12.238281 L 102.246094 12.890625 C 102.039062 12.9375 101.851562 12.957031 101.6875 12.957031 C 101.417969 12.957031 101.207031 12.914062 101.058594 12.828125 C 100.910156 12.746094 100.808594 12.632812 100.746094 12.492188 C 100.6875 12.355469 100.65625 12.0625 100.65625 11.617188 L 100.65625 9.101562 L 100.113281 9.101562 L 100.113281 8.523438 L 100.65625 8.523438 L 100.65625 7.441406 L 101.394531 6.996094 L 101.394531 8.523438 L 102.140625 8.523438 L 102.140625 9.101562 L 101.394531 9.101562 L 101.394531 11.660156 C 101.394531 11.871094 101.40625 12.007812 101.433594 12.066406 C 101.460938 12.128906 101.5 12.175781 101.5625 12.214844 C 101.621094 12.246094 101.703125 12.265625 101.8125 12.265625 C 101.898438 12.265625 102.003906 12.257812 102.140625 12.238281 "
     id="path277" />
  <g
     clip-path="url(#clip-2)"
     id="g281">
    <path
       fill-rule="evenodd"
       fill="rgb(0%, 0%, 0%)"
       fill-opacity="1"
       d="M 5.46875 43.574219 L 6.222656 43.511719 C 6.257812 43.8125 6.34375 44.058594 6.472656 44.253906 C 6.601562 44.445312 6.804688 44.605469 7.078125 44.722656 C 7.355469 44.84375 7.664062 44.902344 8.007812 44.902344 C 8.3125 44.902344 8.582031 44.859375 8.816406 44.765625 C 9.050781 44.675781 9.222656 44.550781 9.335938 44.394531 C 9.449219 44.234375 9.507812 44.0625 9.507812 43.878906 C 9.507812 43.6875 9.453125 43.523438 9.34375 43.378906 C 9.234375 43.238281 9.050781 43.121094 8.800781 43.023438 C 8.636719 42.960938 8.277344 42.863281 7.722656 42.730469 C 7.167969 42.597656 6.78125 42.46875 6.558594 42.351562 C 6.269531 42.199219 6.054688 42.011719 5.910156 41.789062 C 5.769531 41.566406 5.699219 41.316406 5.699219 41.035156 C 5.699219 40.734375 5.785156 40.445312 5.960938 40.183594 C 6.132812 39.917969 6.386719 39.714844 6.71875 39.578125 C 7.050781 39.441406 7.421875 39.371094 7.828125 39.371094 C 8.273438 39.371094 8.667969 39.445312 9.011719 39.589844 C 9.351562 39.734375 9.617188 39.945312 9.800781 40.226562 C 9.984375 40.507812 10.082031 40.824219 10.097656 41.175781 L 9.332031 41.234375 C 9.289062 40.855469 9.148438 40.566406 8.910156 40.371094 C 8.675781 40.175781 8.324219 40.078125 7.859375 40.078125 C 7.375 40.078125 7.023438 40.164062 6.800781 40.34375 C 6.582031 40.519531 6.472656 40.734375 6.472656 40.984375 C 6.472656 41.199219 6.550781 41.378906 6.703125 41.519531 C 6.859375 41.660156 7.261719 41.804688 7.910156 41.949219 C 8.558594 42.097656 9.007812 42.226562 9.246094 42.335938 C 9.601562 42.496094 9.859375 42.703125 10.027344 42.953125 C 10.195312 43.199219 10.277344 43.488281 10.277344 43.8125 C 10.277344 44.132812 10.1875 44.433594 10.003906 44.71875 C 9.820312 45.003906 9.554688 45.226562 9.210938 45.382812 C 8.863281 45.539062 8.476562 45.621094 8.046875 45.621094 C 7.496094 45.621094 7.039062 45.539062 6.671875 45.382812 C 6.300781 45.222656 6.011719 44.980469 5.800781 44.660156 C 5.589844 44.34375 5.480469 43.980469 5.46875 43.574219 "
       id="path279" />
  </g>
  <path
     fill-rule="evenodd"
     fill="rgb(0%, 0%, 0%)"
     fill-opacity="1"
     d="M 10.988281 42.957031 L 13.265625 42.957031 L 13.265625 43.703125 L 10.988281 43.703125 Z M 10.988281 42.957031 "
     id="path283" />
  <path
     fill-rule="evenodd"
     fill="rgb(0%, 0%, 0%)"
     fill-opacity="1"
     d="M 16.953125 45.515625 L 16.953125 44.875 C 16.613281 45.367188 16.152344 45.617188 15.566406 45.617188 C 15.308594 45.617188 15.066406 45.566406 14.84375 45.46875 C 14.617188 45.367188 14.453125 45.242188 14.34375 45.09375 C 14.234375 44.945312 14.160156 44.761719 14.113281 44.546875 C 14.085938 44.398438 14.070312 44.167969 14.070312 43.851562 L 14.070312 41.140625 L 14.8125 41.140625 L 14.8125 43.566406 C 14.8125 43.953125 14.828125 44.214844 14.855469 44.351562 C 14.902344 44.546875 15.003906 44.699219 15.152344 44.808594 C 15.304688 44.921875 15.492188 44.976562 15.714844 44.976562 C 15.9375 44.976562 16.144531 44.921875 16.339844 44.804688 C 16.535156 44.691406 16.675781 44.535156 16.753906 44.339844 C 16.835938 44.144531 16.875 43.859375 16.875 43.484375 L 16.875 41.140625 L 17.617188 41.140625 L 17.617188 45.515625 L 16.953125 45.515625 "
     id="path285" />
  <path
     fill-rule="evenodd"
     fill="rgb(0%, 0%, 0%)"
     fill-opacity="1"
     d="M 18.78125 45.515625 L 18.78125 41.140625 L 19.449219 41.140625 L 19.449219 41.761719 C 19.769531 41.28125 20.234375 41.042969 20.839844 41.042969 C 21.105469 41.042969 21.347656 41.089844 21.566406 41.183594 C 21.789062 41.277344 21.953125 41.402344 22.066406 41.558594 C 22.175781 41.710938 22.25 41.894531 22.296875 42.105469 C 22.324219 42.242188 22.335938 42.484375 22.335938 42.824219 L 22.335938 45.515625 L 21.59375 45.515625 L 21.59375 42.855469 C 21.59375 42.554688 21.566406 42.324219 21.507812 42.175781 C 21.449219 42.027344 21.347656 41.90625 21.199219 41.820312 C 21.054688 41.730469 20.882812 41.683594 20.683594 41.683594 C 20.367188 41.683594 20.09375 41.785156 19.867188 41.984375 C 19.636719 42.1875 19.523438 42.566406 19.523438 43.128906 L 19.523438 45.515625 L 18.78125 45.515625 "
     id="path287" />
  <path
     fill-rule="evenodd"
     fill="rgb(0%, 0%, 0%)"
     fill-opacity="1"
     d="M 23.476562 39.476562 L 24.21875 39.476562 L 24.21875 40.328125 L 23.476562 40.328125 Z M 23.476562 39.476562 "
     id="path289" />
  <path
     fill-rule="evenodd"
     fill="rgb(0%, 0%, 0%)"
     fill-opacity="1"
     d="M 23.476562 41.140625 L 24.21875 41.140625 L 24.21875 45.515625 L 23.476562 45.515625 Z M 23.476562 41.140625 "
     id="path291" />
  <path
     fill-rule="evenodd"
     fill="rgb(0%, 0%, 0%)"
     fill-opacity="1"
     d="M 26.96875 44.855469 L 27.074219 45.507812 C 26.867188 45.550781 26.679688 45.574219 26.515625 45.574219 C 26.246094 45.574219 26.035156 45.53125 25.890625 45.445312 C 25.742188 45.363281 25.636719 45.25 25.574219 45.109375 C 25.515625 44.972656 25.484375 44.679688 25.484375 44.234375 L 25.484375 41.71875 L 24.941406 41.71875 L 24.941406 41.140625 L 25.484375 41.140625 L 25.484375 40.054688 L 26.222656 39.613281 L 26.222656 41.140625 L 26.96875 41.140625 L 26.96875 41.71875 L 26.222656 41.71875 L 26.222656 44.277344 C 26.222656 44.488281 26.234375 44.625 26.261719 44.683594 C 26.289062 44.746094 26.332031 44.792969 26.390625 44.828125 C 26.449219 44.863281 26.53125 44.882812 26.644531 44.882812 C 26.726562 44.882812 26.835938 44.871094 26.96875 44.855469 "
     id="path293" />
  <path
     fill-rule="evenodd"
     fill="rgb(0%, 0%, 0%)"
     fill-opacity="1"
     d="M 27.277344 44.210938 L 28.011719 44.09375 C 28.054688 44.390625 28.167969 44.613281 28.355469 44.769531 C 28.542969 44.929688 28.808594 45.007812 29.144531 45.007812 C 29.484375 45.007812 29.738281 44.9375 29.902344 44.796875 C 30.066406 44.660156 30.152344 44.496094 30.152344 44.308594 C 30.152344 44.140625 30.078125 44.011719 29.933594 43.914062 C 29.828125 43.847656 29.578125 43.765625 29.175781 43.660156 C 28.628906 43.527344 28.253906 43.40625 28.042969 43.304688 C 27.832031 43.207031 27.671875 43.066406 27.566406 42.890625 C 27.457031 42.710938 27.402344 42.515625 27.402344 42.304688 C 27.402344 42.109375 27.445312 41.925781 27.535156 41.761719 C 27.625 41.59375 27.746094 41.457031 27.898438 41.347656 C 28.015625 41.261719 28.171875 41.1875 28.371094 41.128906 C 28.570312 41.070312 28.785156 41.042969 29.011719 41.042969 C 29.355469 41.042969 29.65625 41.089844 29.917969 41.191406 C 30.179688 41.289062 30.367188 41.421875 30.492188 41.59375 C 30.617188 41.761719 30.699219 41.988281 30.746094 42.269531 L 30.023438 42.367188 C 29.988281 42.144531 29.894531 41.96875 29.734375 41.839844 C 29.578125 41.714844 29.355469 41.652344 29.066406 41.652344 C 28.726562 41.652344 28.484375 41.707031 28.335938 41.820312 C 28.191406 41.933594 28.117188 42.066406 28.117188 42.214844 C 28.117188 42.3125 28.148438 42.398438 28.210938 42.476562 C 28.269531 42.554688 28.363281 42.621094 28.492188 42.671875 C 28.566406 42.699219 28.785156 42.765625 29.148438 42.863281 C 29.675781 43.003906 30.039062 43.117188 30.246094 43.207031 C 30.453125 43.296875 30.617188 43.425781 30.734375 43.597656 C 30.855469 43.765625 30.914062 43.980469 30.914062 44.230469 C 30.914062 44.480469 30.839844 44.710938 30.695312 44.929688 C 30.554688 45.148438 30.34375 45.316406 30.070312 45.4375 C 29.800781 45.554688 29.492188 45.617188 29.148438 45.617188 C 28.578125 45.617188 28.148438 45.496094 27.847656 45.261719 C 27.550781 45.023438 27.359375 44.675781 27.277344 44.210938 "
     id="path295" />
  <path
     fill-rule="evenodd"
     fill="rgb(0%, 0%, 0%)"
     fill-opacity="1"
     d="M 8.523438 103.890625 L 8.523438 97.851562 L 9.320312 97.851562 L 9.320312 103.179688 L 12.296875 103.179688 L 12.296875 103.890625 L 8.523438 103.890625 "
     id="path297" />
  <path
     fill-rule="evenodd"
     fill="rgb(0%, 0%, 0%)"
     fill-opacity="1"
     d="M 12.863281 101.332031 L 15.144531 101.332031 L 15.144531 102.078125 L 12.863281 102.078125 Z M 12.863281 101.332031 "
     id="path299" />
  <path
     fill-rule="evenodd"
     fill="rgb(0%, 0%, 0%)"
     fill-opacity="1"
     d="M 18.832031 103.890625 L 18.832031 103.25 C 18.492188 103.742188 18.027344 103.992188 17.445312 103.992188 C 17.183594 103.992188 16.945312 103.941406 16.71875 103.84375 C 16.496094 103.742188 16.328125 103.617188 16.222656 103.46875 C 16.113281 103.320312 16.035156 103.136719 15.992188 102.921875 C 15.964844 102.773438 15.949219 102.542969 15.949219 102.226562 L 15.949219 99.515625 L 16.691406 99.515625 L 16.691406 101.941406 C 16.691406 102.328125 16.703125 102.59375 16.734375 102.726562 C 16.78125 102.921875 16.882812 103.074219 17.03125 103.183594 C 17.183594 103.296875 17.367188 103.351562 17.59375 103.351562 C 17.8125 103.351562 18.023438 103.296875 18.21875 103.179688 C 18.414062 103.066406 18.550781 102.910156 18.632812 102.714844 C 18.714844 102.519531 18.753906 102.234375 18.753906 101.859375 L 18.753906 99.515625 L 19.496094 99.515625 L 19.496094 103.890625 L 18.832031 103.890625 "
     id="path301" />
  <path
     fill-rule="evenodd"
     fill="rgb(0%, 0%, 0%)"
     fill-opacity="1"
     d="M 20.65625 103.890625 L 20.65625 99.515625 L 21.324219 99.515625 L 21.324219 100.136719 C 21.648438 99.65625 22.113281 99.417969 22.71875 99.417969 C 22.984375 99.417969 23.226562 99.464844 23.445312 99.558594 C 23.667969 99.652344 23.832031 99.777344 23.941406 99.929688 C 24.054688 100.085938 24.128906 100.269531 24.171875 100.480469 C 24.199219 100.617188 24.214844 100.855469 24.214844 101.199219 L 24.214844 103.890625 L 23.472656 103.890625 L 23.472656 101.230469 C 23.472656 100.929688 23.445312 100.703125 23.386719 100.550781 C 23.328125 100.402344 23.226562 100.28125 23.078125 100.191406 C 22.933594 100.105469 22.761719 100.058594 22.5625 100.058594 C 22.246094 100.058594 21.972656 100.160156 21.742188 100.359375 C 21.515625 100.5625 21.398438 100.941406 21.398438 101.503906 L 21.398438 103.890625 L 20.65625 103.890625 "
     id="path303" />
  <path
     fill-rule="evenodd"
     fill="rgb(0%, 0%, 0%)"
     fill-opacity="1"
     d="M 25.355469 97.851562 L 26.097656 97.851562 L 26.097656 98.703125 L 25.355469 98.703125 Z M 25.355469 97.851562 "
     id="path305" />
  <path
     fill-rule="evenodd"
     fill="rgb(0%, 0%, 0%)"
     fill-opacity="1"
     d="M 25.355469 99.515625 L 26.097656 99.515625 L 26.097656 103.890625 L 25.355469 103.890625 Z M 25.355469 99.515625 "
     id="path307" />
  <path
     fill-rule="evenodd"
     fill="rgb(0%, 0%, 0%)"
     fill-opacity="1"
     d="M 28.847656 103.226562 L 28.953125 103.882812 C 28.746094 103.929688 28.558594 103.949219 28.394531 103.949219 C 28.125 103.949219 27.914062 103.90625 27.765625 103.820312 C 27.617188 103.738281 27.515625 103.625 27.453125 103.484375 C 27.394531 103.347656 27.363281 103.054688 27.363281 102.609375 L 27.363281 100.09375 L 26.820312 100.09375 L 26.820312 99.515625 L 27.363281 99.515625 L 27.363281 98.433594 L 28.101562 97.988281 L 28.101562 99.515625 L 28.847656 99.515625 L 28.847656 100.09375 L 28.101562 100.09375 L 28.101562 102.652344 C 28.101562 102.863281 28.113281 103 28.140625 103.058594 C 28.164062 103.121094 28.207031 103.167969 28.265625 103.203125 C 28.324219 103.238281 28.410156 103.257812 28.519531 103.257812 C 28.605469 103.257812 28.710938 103.246094 28.847656 103.226562 "
     id="path309" />
  <path
     fill-rule="evenodd"
     fill="rgb(0%, 0%, 0%)"
     fill-opacity="1"
     d="M 29.15625 102.585938 L 29.890625 102.46875 C 29.929688 102.765625 30.046875 102.988281 30.234375 103.144531 C 30.421875 103.304688 30.683594 103.382812 31.023438 103.382812 C 31.363281 103.382812 31.617188 103.3125 31.78125 103.171875 C 31.945312 103.035156 32.027344 102.871094 32.027344 102.683594 C 32.027344 102.515625 31.957031 102.386719 31.808594 102.289062 C 31.707031 102.222656 31.457031 102.140625 31.050781 102.039062 C 30.507812 101.898438 30.132812 101.78125 29.921875 101.679688 C 29.710938 101.582031 29.550781 101.441406 29.441406 101.265625 C 29.335938 101.089844 29.28125 100.890625 29.28125 100.679688 C 29.28125 100.480469 29.324219 100.300781 29.414062 100.136719 C 29.503906 99.96875 29.625 99.832031 29.777344 99.722656 C 29.894531 99.636719 30.050781 99.5625 30.25 99.507812 C 30.449219 99.445312 30.664062 99.417969 30.890625 99.417969 C 31.234375 99.417969 31.535156 99.46875 31.796875 99.566406 C 32.054688 99.664062 32.246094 99.796875 32.371094 99.96875 C 32.492188 100.136719 32.578125 100.363281 32.625 100.644531 L 31.902344 100.742188 C 31.867188 100.519531 31.773438 100.34375 31.613281 100.21875 C 31.457031 100.089844 31.234375 100.027344 30.945312 100.027344 C 30.605469 100.027344 30.359375 100.082031 30.214844 100.195312 C 30.070312 100.308594 29.996094 100.441406 29.996094 100.59375 C 29.996094 100.6875 30.027344 100.773438 30.085938 100.851562 C 30.148438 100.929688 30.242188 100.996094 30.371094 101.050781 C 30.445312 101.074219 30.664062 101.136719 31.027344 101.238281 C 31.550781 101.378906 31.917969 101.492188 32.125 101.582031 C 32.332031 101.671875 32.496094 101.800781 32.613281 101.972656 C 32.730469 102.140625 32.789062 102.351562 32.789062 102.605469 C 32.789062 102.851562 32.71875 103.085938 32.574219 103.304688 C 32.429688 103.523438 32.222656 103.691406 31.949219 103.8125 C 31.679688 103.929688 31.371094 103.992188 31.027344 103.992188 C 30.457031 103.992188 30.023438 103.871094 29.726562 103.636719 C 29.429688 103.398438 29.238281 103.050781 29.15625 102.585938 "
     id="path311" />
</svg>
