<?xml version="1.0" encoding="UTF-8" standalone="no"?>
<svg
   width="167.01pt"
   height="160.123pt"
   viewBox="0 0 167.01 160.123"
   version="1.1"
   id="svg179"
   sodipodi:docname="2007Perry_fig3.pdf"
   xmlns:inkscape="http://www.inkscape.org/namespaces/inkscape"
   xmlns:sodipodi="http://sodipodi.sourceforge.net/DTD/sodipodi-0.dtd"
   xmlns:xlink="http://www.w3.org/1999/xlink"
   xmlns="http://www.w3.org/2000/svg"
   xmlns:svg="http://www.w3.org/2000/svg">
  <sodipodi:namedview
     id="namedview179"
     pagecolor="#ffffff"
     bordercolor="#666666"
     borderopacity="1.0"
     inkscape:showpageshadow="2"
     inkscape:pageopacity="0.0"
     inkscape:pagecheckerboard="0"
     inkscape:deskcolor="#d1d1d1"
     inkscape:document-units="pt" />
  <defs
     id="defs48">
    <g
       id="g45">
      <g
         id="glyph-0-0">
        <path
           d="M 0.796875 0.09375 L 2.234375 -5.828125 L 1.40625 -5.828125 L -0.015625 0.09375 Z M 0.796875 0.09375 "
           id="path1" />
      </g>
      <g
         id="glyph-0-1">
        <path
           d="M 0.546875 1.578125 L 1.640625 1.578125 L 1.640625 -0.5 C 1.84375 -0.28125 2.046875 -0.125 2.234375 -0.03125 C 2.421875 0.0625 2.625 0.109375 2.859375 0.109375 C 3.34375 0.109375 3.75 -0.09375 4.078125 -0.46875 C 4.421875 -0.859375 4.59375 -1.40625 4.59375 -2.09375 C 4.59375 -2.765625 4.421875 -3.296875 4.09375 -3.671875 C 3.75 -4.046875 3.34375 -4.234375 2.859375 -4.234375 C 2.578125 -4.234375 2.34375 -4.171875 2.109375 -4.046875 C 1.875 -3.921875 1.703125 -3.75 1.5625 -3.546875 L 1.5625 -4.15625 L 0.546875 -4.15625 Z M 1.890625 -3.0625 C 2.0625 -3.265625 2.28125 -3.375 2.546875 -3.375 C 2.8125 -3.375 3.03125 -3.265625 3.203125 -3.0625 C 3.375 -2.84375 3.46875 -2.515625 3.46875 -2.09375 C 3.46875 -1.609375 3.375 -1.28125 3.203125 -1.078125 C 3.046875 -0.875 2.828125 -0.765625 2.578125 -0.765625 C 2.3125 -0.765625 2.09375 -0.875 1.90625 -1.109375 C 1.71875 -1.328125 1.625 -1.671875 1.625 -2.140625 C 1.625 -2.546875 1.71875 -2.859375 1.890625 -3.0625 Z M 1.890625 -3.0625 "
           id="path2" />
      </g>
      <g
         id="glyph-0-2">
        <path
           d="M 1.65625 -3.28125 C 1.765625 -3.359375 1.921875 -3.40625 2.125 -3.40625 C 2.40625 -3.40625 2.59375 -3.359375 2.703125 -3.265625 C 2.8125 -3.171875 2.859375 -3.03125 2.859375 -2.8125 L 2.859375 -2.703125 C 2.65625 -2.609375 2.3125 -2.515625 1.796875 -2.421875 C 1.421875 -2.359375 1.125 -2.265625 0.921875 -2.171875 C 0.734375 -2.078125 0.5625 -1.9375 0.453125 -1.75 C 0.34375 -1.5625 0.28125 -1.359375 0.28125 -1.125 C 0.28125 -0.765625 0.40625 -0.46875 0.65625 -0.234375 C 0.90625 -0.015625 1.234375 0.109375 1.65625 0.109375 C 1.90625 0.109375 2.125 0.0625 2.34375 -0.03125 C 2.5625 -0.125 2.765625 -0.265625 2.9375 -0.453125 C 2.953125 -0.421875 2.96875 -0.390625 2.984375 -0.3125 C 3.03125 -0.171875 3.0625 -0.078125 3.09375 0 L 4.171875 0 C 4.078125 -0.203125 4.015625 -0.390625 3.984375 -0.5625 C 3.9375 -0.734375 3.921875 -1 3.921875 -1.359375 L 3.9375 -2.640625 C 3.9375 -3.125 3.890625 -3.453125 3.796875 -3.625 C 3.703125 -3.796875 3.53125 -3.953125 3.28125 -4.0625 C 3.046875 -4.1875 2.6875 -4.234375 2.203125 -4.234375 C 1.65625 -4.234375 1.25 -4.140625 0.96875 -3.9375 C 0.703125 -3.75 0.515625 -3.453125 0.40625 -3.046875 L 1.390625 -2.875 C 1.453125 -3.0625 1.546875 -3.203125 1.65625 -3.28125 Z M 2.859375 -1.765625 C 2.859375 -1.5 2.84375 -1.328125 2.828125 -1.234375 C 2.78125 -1.09375 2.703125 -0.96875 2.5625 -0.859375 C 2.375 -0.734375 2.1875 -0.671875 1.984375 -0.671875 C 1.8125 -0.671875 1.671875 -0.734375 1.546875 -0.84375 C 1.4375 -0.953125 1.390625 -1.09375 1.390625 -1.234375 C 1.390625 -1.390625 1.453125 -1.515625 1.59375 -1.625 C 1.703125 -1.6875 1.890625 -1.75 2.203125 -1.8125 C 2.5 -1.875 2.71875 -1.9375 2.859375 -1.984375 Z M 2.859375 -1.765625 "
           id="path3" />
      </g>
      <g
         id="glyph-0-3">
        <path
           d="M 1.703125 0 L 1.703125 -5.734375 L 0.546875 -5.734375 L 0.546875 0 Z M 1.703125 0 "
           id="path4" />
      </g>
      <g
         id="glyph-0-4">
        <path
           d="M 4.359375 -2.578125 C 4.359375 -2.890625 4.328125 -3.140625 4.28125 -3.3125 C 4.25 -3.484375 4.171875 -3.640625 4.078125 -3.78125 C 3.96875 -3.90625 3.8125 -4.03125 3.609375 -4.109375 C 3.421875 -4.203125 3.1875 -4.234375 2.953125 -4.234375 C 2.40625 -4.234375 1.9375 -4.015625 1.578125 -3.546875 L 1.578125 -4.15625 L 0.5625 -4.15625 L 0.5625 0 L 1.65625 0 L 1.65625 -1.875 C 1.65625 -2.34375 1.6875 -2.65625 1.75 -2.828125 C 1.796875 -3 1.90625 -3.140625 2.0625 -3.234375 C 2.203125 -3.34375 2.375 -3.40625 2.5625 -3.40625 C 2.71875 -3.40625 2.84375 -3.359375 2.953125 -3.28125 C 3.0625 -3.21875 3.140625 -3.109375 3.1875 -2.984375 C 3.234375 -2.859375 3.25 -2.5625 3.25 -2.109375 L 3.25 0 L 4.359375 0 Z M 4.359375 -2.578125 "
           id="path5" />
      </g>
      <g
         id="glyph-0-5">
        <path
           d="M 1.71875 -4.15625 L 1.71875 -5.625 L 0.625 -4.96875 L 0.625 -4.15625 L 0.125 -4.15625 L 0.125 -3.28125 L 0.625 -3.28125 L 0.625 -1.46875 C 0.625 -1.078125 0.625 -0.8125 0.65625 -0.6875 C 0.6875 -0.5 0.734375 -0.359375 0.8125 -0.25 C 0.890625 -0.15625 1 -0.0625 1.15625 0 C 1.3125 0.078125 1.5 0.109375 1.703125 0.109375 C 2.015625 0.109375 2.296875 0.046875 2.5625 -0.0625 L 2.46875 -0.90625 C 2.265625 -0.84375 2.125 -0.8125 2.03125 -0.8125 C 1.953125 -0.8125 1.890625 -0.828125 1.84375 -0.859375 C 1.796875 -0.890625 1.75 -0.9375 1.75 -1 C 1.734375 -1.0625 1.71875 -1.25 1.71875 -1.59375 L 1.71875 -3.28125 L 2.46875 -3.28125 L 2.46875 -4.15625 Z M 1.71875 -4.15625 "
           id="path6" />
      </g>
      <g
         id="glyph-1-0">
        <path
           d="M 1.8125 1.6875 C 1.515625 0.765625 1.359375 -0.125 1.359375 -0.984375 C 1.359375 -1.5625 1.4375 -2.140625 1.59375 -2.71875 C 1.75 -3.28125 1.984375 -3.859375 2.34375 -4.453125 C 2.671875 -5.046875 3 -5.5 3.296875 -5.828125 L 2.75 -5.828125 C 2.25 -5.265625 1.90625 -4.796875 1.6875 -4.453125 C 1.34375 -3.921875 1.09375 -3.390625 0.921875 -2.84375 C 0.75 -2.296875 0.671875 -1.71875 0.671875 -1.078125 C 0.671875 -0.140625 0.875 0.78125 1.28125 1.6875 Z M 1.8125 1.6875 "
           id="path7" />
      </g>
      <g
         id="glyph-1-1">
        <path
           d="M 1.171875 -0.328125 C 1.59375 -0.046875 2.125 0.09375 2.765625 0.09375 C 3.1875 0.09375 3.578125 0.03125 3.90625 -0.125 C 4.234375 -0.265625 4.5 -0.46875 4.703125 -0.734375 C 4.875 -0.984375 4.96875 -1.265625 4.96875 -1.578125 C 4.96875 -1.828125 4.921875 -2.0625 4.8125 -2.25 C 4.703125 -2.453125 4.53125 -2.609375 4.328125 -2.75 C 4.171875 -2.859375 3.890625 -3 3.484375 -3.1875 C 2.96875 -3.40625 2.65625 -3.5625 2.515625 -3.625 C 2.328125 -3.75 2.203125 -3.84375 2.125 -3.953125 C 2.0625 -4.078125 2.015625 -4.203125 2.015625 -4.34375 C 2.015625 -4.578125 2.109375 -4.765625 2.28125 -4.90625 C 2.515625 -5.09375 2.828125 -5.1875 3.25 -5.1875 C 3.484375 -5.1875 3.703125 -5.15625 3.890625 -5.09375 C 4.078125 -5.03125 4.234375 -4.9375 4.34375 -4.828125 C 4.453125 -4.71875 4.53125 -4.578125 4.578125 -4.421875 C 4.609375 -4.34375 4.625 -4.203125 4.625 -4.046875 L 5.375 -4.109375 C 5.375 -4.15625 5.375 -4.203125 5.375 -4.21875 C 5.375 -4.453125 5.296875 -4.703125 5.15625 -4.96875 C 5.015625 -5.21875 4.78125 -5.4375 4.453125 -5.59375 C 4.140625 -5.75 3.75 -5.828125 3.265625 -5.828125 C 2.890625 -5.828125 2.53125 -5.765625 2.21875 -5.640625 C 1.90625 -5.515625 1.671875 -5.328125 1.515625 -5.09375 C 1.359375 -4.859375 1.265625 -4.59375 1.265625 -4.296875 C 1.265625 -4.046875 1.34375 -3.8125 1.453125 -3.609375 C 1.578125 -3.421875 1.765625 -3.234375 2.03125 -3.0625 C 2.1875 -2.953125 2.5 -2.8125 2.9375 -2.609375 C 3.53125 -2.375 3.875 -2.171875 4.015625 -2.03125 C 4.140625 -1.875 4.203125 -1.703125 4.203125 -1.53125 C 4.203125 -1.265625 4.078125 -1.046875 3.84375 -0.84375 C 3.59375 -0.640625 3.25 -0.53125 2.796875 -0.53125 C 2.46875 -0.53125 2.1875 -0.578125 1.953125 -0.6875 C 1.734375 -0.78125 1.5625 -0.921875 1.453125 -1.109375 C 1.359375 -1.296875 1.296875 -1.5 1.296875 -1.71875 L 1.3125 -1.921875 L 0.5625 -1.84375 C 0.5625 -1.109375 0.765625 -0.609375 1.171875 -0.328125 Z M 1.171875 -0.328125 "
           id="path8" />
      </g>
      <g
         id="glyph-1-2">
        <path
           d="M 0.640625 1.59375 L 1.109375 -0.671875 C 1.390625 -0.171875 1.765625 0.09375 2.265625 0.09375 C 2.5 0.09375 2.71875 0.046875 2.921875 -0.0625 C 3.140625 -0.171875 3.359375 -0.328125 3.5625 -0.53125 C 3.765625 -0.75 3.9375 -1.046875 4.09375 -1.390625 C 4.234375 -1.75 4.296875 -2.140625 4.296875 -2.578125 C 4.296875 -3.109375 4.171875 -3.515625 3.90625 -3.8125 C 3.65625 -4.09375 3.3125 -4.234375 2.921875 -4.234375 C 2.71875 -4.234375 2.515625 -4.1875 2.3125 -4.09375 C 2.125 -4 1.90625 -3.828125 1.671875 -3.5625 L 1.796875 -4.15625 L 1.140625 -4.15625 L -0.0625 1.59375 Z M 1.453125 -2.40625 C 1.546875 -2.6875 1.65625 -2.90625 1.78125 -3.109375 C 1.921875 -3.28125 2.0625 -3.4375 2.21875 -3.53125 C 2.375 -3.625 2.53125 -3.671875 2.71875 -3.671875 C 2.96875 -3.671875 3.171875 -3.578125 3.34375 -3.390625 C 3.515625 -3.1875 3.59375 -2.921875 3.59375 -2.5625 C 3.59375 -2.09375 3.46875 -1.625 3.21875 -1.171875 C 2.96875 -0.71875 2.640625 -0.484375 2.234375 -0.484375 C 2.046875 -0.484375 1.859375 -0.53125 1.71875 -0.640625 C 1.5625 -0.75 1.46875 -0.875 1.40625 -1.046875 C 1.359375 -1.171875 1.328125 -1.390625 1.328125 -1.703125 C 1.328125 -1.890625 1.375 -2.140625 1.453125 -2.40625 Z M 1.453125 -2.40625 "
           id="path9" />
      </g>
      <g
         id="glyph-1-3">
        <path
           d="M 2.78125 -0.734375 C 2.53125 -0.5625 2.296875 -0.484375 2.0625 -0.484375 C 1.796875 -0.484375 1.578125 -0.59375 1.40625 -0.796875 C 1.21875 -1 1.125 -1.296875 1.125 -1.6875 C 1.125 -1.75 1.140625 -1.828125 1.140625 -1.90625 L 4.203125 -1.90625 C 4.25 -2.125 4.265625 -2.328125 4.265625 -2.53125 C 4.265625 -3.0625 4.109375 -3.46875 3.8125 -3.78125 C 3.515625 -4.09375 3.125 -4.234375 2.625 -4.234375 C 2.234375 -4.234375 1.875 -4.140625 1.546875 -3.921875 C 1.21875 -3.71875 0.9375 -3.40625 0.734375 -2.984375 C 0.515625 -2.5625 0.421875 -2.125 0.421875 -1.65625 C 0.421875 -1.3125 0.484375 -1.015625 0.609375 -0.75 C 0.75 -0.46875 0.9375 -0.265625 1.203125 -0.125 C 1.46875 0.015625 1.75 0.09375 2.0625 0.09375 C 2.546875 0.09375 2.96875 -0.0625 3.328125 -0.375 C 3.6875 -0.6875 3.90625 -1 4.015625 -1.34375 L 3.3125 -1.40625 C 3.1875 -1.109375 3.015625 -0.875 2.78125 -0.734375 Z M 1.8125 -3.390625 C 2.0625 -3.59375 2.34375 -3.703125 2.640625 -3.703125 C 2.921875 -3.703125 3.15625 -3.59375 3.34375 -3.421875 C 3.515625 -3.21875 3.59375 -2.953125 3.59375 -2.59375 C 3.59375 -2.578125 3.59375 -2.515625 3.59375 -2.453125 L 1.25 -2.453125 C 1.390625 -2.859375 1.5625 -3.171875 1.8125 -3.390625 Z M 1.8125 -3.390625 "
           id="path10" />
      </g>
      <g
         id="glyph-1-4">
        <path
           d="M 2.625 -0.71875 C 2.421875 -0.546875 2.203125 -0.453125 1.96875 -0.453125 C 1.75 -0.453125 1.546875 -0.546875 1.390625 -0.71875 C 1.234375 -0.890625 1.15625 -1.15625 1.15625 -1.515625 C 1.15625 -1.859375 1.21875 -2.203125 1.34375 -2.5625 C 1.453125 -2.9375 1.625 -3.203125 1.828125 -3.390625 C 2.046875 -3.5625 2.28125 -3.65625 2.5625 -3.65625 C 2.8125 -3.65625 3.015625 -3.578125 3.15625 -3.4375 C 3.3125 -3.28125 3.390625 -3.078125 3.390625 -2.8125 L 4.09375 -2.859375 C 4.09375 -3.28125 3.953125 -3.609375 3.703125 -3.859375 C 3.4375 -4.109375 3.078125 -4.234375 2.640625 -4.234375 C 2.203125 -4.234375 1.828125 -4.125 1.484375 -3.890625 C 1.15625 -3.671875 0.890625 -3.34375 0.71875 -2.90625 C 0.53125 -2.46875 0.453125 -2.03125 0.453125 -1.5625 C 0.453125 -1.046875 0.59375 -0.640625 0.875 -0.359375 C 1.15625 -0.0625 1.515625 0.09375 1.96875 0.09375 C 2.390625 0.09375 2.75 -0.046875 3.078125 -0.28125 C 3.40625 -0.53125 3.65625 -0.921875 3.84375 -1.4375 L 3.125 -1.515625 C 3.015625 -1.15625 2.84375 -0.890625 2.625 -0.71875 Z M 2.625 -0.71875 "
           id="path11" />
      </g>
      <g
         id="glyph-1-5">
        <path
           d="M 0.96875 0 L 1.34375 -1.78125 C 1.453125 -2.296875 1.578125 -2.671875 1.703125 -2.90625 C 1.828125 -3.140625 2.015625 -3.3125 2.234375 -3.453125 C 2.46875 -3.59375 2.703125 -3.65625 2.953125 -3.65625 C 3.125 -3.65625 3.25 -3.609375 3.359375 -3.53125 C 3.4375 -3.4375 3.484375 -3.328125 3.484375 -3.1875 C 3.484375 -3.109375 3.453125 -2.875 3.375 -2.515625 L 2.8125 0 L 3.515625 0 L 4.0625 -2.453125 C 4.15625 -2.84375 4.1875 -3.109375 4.1875 -3.25 C 4.1875 -3.546875 4.109375 -3.78125 3.90625 -3.96875 C 3.734375 -4.15625 3.46875 -4.234375 3.125 -4.234375 C 2.890625 -4.234375 2.65625 -4.1875 2.4375 -4.078125 C 2.21875 -3.953125 1.96875 -3.78125 1.71875 -3.53125 L 2.171875 -5.734375 L 1.46875 -5.734375 L 0.265625 0 Z M 0.96875 0 "
           id="path12" />
      </g>
      <g
         id="glyph-1-6">
        <path
           d="M 1.0625 -5.828125 C 1.359375 -4.90625 1.5 -4.015625 1.5 -3.15625 C 1.5 -2.578125 1.421875 -2.015625 1.265625 -1.4375 C 1.125 -0.875 0.875 -0.28125 0.53125 0.296875 C 0.1875 0.890625 -0.125 1.359375 -0.4375 1.6875 L 0.125 1.6875 C 0.609375 1.125 0.96875 0.65625 1.1875 0.296875 C 1.53125 -0.21875 1.78125 -0.765625 1.953125 -1.296875 C 2.125 -1.84375 2.203125 -2.4375 2.203125 -3.0625 C 2.203125 -4.015625 1.984375 -4.921875 1.578125 -5.828125 Z M 1.0625 -5.828125 "
           id="path13" />
      </g>
      <g
         id="glyph-2-0">
        <path
           d="M 1.390625 0 L 1.390625 -2.546875 L 2.265625 -2.546875 C 2.46875 -2.546875 2.609375 -2.53125 2.6875 -2.515625 C 2.8125 -2.484375 2.921875 -2.4375 3.046875 -2.375 C 3.15625 -2.296875 3.28125 -2.171875 3.421875 -1.984375 C 3.5625 -1.796875 3.75 -1.53125 3.96875 -1.1875 L 4.734375 0 L 5.671875 0 L 4.6875 -1.5625 C 4.484375 -1.859375 4.265625 -2.125 4.0625 -2.3125 C 3.953125 -2.421875 3.796875 -2.515625 3.59375 -2.609375 C 4.140625 -2.6875 4.546875 -2.859375 4.8125 -3.140625 C 5.078125 -3.421875 5.203125 -3.765625 5.203125 -4.171875 C 5.203125 -4.484375 5.125 -4.765625 4.96875 -5.03125 C 4.8125 -5.28125 4.59375 -5.46875 4.34375 -5.578125 C 4.078125 -5.6875 3.6875 -5.734375 3.171875 -5.734375 L 0.625 -5.734375 L 0.625 0 Z M 1.390625 -5.09375 L 3.203125 -5.09375 C 3.625 -5.09375 3.9375 -5.015625 4.125 -4.828125 C 4.328125 -4.65625 4.421875 -4.4375 4.421875 -4.171875 C 4.421875 -3.984375 4.375 -3.8125 4.265625 -3.640625 C 4.171875 -3.5 4.03125 -3.375 3.828125 -3.296875 C 3.625 -3.234375 3.375 -3.203125 3.015625 -3.203125 L 1.390625 -3.203125 Z M 1.390625 -5.09375 "
           id="path14" />
      </g>
      <g
         id="glyph-2-1">
        <path
           d="M 2.921875 -0.703125 C 2.75 -0.5625 2.53125 -0.484375 2.265625 -0.484375 C 1.921875 -0.484375 1.625 -0.609375 1.40625 -0.84375 C 1.171875 -1.09375 1.046875 -1.4375 1.015625 -1.890625 L 4.109375 -1.890625 C 4.109375 -1.96875 4.109375 -2.046875 4.109375 -2.078125 C 4.109375 -2.765625 3.9375 -3.296875 3.578125 -3.671875 C 3.234375 -4.046875 2.78125 -4.234375 2.234375 -4.234375 C 1.65625 -4.234375 1.1875 -4.046875 0.828125 -3.65625 C 0.46875 -3.28125 0.296875 -2.734375 0.296875 -2.046875 C 0.296875 -1.375 0.46875 -0.84375 0.828125 -0.46875 C 1.1875 -0.09375 1.65625 0.09375 2.265625 0.09375 C 2.75 0.09375 3.140625 -0.03125 3.453125 -0.265625 C 3.765625 -0.5 3.96875 -0.828125 4.09375 -1.25 L 3.359375 -1.34375 C 3.25 -1.046875 3.109375 -0.828125 2.921875 -0.703125 Z M 1.421875 -3.34375 C 1.640625 -3.546875 1.90625 -3.65625 2.234375 -3.65625 C 2.59375 -3.65625 2.875 -3.53125 3.109375 -3.25 C 3.25 -3.078125 3.34375 -2.828125 3.375 -2.46875 L 1.0625 -2.46875 C 1.078125 -2.828125 1.203125 -3.125 1.421875 -3.34375 Z M 1.421875 -3.34375 "
           id="path15" />
      </g>
      <g
         id="glyph-2-2">
        <path
           d="M 1.75 -0.59375 C 1.640625 -0.59375 1.5625 -0.609375 1.515625 -0.640625 C 1.453125 -0.6875 1.421875 -0.734375 1.390625 -0.796875 C 1.375 -0.84375 1.359375 -0.96875 1.359375 -1.171875 L 1.359375 -3.609375 L 2.0625 -3.609375 L 2.0625 -4.15625 L 1.359375 -4.15625 L 1.359375 -5.59375 L 0.640625 -5.171875 L 0.640625 -4.15625 L 0.125 -4.15625 L 0.125 -3.609375 L 0.640625 -3.609375 L 0.640625 -1.21875 C 0.640625 -0.796875 0.6875 -0.515625 0.734375 -0.390625 C 0.796875 -0.25 0.890625 -0.140625 1.03125 -0.0625 C 1.171875 0.015625 1.375 0.0625 1.625 0.0625 C 1.78125 0.0625 1.953125 0.03125 2.15625 -0.015625 L 2.0625 -0.625 C 1.921875 -0.609375 1.828125 -0.59375 1.75 -0.59375 Z M 1.75 -0.59375 "
           id="path16" />
      </g>
      <g
         id="glyph-2-3">
        <path
           d="M 1.21875 0 L 1.21875 -2.171875 C 1.21875 -2.46875 1.265625 -2.734375 1.34375 -2.984375 C 1.390625 -3.15625 1.484375 -3.28125 1.59375 -3.375 C 1.71875 -3.46875 1.859375 -3.515625 2.015625 -3.515625 C 2.1875 -3.515625 2.359375 -3.46875 2.53125 -3.375 L 2.78125 -4.015625 C 2.53125 -4.171875 2.28125 -4.234375 2.0625 -4.234375 C 1.890625 -4.234375 1.734375 -4.1875 1.59375 -4.09375 C 1.46875 -4.015625 1.3125 -3.8125 1.15625 -3.515625 L 1.15625 -4.15625 L 0.515625 -4.15625 L 0.515625 0 Z M 1.21875 0 "
           id="path17" />
      </g>
      <g
         id="glyph-2-4">
        <path
           d="M 1.234375 -4.921875 L 1.234375 -5.734375 L 0.53125 -5.734375 L 0.53125 -4.921875 Z M 1.234375 0 L 1.234375 -4.15625 L 0.53125 -4.15625 L 0.53125 0 Z M 1.234375 0 "
           id="path18" />
      </g>
      <g
         id="glyph-2-5">
        <path
           d="M 2.34375 0 L 3.90625 -4.15625 L 3.1875 -4.15625 L 2.265625 -1.609375 C 2.15625 -1.3125 2.0625 -1.046875 2.015625 -0.828125 C 1.921875 -1.125 1.828125 -1.40625 1.734375 -1.65625 L 0.84375 -4.15625 L 0.09375 -4.15625 L 1.65625 0 Z M 2.34375 0 "
           id="path19" />
      </g>
      <g
         id="glyph-2-6">
        <path
           d="M 3.859375 0 L 3.859375 -5.734375 L 3.15625 -5.734375 L 3.15625 -3.65625 C 3.046875 -3.84375 2.875 -3.96875 2.6875 -4.078125 C 2.484375 -4.1875 2.265625 -4.234375 2.015625 -4.234375 C 1.671875 -4.234375 1.375 -4.15625 1.09375 -3.96875 C 0.8125 -3.796875 0.609375 -3.53125 0.46875 -3.203125 C 0.34375 -2.859375 0.265625 -2.484375 0.265625 -2.078125 C 0.265625 -1.640625 0.34375 -1.265625 0.5 -0.9375 C 0.640625 -0.625 0.859375 -0.375 1.140625 -0.1875 C 1.421875 0 1.71875 0.09375 2.046875 0.09375 C 2.5625 0.09375 2.9375 -0.125 3.203125 -0.53125 L 3.203125 0 Z M 1.296875 -3.265625 C 1.515625 -3.53125 1.765625 -3.65625 2.09375 -3.65625 C 2.40625 -3.65625 2.671875 -3.515625 2.890625 -3.25 C 3.109375 -2.984375 3.21875 -2.578125 3.21875 -2.015625 C 3.21875 -1.5 3.125 -1.109375 2.90625 -0.859375 C 2.6875 -0.609375 2.421875 -0.484375 2.109375 -0.484375 C 1.8125 -0.484375 1.546875 -0.609375 1.3125 -0.875 C 1.09375 -1.140625 0.984375 -1.546875 0.984375 -2.078125 C 0.984375 -2.609375 1.09375 -3.015625 1.296875 -3.265625 Z M 1.296875 -3.265625 "
           id="path20" />
      </g>
      <g
         id="glyph-2-7">
        <path
           d="M 1.375 0 L 1.375 -2.34375 L 2.84375 -2.34375 C 3.65625 -2.34375 4.21875 -2.5 4.53125 -2.84375 C 4.84375 -3.171875 4.984375 -3.59375 4.984375 -4.078125 C 4.984375 -4.359375 4.9375 -4.609375 4.8125 -4.859375 C 4.703125 -5.09375 4.546875 -5.265625 4.359375 -5.40625 C 4.171875 -5.53125 3.9375 -5.625 3.640625 -5.671875 C 3.453125 -5.71875 3.15625 -5.734375 2.78125 -5.734375 L 0.609375 -5.734375 L 0.609375 0 Z M 1.375 -5.0625 L 2.84375 -5.0625 C 3.1875 -5.0625 3.421875 -5.046875 3.546875 -5.015625 C 3.75 -4.953125 3.90625 -4.84375 4.03125 -4.65625 C 4.140625 -4.5 4.203125 -4.28125 4.203125 -4.046875 C 4.203125 -3.71875 4.109375 -3.46875 3.890625 -3.28125 C 3.703125 -3.09375 3.34375 -3.015625 2.859375 -3.015625 L 1.375 -3.015625 Z M 1.375 -5.0625 "
           id="path21" />
      </g>
      <g
         id="glyph-2-8">
        <path
           d="M 1.234375 0 L 1.234375 -2.265625 C 1.234375 -2.59375 1.265625 -2.84375 1.359375 -3.03125 C 1.421875 -3.21875 1.5625 -3.359375 1.734375 -3.46875 C 1.921875 -3.578125 2.109375 -3.625 2.3125 -3.625 C 2.59375 -3.625 2.8125 -3.546875 2.96875 -3.390625 C 3.125 -3.234375 3.1875 -2.96875 3.1875 -2.625 L 3.1875 0 L 3.890625 0 L 3.890625 -2.625 C 3.890625 -3.03125 3.84375 -3.34375 3.75 -3.5625 C 3.65625 -3.765625 3.484375 -3.9375 3.265625 -4.0625 C 3.046875 -4.171875 2.78125 -4.234375 2.46875 -4.234375 C 1.96875 -4.234375 1.5625 -4.046875 1.234375 -3.65625 L 1.234375 -5.734375 L 0.53125 -5.734375 L 0.53125 0 Z M 1.234375 0 "
           id="path22" />
      </g>
      <g
         id="glyph-2-9">
        <path
           d="M 0.796875 -0.46875 C 1.15625 -0.09375 1.625 0.09375 2.203125 0.09375 C 2.578125 0.09375 2.90625 0 3.21875 -0.171875 C 3.515625 -0.34375 3.75 -0.5625 3.90625 -0.875 C 4.078125 -1.1875 4.15625 -1.59375 4.15625 -2.140625 C 4.15625 -2.796875 3.96875 -3.296875 3.609375 -3.6875 C 3.25 -4.0625 2.78125 -4.234375 2.203125 -4.234375 C 1.703125 -4.234375 1.265625 -4.09375 0.90625 -3.78125 C 0.484375 -3.40625 0.265625 -2.84375 0.265625 -2.078125 C 0.265625 -1.375 0.4375 -0.84375 0.796875 -0.46875 Z M 1.34375 -3.265625 C 1.5625 -3.53125 1.859375 -3.65625 2.203125 -3.65625 C 2.5625 -3.65625 2.84375 -3.53125 3.078125 -3.265625 C 3.3125 -3 3.4375 -2.609375 3.4375 -2.09375 C 3.4375 -1.546875 3.3125 -1.15625 3.078125 -0.890625 C 2.84375 -0.625 2.5625 -0.484375 2.203125 -0.484375 C 1.859375 -0.484375 1.5625 -0.609375 1.34375 -0.875 C 1.109375 -1.140625 0.984375 -1.546875 0.984375 -2.078125 C 0.984375 -2.59375 1.109375 -3 1.34375 -3.265625 Z M 1.34375 -3.265625 "
           id="path23" />
      </g>
      <g
         id="glyph-2-10">
        <path
           d="M 1.234375 0 L 1.234375 -2.265625 C 1.234375 -2.796875 1.34375 -3.15625 1.5625 -3.34375 C 1.78125 -3.53125 2.03125 -3.625 2.328125 -3.625 C 2.515625 -3.625 2.6875 -3.59375 2.8125 -3.5 C 2.953125 -3.421875 3.0625 -3.296875 3.109375 -3.171875 C 3.171875 -3.03125 3.1875 -2.8125 3.1875 -2.515625 L 3.1875 0 L 3.890625 0 L 3.890625 -2.546875 C 3.890625 -2.875 3.875 -3.109375 3.859375 -3.234375 C 3.8125 -3.4375 3.75 -3.609375 3.640625 -3.75 C 3.53125 -3.890625 3.375 -4.015625 3.171875 -4.109375 C 2.953125 -4.1875 2.734375 -4.234375 2.484375 -4.234375 C 1.90625 -4.234375 1.46875 -4.015625 1.15625 -3.5625 L 1.15625 -4.15625 L 0.53125 -4.15625 L 0.53125 0 Z M 1.234375 0 "
           id="path24" />
      </g>
      <g
         id="glyph-2-11">
        <path
           d="M 1.21875 0 L 1.21875 -5.734375 L 0.515625 -5.734375 L 0.515625 0 Z M 1.21875 0 "
           id="path25" />
      </g>
      <g
         id="glyph-2-12">
        <path
           d="M 0.84375 1.34375 C 1.140625 1.5625 1.546875 1.6875 2.046875 1.6875 C 2.453125 1.6875 2.8125 1.59375 3.09375 1.453125 C 3.375 1.28125 3.578125 1.078125 3.71875 0.8125 C 3.84375 0.53125 3.90625 0.078125 3.90625 -0.5625 L 3.90625 -4.15625 L 3.265625 -4.15625 L 3.265625 -3.640625 C 2.9375 -4.046875 2.546875 -4.234375 2.046875 -4.234375 C 1.6875 -4.234375 1.375 -4.15625 1.09375 -3.96875 C 0.828125 -3.78125 0.609375 -3.53125 0.46875 -3.1875 C 0.328125 -2.859375 0.25 -2.5 0.25 -2.09375 C 0.25 -1.515625 0.40625 -1.03125 0.71875 -0.609375 C 1.046875 -0.203125 1.484375 0 2.046875 0 C 2.5 0 2.890625 -0.1875 3.203125 -0.546875 C 3.203125 -0.09375 3.1875 0.21875 3.140625 0.359375 C 3.09375 0.59375 2.96875 0.765625 2.78125 0.90625 C 2.609375 1.03125 2.359375 1.09375 2.03125 1.09375 C 1.734375 1.09375 1.484375 1.03125 1.3125 0.90625 C 1.1875 0.8125 1.109375 0.640625 1.078125 0.4375 L 0.40625 0.34375 C 0.390625 0.796875 0.53125 1.125 0.84375 1.34375 Z M 1.296875 -3.265625 C 1.515625 -3.53125 1.78125 -3.65625 2.109375 -3.65625 C 2.421875 -3.65625 2.6875 -3.53125 2.921875 -3.265625 C 3.140625 -3.015625 3.25 -2.625 3.25 -2.125 C 3.25 -1.59375 3.140625 -1.203125 2.921875 -0.953125 C 2.703125 -0.71875 2.4375 -0.578125 2.109375 -0.578125 C 1.78125 -0.578125 1.515625 -0.71875 1.296875 -0.953125 C 1.078125 -1.203125 0.96875 -1.609375 0.96875 -2.140625 C 0.96875 -2.640625 1.09375 -3.03125 1.296875 -3.265625 Z M 1.296875 -3.265625 "
           id="path26" />
      </g>
      <g
         id="glyph-2-13">
        <path
           d="M 0.953125 1.6875 C 1.171875 1.6875 1.375 1.625 1.53125 1.515625 C 1.703125 1.40625 1.84375 1.234375 1.953125 1.015625 C 2.0625 0.84375 2.1875 0.53125 2.359375 0.078125 L 3.921875 -4.15625 L 3.21875 -4.15625 L 2.34375 -1.734375 C 2.21875 -1.421875 2.125 -1.109375 2.046875 -0.796875 C 1.953125 -1.125 1.859375 -1.453125 1.75 -1.75 L 0.875 -4.15625 L 0.125 -4.15625 L 1.703125 0.015625 C 1.671875 0.09375 1.65625 0.140625 1.640625 0.1875 C 1.546875 0.46875 1.46875 0.640625 1.421875 0.71875 C 1.375 0.8125 1.28125 0.875 1.1875 0.921875 C 1.109375 0.984375 0.96875 1.015625 0.8125 1.015625 C 0.703125 1.015625 0.5625 0.984375 0.421875 0.9375 L 0.5 1.59375 C 0.65625 1.640625 0.8125 1.6875 0.953125 1.6875 Z M 0.953125 1.6875 "
           id="path27" />
      </g>
      <g
         id="glyph-2-14" />
      <g
         id="glyph-2-15">
        <path
           d="M 0.796875 0 L 1.421875 -1.734375 L 3.828125 -1.734375 L 4.484375 0 L 5.359375 0 L 3.015625 -5.734375 L 2.1875 -5.734375 L -0.015625 0 Z M 2.265625 -4.03125 C 2.390625 -4.390625 2.5 -4.765625 2.578125 -5.140625 C 2.671875 -4.828125 2.8125 -4.421875 2.984375 -3.9375 L 3.59375 -2.359375 L 1.640625 -2.359375 Z M 2.265625 -4.03125 "
           id="path28" />
      </g>
      <g
         id="glyph-2-16">
        <path
           d="M 0.796875 -0.25 C 1.078125 -0.03125 1.484375 0.09375 2.03125 0.09375 C 2.359375 0.09375 2.640625 0.03125 2.890625 -0.078125 C 3.15625 -0.1875 3.359375 -0.359375 3.484375 -0.5625 C 3.625 -0.765625 3.703125 -0.984375 3.703125 -1.21875 C 3.703125 -1.46875 3.640625 -1.65625 3.53125 -1.828125 C 3.421875 -1.984375 3.25 -2.109375 3.0625 -2.1875 C 2.859375 -2.265625 2.515625 -2.390625 2.03125 -2.515625 C 1.6875 -2.609375 1.46875 -2.671875 1.40625 -2.703125 C 1.28125 -2.75 1.1875 -2.8125 1.140625 -2.875 C 1.078125 -2.953125 1.046875 -3.046875 1.046875 -3.125 C 1.046875 -3.265625 1.125 -3.40625 1.25 -3.5 C 1.390625 -3.609375 1.625 -3.65625 1.9375 -3.65625 C 2.21875 -3.65625 2.421875 -3.59375 2.578125 -3.484375 C 2.734375 -3.359375 2.8125 -3.1875 2.84375 -2.96875 L 3.53125 -3.078125 C 3.484375 -3.34375 3.40625 -3.5625 3.296875 -3.71875 C 3.171875 -3.875 2.984375 -4.015625 2.75 -4.09375 C 2.5 -4.1875 2.21875 -4.234375 1.890625 -4.234375 C 1.6875 -4.234375 1.46875 -4.21875 1.28125 -4.15625 C 1.09375 -4.109375 0.953125 -4.03125 0.84375 -3.953125 C 0.703125 -3.84375 0.578125 -3.71875 0.5 -3.5625 C 0.40625 -3.40625 0.375 -3.234375 0.375 -3.046875 C 0.375 -2.84375 0.421875 -2.65625 0.515625 -2.484375 C 0.625 -2.328125 0.78125 -2.1875 0.96875 -2.09375 C 1.171875 -2 1.53125 -1.890625 2.046875 -1.765625 C 2.421875 -1.65625 2.65625 -1.578125 2.765625 -1.515625 C 2.90625 -1.4375 2.96875 -1.296875 2.96875 -1.140625 C 2.96875 -0.96875 2.890625 -0.8125 2.75 -0.6875 C 2.578125 -0.546875 2.34375 -0.484375 2.03125 -0.484375 C 1.703125 -0.484375 1.453125 -0.5625 1.265625 -0.71875 C 1.09375 -0.859375 0.984375 -1.078125 0.9375 -1.359375 L 0.25 -1.234375 C 0.328125 -0.796875 0.5 -0.46875 0.796875 -0.25 Z M 0.796875 -0.25 "
           id="path29" />
      </g>
      <g
         id="glyph-2-17">
        <path
           d="M 1.234375 0 L 1.234375 -2.15625 C 1.234375 -2.53125 1.265625 -2.8125 1.34375 -3.015625 C 1.421875 -3.21875 1.546875 -3.375 1.71875 -3.46875 C 1.875 -3.578125 2.0625 -3.625 2.25 -3.625 C 2.515625 -3.625 2.703125 -3.546875 2.8125 -3.40625 C 2.9375 -3.234375 2.984375 -3.015625 2.984375 -2.703125 L 2.984375 0 L 3.703125 0 L 3.703125 -2.40625 C 3.703125 -2.84375 3.796875 -3.140625 3.984375 -3.34375 C 4.171875 -3.53125 4.421875 -3.625 4.71875 -3.625 C 4.875 -3.625 5.015625 -3.59375 5.140625 -3.515625 C 5.25 -3.4375 5.34375 -3.34375 5.390625 -3.21875 C 5.4375 -3.09375 5.453125 -2.890625 5.453125 -2.609375 L 5.453125 0 L 6.15625 0 L 6.15625 -2.84375 C 6.15625 -3.3125 6.046875 -3.671875 5.828125 -3.890625 C 5.59375 -4.125 5.28125 -4.234375 4.875 -4.234375 C 4.34375 -4.234375 3.90625 -4 3.578125 -3.515625 C 3.5 -3.75 3.375 -3.921875 3.171875 -4.046875 C 2.96875 -4.171875 2.71875 -4.234375 2.421875 -4.234375 C 2.140625 -4.234375 1.890625 -4.171875 1.6875 -4.0625 C 1.46875 -3.921875 1.28125 -3.765625 1.15625 -3.5625 L 1.15625 -4.15625 L 0.53125 -4.15625 L 0.53125 0 Z M 1.234375 0 "
           id="path30" />
      </g>
      <g
         id="glyph-2-18">
        <path
           d="M 1.171875 -0.515625 C 1.453125 -0.109375 1.84375 0.09375 2.328125 0.09375 C 2.8125 0.09375 3.234375 -0.109375 3.59375 -0.5 C 3.9375 -0.875 4.125 -1.4375 4.125 -2.140625 C 4.125 -2.4375 4.078125 -2.71875 3.984375 -2.984375 C 3.90625 -3.234375 3.796875 -3.46875 3.640625 -3.65625 C 3.5 -3.84375 3.3125 -3.984375 3.09375 -4.09375 C 2.859375 -4.1875 2.609375 -4.234375 2.359375 -4.234375 C 1.90625 -4.234375 1.515625 -4.0625 1.21875 -3.6875 L 1.21875 -5.734375 L 0.515625 -5.734375 L 0.515625 0 L 1.171875 0 Z M 1.5 -3.265625 C 1.734375 -3.53125 1.984375 -3.65625 2.296875 -3.65625 C 2.59375 -3.65625 2.859375 -3.53125 3.078125 -3.28125 C 3.296875 -3.03125 3.40625 -2.625 3.40625 -2.078125 C 3.40625 -1.546875 3.28125 -1.15625 3.0625 -0.890625 C 2.84375 -0.625 2.578125 -0.484375 2.265625 -0.484375 C 1.890625 -0.484375 1.59375 -0.671875 1.375 -1.03125 C 1.234375 -1.25 1.171875 -1.609375 1.171875 -2.109375 C 1.171875 -2.609375 1.28125 -3 1.5 -3.265625 Z M 1.5 -3.265625 "
           id="path31" />
      </g>
      <g
         id="glyph-2-19">
        <path
           d="M 2.890625 -0.75 C 2.703125 -0.578125 2.46875 -0.484375 2.203125 -0.484375 C 1.859375 -0.484375 1.578125 -0.609375 1.359375 -0.859375 C 1.140625 -1.125 1.046875 -1.515625 1.046875 -2.078125 C 1.046875 -2.625 1.15625 -3.03125 1.375 -3.28125 C 1.59375 -3.53125 1.875 -3.65625 2.234375 -3.65625 C 2.46875 -3.65625 2.671875 -3.59375 2.84375 -3.453125 C 3 -3.3125 3.125 -3.109375 3.1875 -2.828125 L 3.859375 -2.921875 C 3.78125 -3.34375 3.59375 -3.671875 3.3125 -3.890625 C 3.03125 -4.125 2.65625 -4.234375 2.203125 -4.234375 C 1.859375 -4.234375 1.515625 -4.15625 1.21875 -3.984375 C 0.921875 -3.828125 0.6875 -3.5625 0.546875 -3.234375 C 0.390625 -2.890625 0.3125 -2.5 0.3125 -2.0625 C 0.3125 -1.375 0.5 -0.84375 0.84375 -0.46875 C 1.1875 -0.09375 1.640625 0.09375 2.203125 0.09375 C 2.65625 0.09375 3.046875 -0.046875 3.359375 -0.3125 C 3.65625 -0.578125 3.859375 -0.953125 3.921875 -1.421875 L 3.234375 -1.515625 C 3.1875 -1.171875 3.078125 -0.90625 2.890625 -0.75 Z M 2.890625 -0.75 "
           id="path32" />
      </g>
      <g
         id="glyph-2-20">
        <path
           d="M 3.375 0 L 4.109375 0 C 4.03125 -0.15625 3.96875 -0.328125 3.9375 -0.5 C 3.90625 -0.671875 3.890625 -1.09375 3.890625 -1.734375 L 3.890625 -2.671875 C 3.890625 -2.984375 3.890625 -3.203125 3.859375 -3.3125 C 3.8125 -3.515625 3.75 -3.671875 3.640625 -3.796875 C 3.53125 -3.921875 3.375 -4.03125 3.15625 -4.109375 C 2.921875 -4.203125 2.640625 -4.234375 2.28125 -4.234375 C 1.921875 -4.234375 1.609375 -4.1875 1.34375 -4.09375 C 1.078125 -3.984375 0.859375 -3.859375 0.71875 -3.671875 C 0.578125 -3.5 0.46875 -3.25 0.40625 -2.953125 L 1.09375 -2.859375 C 1.171875 -3.15625 1.28125 -3.375 1.453125 -3.484375 C 1.609375 -3.59375 1.84375 -3.65625 2.1875 -3.65625 C 2.53125 -3.65625 2.8125 -3.578125 2.984375 -3.421875 C 3.125 -3.296875 3.1875 -3.109375 3.1875 -2.8125 C 3.1875 -2.796875 3.1875 -2.734375 3.1875 -2.625 C 2.90625 -2.53125 2.5 -2.453125 1.921875 -2.390625 C 1.640625 -2.359375 1.4375 -2.3125 1.296875 -2.28125 C 1.109375 -2.234375 0.9375 -2.15625 0.796875 -2.0625 C 0.640625 -1.953125 0.515625 -1.8125 0.421875 -1.640625 C 0.34375 -1.484375 0.28125 -1.296875 0.28125 -1.09375 C 0.28125 -0.75 0.40625 -0.46875 0.65625 -0.25 C 0.90625 -0.03125 1.25 0.09375 1.71875 0.09375 C 1.984375 0.09375 2.25 0.046875 2.484375 -0.046875 C 2.734375 -0.140625 2.96875 -0.296875 3.234375 -0.515625 C 3.265625 -0.3125 3.296875 -0.15625 3.375 0 Z M 3.1875 -1.828125 C 3.1875 -1.515625 3.140625 -1.28125 3.0625 -1.125 C 2.96875 -0.921875 2.8125 -0.765625 2.59375 -0.640625 C 2.390625 -0.515625 2.15625 -0.46875 1.875 -0.46875 C 1.59375 -0.46875 1.390625 -0.53125 1.25 -0.640625 C 1.109375 -0.78125 1.046875 -0.921875 1.046875 -1.125 C 1.046875 -1.234375 1.078125 -1.359375 1.140625 -1.453125 C 1.203125 -1.546875 1.296875 -1.625 1.421875 -1.6875 C 1.53125 -1.734375 1.75 -1.78125 2.03125 -1.8125 C 2.546875 -1.890625 2.921875 -1.96875 3.1875 -2.078125 Z M 3.1875 -1.828125 "
           id="path33" />
      </g>
      <g
         id="glyph-2-21">
        <path
           d="M 2.6875 0 C 3.03125 0 3.34375 -0.03125 3.59375 -0.09375 C 3.875 -0.15625 4.09375 -0.25 4.28125 -0.390625 C 4.484375 -0.515625 4.640625 -0.6875 4.8125 -0.90625 C 4.96875 -1.125 5.09375 -1.40625 5.203125 -1.734375 C 5.296875 -2.078125 5.359375 -2.46875 5.359375 -2.890625 C 5.359375 -3.40625 5.28125 -3.859375 5.125 -4.25 C 4.96875 -4.65625 4.75 -4.984375 4.453125 -5.234375 C 4.21875 -5.4375 3.9375 -5.5625 3.609375 -5.640625 C 3.375 -5.703125 3.03125 -5.734375 2.59375 -5.734375 L 0.609375 -5.734375 L 0.609375 0 Z M 1.375 -5.0625 L 2.578125 -5.0625 C 3.03125 -5.0625 3.359375 -5.015625 3.5625 -4.9375 C 3.84375 -4.828125 4.078125 -4.609375 4.265625 -4.28125 C 4.46875 -3.96875 4.5625 -3.5 4.5625 -2.90625 C 4.5625 -2.46875 4.515625 -2.109375 4.421875 -1.796875 C 4.3125 -1.5 4.171875 -1.25 4 -1.078125 C 3.875 -0.9375 3.703125 -0.84375 3.484375 -0.78125 C 3.265625 -0.703125 2.96875 -0.671875 2.59375 -0.671875 L 1.375 -0.671875 Z M 1.375 -5.0625 "
           id="path34" />
      </g>
      <g
         id="glyph-2-22">
        <path
           d="M 0.6875 -0.8125 C 0.875 -0.515625 1.15625 -0.28125 1.5 -0.125 C 1.859375 0.03125 2.28125 0.09375 2.8125 0.09375 C 3.21875 0.09375 3.578125 0.03125 3.90625 -0.125 C 4.234375 -0.28125 4.484375 -0.484375 4.65625 -0.75 C 4.828125 -1.03125 4.921875 -1.3125 4.921875 -1.609375 C 4.921875 -1.921875 4.84375 -2.1875 4.6875 -2.4375 C 4.515625 -2.65625 4.28125 -2.859375 3.9375 -3.015625 C 3.71875 -3.109375 3.296875 -3.234375 2.6875 -3.375 C 2.0625 -3.515625 1.6875 -3.640625 1.53125 -3.78125 C 1.390625 -3.921875 1.3125 -4.09375 1.3125 -4.296875 C 1.3125 -4.53125 1.421875 -4.734375 1.625 -4.890625 C 1.84375 -5.0625 2.171875 -5.15625 2.625 -5.15625 C 3.078125 -5.15625 3.40625 -5.0625 3.625 -4.875 C 3.859375 -4.6875 3.984375 -4.421875 4.03125 -4.0625 L 4.75 -4.109375 C 4.734375 -4.453125 4.640625 -4.75 4.46875 -5.015625 C 4.296875 -5.28125 4.046875 -5.484375 3.71875 -5.609375 C 3.40625 -5.75 3.03125 -5.828125 2.59375 -5.828125 C 2.21875 -5.828125 1.859375 -5.765625 1.546875 -5.625 C 1.234375 -5.5 0.984375 -5.296875 0.828125 -5.0625 C 0.65625 -4.796875 0.578125 -4.53125 0.578125 -4.234375 C 0.578125 -3.96875 0.640625 -3.75 0.78125 -3.53125 C 0.921875 -3.3125 1.125 -3.140625 1.390625 -2.984375 C 1.609375 -2.875 1.96875 -2.765625 2.5 -2.640625 C 3.03125 -2.515625 3.375 -2.421875 3.515625 -2.359375 C 3.765625 -2.265625 3.921875 -2.15625 4.03125 -2.03125 C 4.140625 -1.890625 4.1875 -1.734375 4.1875 -1.546875 C 4.1875 -1.375 4.140625 -1.203125 4.03125 -1.0625 C 3.921875 -0.90625 3.765625 -0.796875 3.53125 -0.703125 C 3.3125 -0.609375 3.0625 -0.578125 2.765625 -0.578125 C 2.453125 -0.578125 2.15625 -0.625 1.890625 -0.75 C 1.625 -0.859375 1.4375 -1.015625 1.3125 -1.1875 C 1.1875 -1.375 1.109375 -1.609375 1.078125 -1.90625 L 0.375 -1.84375 C 0.375 -1.453125 0.484375 -1.109375 0.6875 -0.8125 Z M 0.6875 -0.8125 "
           id="path35" />
      </g>
      <g
         id="glyph-3-0">
        <path
           d="M 1.75 0 L 1.75 -2.15625 L 2.5 -2.15625 C 3.015625 -2.15625 3.421875 -2.1875 3.703125 -2.234375 C 3.890625 -2.28125 4.09375 -2.375 4.28125 -2.515625 C 4.484375 -2.640625 4.640625 -2.84375 4.78125 -3.078125 C 4.90625 -3.3125 4.96875 -3.609375 4.96875 -3.96875 C 4.96875 -4.421875 4.859375 -4.796875 4.640625 -5.078125 C 4.421875 -5.375 4.140625 -5.5625 3.8125 -5.640625 C 3.59375 -5.703125 3.140625 -5.734375 2.4375 -5.734375 L 0.578125 -5.734375 L 0.578125 0 Z M 2.296875 -4.765625 C 2.71875 -4.765625 2.984375 -4.75 3.125 -4.71875 C 3.3125 -4.6875 3.46875 -4.59375 3.59375 -4.46875 C 3.71875 -4.328125 3.78125 -4.15625 3.78125 -3.9375 C 3.78125 -3.78125 3.734375 -3.625 3.640625 -3.5 C 3.5625 -3.375 3.4375 -3.28125 3.28125 -3.21875 C 3.140625 -3.15625 2.828125 -3.125 2.375 -3.125 L 1.75 -3.125 L 1.75 -4.765625 Z M 2.296875 -4.765625 "
           id="path36" />
      </g>
      <g
         id="glyph-3-1">
        <path
           d="M 1.703125 0 L 1.703125 -5.734375 L 0.546875 -5.734375 L 0.546875 0 Z M 1.703125 0 "
           id="path37" />
      </g>
      <g
         id="glyph-3-2">
        <path
           d="M 1.65625 0 L 1.65625 -3.765625 L 3.96875 0 L 5.140625 0 L 5.140625 -5.734375 L 4.0625 -5.734375 L 4.0625 -1.890625 L 1.703125 -5.734375 L 0.578125 -5.734375 L 0.578125 0 Z M 1.65625 0 "
           id="path38" />
      </g>
      <g
         id="glyph-3-3">
        <path
           d="M 3.03125 0 L 3.03125 -4.765625 L 4.71875 -4.765625 L 4.71875 -5.734375 L 0.171875 -5.734375 L 0.171875 -4.765625 L 1.875 -4.765625 L 1.875 0 Z M 3.03125 0 "
           id="path39" />
      </g>
      <g
         id="glyph-3-4">
        <path
           d="M 1.90625 0.53125 C 1.78125 0.140625 1.65625 -0.296875 1.578125 -0.75 C 1.5 -1.1875 1.46875 -1.625 1.46875 -2.0625 C 1.46875 -2.671875 1.53125 -3.25 1.65625 -3.8125 C 1.796875 -4.375 2.046875 -5.03125 2.40625 -5.828125 L 1.65625 -5.828125 C 1.3125 -5.328125 1.03125 -4.796875 0.796875 -4.203125 C 0.546875 -3.546875 0.421875 -2.828125 0.421875 -2.078125 C 0.421875 -1.46875 0.515625 -0.84375 0.734375 -0.1875 C 0.9375 0.453125 1.25 1.078125 1.640625 1.6875 L 2.40625 1.6875 C 2.171875 1.1875 2.015625 0.796875 1.90625 0.53125 Z M 1.90625 0.53125 "
           id="path40" />
      </g>
      <g
         id="glyph-3-5">
        <path
           d="M 1.625 -1.28125 C 1.625 -1.984375 1.65625 -2.453125 1.71875 -2.671875 C 1.78125 -2.890625 1.859375 -3.046875 1.96875 -3.125 C 2.078125 -3.21875 2.203125 -3.25 2.359375 -3.25 C 2.515625 -3.25 2.6875 -3.203125 2.875 -3.078125 L 3.21875 -4.03125 C 2.984375 -4.171875 2.75 -4.234375 2.484375 -4.234375 C 2.3125 -4.234375 2.15625 -4.203125 2.015625 -4.109375 C 1.875 -4.03125 1.71875 -3.84375 1.546875 -3.5625 L 1.546875 -4.15625 L 0.53125 -4.15625 L 0.53125 0 L 1.625 0 Z M 1.625 -1.28125 "
           id="path41" />
      </g>
      <g
         id="glyph-3-6">
        <path
           d="M 1.671875 -4.71875 L 1.671875 -5.734375 L 0.578125 -5.734375 L 0.578125 -4.71875 Z M 1.671875 0 L 1.671875 -4.15625 L 0.578125 -4.15625 L 0.578125 0 Z M 1.671875 0 "
           id="path42" />
      </g>
      <g
         id="glyph-3-7">
        <path
           d="M 4.359375 -2.578125 C 4.359375 -2.890625 4.328125 -3.140625 4.28125 -3.3125 C 4.25 -3.484375 4.171875 -3.640625 4.078125 -3.78125 C 3.96875 -3.90625 3.8125 -4.03125 3.609375 -4.109375 C 3.421875 -4.203125 3.1875 -4.234375 2.953125 -4.234375 C 2.40625 -4.234375 1.9375 -4.015625 1.578125 -3.546875 L 1.578125 -4.15625 L 0.5625 -4.15625 L 0.5625 0 L 1.65625 0 L 1.65625 -1.875 C 1.65625 -2.34375 1.6875 -2.65625 1.75 -2.828125 C 1.796875 -3 1.90625 -3.140625 2.0625 -3.234375 C 2.203125 -3.34375 2.375 -3.40625 2.5625 -3.40625 C 2.71875 -3.40625 2.84375 -3.359375 2.953125 -3.28125 C 3.0625 -3.21875 3.140625 -3.109375 3.1875 -2.984375 C 3.234375 -2.859375 3.25 -2.5625 3.25 -2.109375 L 3.25 0 L 4.359375 0 Z M 4.359375 -2.578125 "
           id="path43" />
      </g>
      <g
         id="glyph-3-8">
        <path
           d="M 1.71875 -4.15625 L 1.71875 -5.625 L 0.625 -4.96875 L 0.625 -4.15625 L 0.125 -4.15625 L 0.125 -3.28125 L 0.625 -3.28125 L 0.625 -1.46875 C 0.625 -1.078125 0.625 -0.8125 0.65625 -0.6875 C 0.6875 -0.5 0.734375 -0.359375 0.8125 -0.25 C 0.890625 -0.15625 1 -0.0625 1.15625 0 C 1.3125 0.078125 1.5 0.109375 1.703125 0.109375 C 2.015625 0.109375 2.296875 0.046875 2.5625 -0.0625 L 2.46875 -0.90625 C 2.265625 -0.84375 2.125 -0.8125 2.03125 -0.8125 C 1.953125 -0.8125 1.890625 -0.828125 1.84375 -0.859375 C 1.796875 -0.890625 1.75 -0.9375 1.75 -1 C 1.734375 -1.0625 1.71875 -1.25 1.71875 -1.59375 L 1.71875 -3.28125 L 2.46875 -3.28125 L 2.46875 -4.15625 Z M 1.71875 -4.15625 "
           id="path44" />
      </g>
      <g
         id="glyph-4-0">
        <path
           d="M 0.875 1.4375 C 1.265625 0.859375 1.53125 0.265625 1.703125 -0.328125 C 1.84375 -0.859375 1.921875 -1.359375 1.921875 -1.828125 C 1.921875 -2.375 1.828125 -2.921875 1.640625 -3.453125 C 1.453125 -4 1.1875 -4.5 0.859375 -4.984375 L 0.21875 -4.984375 C 0.53125 -4.3125 0.734375 -3.734375 0.84375 -3.25 C 0.96875 -2.78125 1.015625 -2.28125 1.015625 -1.765625 C 1.015625 -1.484375 1 -1.234375 0.96875 -1 C 0.9375 -0.75 0.890625 -0.484375 0.828125 -0.203125 C 0.765625 0.0625 0.6875 0.3125 0.609375 0.53125 C 0.546875 0.734375 0.40625 1.046875 0.21875 1.4375 Z M 0.875 1.4375 "
           id="path45" />
      </g>
    </g>
    <clipPath
       id="clip-0">
      <path
         clip-rule="nonzero"
         d="M 5.808594 88 L 52 88 L 52 115 L 5.808594 115 Z M 5.808594 88 "
         id="path46" />
    </clipPath>
    <clipPath
       id="clip-1">
      <path
         clip-rule="nonzero"
         d="M 68 148 L 89 148 L 89 155.582031 L 68 155.582031 Z M 68 148 "
         id="path47" />
    </clipPath>
    <clipPath
       id="clip-2">
      <path
         clip-rule="nonzero"
         d="M 89 148 L 91 148 L 91 155.582031 L 89 155.582031 Z M 89 148 "
         id="path48" />
    </clipPath>
  </defs>
  <g
     fill="rgb(13.729858%, 12.159729%, 12.548828%)"
     fill-opacity="1"
     id="g49">
    <use
       xlink:href="#glyph-0-0"
       x="66.6617"
       y="20.8084"
       id="use48" />
    <use
       xlink:href="#glyph-0-1"
       x="68.915931"
       y="20.8084"
       id="use49" />
  </g>
  <g
     fill="rgb(13.729858%, 12.159729%, 12.548828%)"
     fill-opacity="1"
     id="g50">
    <use
       xlink:href="#glyph-0-2"
       x="73.777966"
       y="20.8084"
       id="use50" />
  </g>
  <g
     fill="rgb(13.729858%, 12.159729%, 12.548828%)"
     fill-opacity="1"
     id="g52">
    <use
       xlink:href="#glyph-0-3"
       x="78.13124"
       y="20.8084"
       id="use51" />
    <use
       xlink:href="#glyph-0-4"
       x="80.385471"
       y="20.8084"
       id="use52" />
  </g>
  <g
     fill="rgb(13.729858%, 12.159729%, 12.548828%)"
     fill-opacity="1"
     id="g53">
    <use
       xlink:href="#glyph-0-5"
       x="85.176311"
       y="20.8084"
       id="use53" />
  </g>
  <g
     fill="rgb(13.729858%, 12.159729%, 12.548828%)"
     fill-opacity="1"
     id="g54">
    <use
       xlink:href="#glyph-0-0"
       x="87.816113"
       y="20.8084"
       id="use54" />
  </g>
  <g
     fill="rgb(13.729858%, 12.159729%, 12.548828%)"
     fill-opacity="1"
     id="g58">
    <use
       xlink:href="#glyph-1-0"
       x="63.477939"
       y="11.161968"
       id="use55" />
    <use
       xlink:href="#glyph-1-1"
       x="66.13454"
       y="11.161968"
       id="use56" />
    <use
       xlink:href="#glyph-1-2"
       x="71.46294"
       y="11.161968"
       id="use57" />
    <use
       xlink:href="#glyph-1-3"
       x="75.903407"
       y="11.161968"
       id="use58" />
  </g>
  <g
     fill="rgb(13.729858%, 12.159729%, 12.548828%)"
     fill-opacity="1"
     id="g60">
    <use
       xlink:href="#glyph-1-3"
       x="80.287878"
       y="11.161968"
       id="use59" />
    <use
       xlink:href="#glyph-1-4"
       x="84.728345"
       y="11.161968"
       id="use60" />
  </g>
  <g
     fill="rgb(13.729858%, 12.159729%, 12.548828%)"
     fill-opacity="1"
     id="g62">
    <use
       xlink:href="#glyph-1-5"
       x="88.66405"
       y="11.161968"
       id="use61" />
    <use
       xlink:href="#glyph-1-6"
       x="93.104517"
       y="11.161968"
       id="use62" />
  </g>
  <path
     fill-rule="evenodd"
     fill="rgb(13.729858%, 12.159729%, 12.548828%)"
     fill-opacity="1"
     d="M 100.570312 127.195312 L 101.871094 128.601562 L 95.371094 134.726562 L 97.972656 137.53125 L 104.507812 131.441406 L 105.808594 132.84375 L 109.710938 123.910156 "
     id="path62" />
  <path
     fill="none"
     stroke-width="0.569"
     stroke-linecap="round"
     stroke-linejoin="miter"
     stroke="rgb(64.457703%, 63.81073%, 63.970947%)"
     stroke-opacity="1"
     stroke-miterlimit="8"
     d="M -0.0016875 0.0016875 L 1.299094 -1.404563 L -5.200906 -7.529563 L -2.599344 -10.33425 L 3.935812 -4.244406 L 5.236594 -5.64675 L 9.138937 3.286844 Z M -0.0016875 0.0016875 "
     transform="matrix(1, 0, 0, -1, 100.572, 127.197)"
     id="path63" />
  <path
     fill-rule="evenodd"
     fill="rgb(13.729858%, 12.159729%, 12.548828%)"
     fill-opacity="1"
     d="M 56.15625 131.613281 L 57.523438 130.140625 L 64.609375 136.777344 L 67.3125 133.902344 L 60.191406 127.265625 L 61.5625 125.828125 L 51.773438 122.066406 "
     id="path64" />
  <path
     fill="none"
     stroke-width="0.569"
     stroke-linecap="round"
     stroke-linejoin="miter"
     stroke="rgb(64.457703%, 63.81073%, 63.970947%)"
     stroke-opacity="1"
     stroke-miterlimit="8"
     d="M 0.00125 -0.00128125 L 1.368437 1.471375 L 8.454375 -5.165344 L 11.1575 -2.290344 L 4.036406 4.346375 L 5.4075 5.783875 L -4.381563 9.545594 Z M 0.00125 -0.00128125 "
     transform="matrix(1, 0, 0, -1, 56.155, 131.612)"
     id="path65" />
  <path
     fill-rule="evenodd"
     fill="rgb(100%, 100%, 100%)"
     fill-opacity="1"
     d="M 60.058594 46.851562 C 56.839844 46.851562 54.207031 49.484375 54.207031 52.738281 L 54.207031 65.328125 C 54.207031 68.578125 56.839844 71.214844 60.058594 71.214844 L 93.113281 71.214844 C 96.328125 71.214844 98.964844 68.578125 98.964844 65.328125 L 98.964844 52.738281 C 98.964844 49.484375 96.328125 46.851562 93.113281 46.851562 "
     id="path66" />
  <path
     fill="none"
     stroke-width="0.427"
     stroke-linecap="round"
     stroke-linejoin="round"
     stroke="rgb(13.729858%, 12.159729%, 12.548828%)"
     stroke-opacity="1"
     stroke-miterlimit="10"
     d="M 0.00159375 -0.0015625 C -3.217156 -0.0015625 -5.849969 -2.634375 -5.849969 -5.888281 L -5.849969 -18.478125 C -5.849969 -21.728125 -3.217156 -24.364844 0.00159375 -24.364844 L 33.056281 -24.364844 C 36.271125 -24.364844 38.907844 -21.728125 38.907844 -18.478125 L 38.907844 -5.888281 C 38.907844 -2.634375 36.271125 -0.0015625 33.056281 -0.0015625 Z M 0.00159375 -0.0015625 "
     transform="matrix(1, 0, 0, -1, 60.057, 46.85)"
     id="path67" />
  <path
     fill-rule="evenodd"
     fill="rgb(100%, 100%, 100%)"
     fill-opacity="1"
     d="M 11.910156 88.289062 C 8.660156 88.289062 6.023438 90.925781 6.023438 94.175781 L 6.023438 108.480469 C 6.023438 111.730469 8.660156 114.363281 11.910156 114.363281 L 45.34375 114.363281 C 48.59375 114.363281 51.226562 111.730469 51.226562 108.480469 L 51.226562 94.175781 C 51.226562 90.925781 48.59375 88.289062 45.34375 88.289062 "
     id="path68" />
  <g
     clip-path="url(#clip-0)"
     id="g69">
    <path
       fill="none"
       stroke-width="0.427"
       stroke-linecap="round"
       stroke-linejoin="round"
       stroke="rgb(13.729858%, 12.159729%, 12.548828%)"
       stroke-opacity="1"
       stroke-miterlimit="10"
       d="M 0.00015625 0.0009375 C -3.249844 0.0009375 -5.886562 -2.635781 -5.886562 -5.885781 L -5.886562 -20.190469 C -5.886562 -23.440469 -3.249844 -26.073281 0.00015625 -26.073281 L 33.43375 -26.073281 C 36.68375 -26.073281 39.316563 -23.440469 39.316563 -20.190469 L 39.316563 -5.885781 C 39.316563 -2.635781 36.68375 0.0009375 33.43375 0.0009375 Z M 0.00015625 0.0009375 "
       transform="matrix(1, 0, 0, -1, 11.91, 88.29)"
       id="path69" />
  </g>
  <path
     fill-rule="evenodd"
     fill="rgb(100%, 100%, 100%)"
     fill-opacity="1"
     d="M 112.105469 87.878906 C 108.851562 87.878906 106.21875 90.515625 106.21875 93.765625 L 106.21875 108.035156 C 106.21875 111.285156 108.851562 113.921875 112.105469 113.921875 L 145.535156 113.921875 C 148.785156 113.921875 151.421875 111.285156 151.421875 108.035156 L 151.421875 93.765625 C 151.421875 90.515625 148.785156 87.878906 145.535156 87.878906 "
     id="path70" />
  <path
     fill="none"
     stroke-width="0.427"
     stroke-linecap="round"
     stroke-linejoin="round"
     stroke="rgb(13.729858%, 12.159729%, 12.548828%)"
     stroke-opacity="1"
     stroke-miterlimit="10"
     d="M 0.00146875 0.00009375 C -3.252437 0.00009375 -5.88525 -2.636625 -5.88525 -5.886625 L -5.88525 -20.156156 C -5.88525 -23.406156 -3.252437 -26.042875 0.00146875 -26.042875 L 33.431156 -26.042875 C 36.681156 -26.042875 39.317875 -23.406156 39.317875 -20.156156 L 39.317875 -5.886625 C 39.317875 -2.636625 36.681156 0.00009375 33.431156 0.00009375 Z M -44.0415 32.062594 C -45.100094 32.062594 -45.955562 31.207125 -45.955562 30.148531 C -45.955562 29.086031 -45.100094 28.230562 -44.0415 28.230562 C -42.979 28.230562 -42.123531 29.086031 -42.123531 30.148531 C -42.123531 31.207125 -42.979 32.062594 -44.0415 32.062594 Z M -35.076656 32.062594 C -36.13525 32.062594 -37.025875 31.207125 -37.025875 30.148531 C -37.025875 29.086031 -36.13525 28.230562 -35.076656 28.230562 C -34.049312 28.230562 -33.158687 29.086031 -33.158687 30.148531 C -33.158687 31.207125 -34.049312 32.062594 -35.076656 32.062594 Z M -25.69775 32.062594 C -26.76025 32.062594 -27.615719 31.207125 -27.615719 30.148531 C -27.615719 29.086031 -26.76025 28.230562 -25.69775 28.230562 C -24.639156 28.230562 -23.783687 29.086031 -23.783687 30.148531 C -23.783687 31.207125 -24.639156 32.062594 -25.69775 32.062594 Z M -17.178219 32.062594 C -18.240719 32.062594 -19.096187 31.207125 -19.096187 30.148531 C -19.096187 29.086031 -18.240719 28.230562 -17.178219 28.230562 C -16.119625 28.230562 -15.26025 29.086031 -15.26025 30.148531 C -15.26025 31.207125 -16.119625 32.062594 -17.178219 32.062594 Z M -53.4165 32.062594 C -54.475094 32.062594 -55.330562 31.207125 -55.330562 30.148531 C -55.330562 29.086031 -54.475094 28.230562 -53.4165 28.230562 C -52.357906 28.230562 -51.498531 29.086031 -51.498531 30.148531 C -51.498531 31.207125 -52.357906 32.062594 -53.4165 32.062594 Z M 9.23975 -4.242094 C 8.17725 -4.242094 7.321781 -5.132719 7.321781 -6.195219 C 7.321781 -7.253813 8.17725 -8.109281 9.23975 -8.109281 C 10.30225 -8.109281 11.157719 -7.253813 11.157719 -6.195219 C 11.157719 -5.132719 10.30225 -4.242094 9.23975 -4.242094 Z M 16.0835 -4.242094 C 15.024906 -4.242094 14.165531 -5.132719 14.165531 -6.195219 C 14.165531 -7.253813 15.024906 -8.109281 16.0835 -8.109281 C 17.142094 -8.109281 17.997563 -7.253813 17.997563 -6.195219 C 17.997563 -5.132719 17.142094 -4.242094 16.0835 -4.242094 Z M 23.30225 -4.242094 C 22.243656 -4.242094 21.388188 -5.132719 21.388188 -6.195219 C 21.388188 -7.253813 22.243656 -8.109281 23.30225 -8.109281 C 24.36475 -8.109281 25.220219 -7.253813 25.220219 -6.195219 C 25.220219 -5.132719 24.36475 -4.242094 23.30225 -4.242094 Z M 29.704594 -4.242094 C 28.642094 -4.242094 27.786625 -5.132719 27.786625 -6.195219 C 27.786625 -7.253813 28.642094 -8.109281 29.704594 -8.109281 C 30.763188 -8.109281 31.618656 -7.253813 31.618656 -6.195219 C 31.618656 -5.132719 30.763188 -4.242094 29.704594 -4.242094 Z M 2.431156 -4.242094 C 1.368656 -4.242094 0.513188 -5.132719 0.513188 -6.195219 C 0.513188 -7.253813 1.368656 -8.109281 2.431156 -8.109281 C 3.48975 -8.109281 4.345219 -7.253813 4.345219 -6.195219 C 4.345219 -5.132719 3.48975 -4.242094 2.431156 -4.242094 Z M -90.51025 -3.831938 C -91.57275 -3.831938 -92.428219 -4.687406 -92.428219 -5.749906 C -92.428219 -6.8085 -91.57275 -7.663969 -90.51025 -7.663969 C -89.44775 -7.663969 -88.592281 -6.8085 -88.592281 -5.749906 C -88.592281 -4.687406 -89.44775 -3.831938 -90.51025 -3.831938 Z M -83.701656 -3.831938 C -84.76025 -3.831938 -85.615719 -4.687406 -85.615719 -5.749906 C -85.615719 -6.8085 -84.76025 -7.663969 -83.701656 -7.663969 C -82.639156 -7.663969 -81.783687 -6.8085 -81.783687 -5.749906 C -81.783687 -4.687406 -82.639156 -3.831938 -83.701656 -3.831938 Z M -76.857906 -3.831938 C -77.9165 -3.831938 -78.807125 -4.687406 -78.807125 -5.749906 C -78.807125 -6.8085 -77.9165 -7.663969 -76.857906 -7.663969 C -75.830562 -7.663969 -74.939937 -6.8085 -74.939937 -5.749906 C -74.939937 -4.687406 -75.830562 -3.831938 -76.857906 -3.831938 Z M -70.045406 -3.831938 C -71.107906 -3.831938 -71.963375 -4.687406 -71.963375 -5.749906 C -71.963375 -6.8085 -71.107906 -7.663969 -70.045406 -7.663969 C -68.986812 -7.663969 -68.131344 -6.8085 -68.131344 -5.749906 C -68.131344 -4.687406 -68.986812 -3.831938 -70.045406 -3.831938 Z M -97.354 -3.831938 C -98.381344 -3.831938 -99.268062 -4.687406 -99.268062 -5.749906 C -99.268062 -6.8085 -98.381344 -7.663969 -97.354 -7.663969 C -96.2915 -7.663969 -95.404781 -6.8085 -95.404781 -5.749906 C -95.404781 -4.687406 -96.2915 -3.831938 -97.354 -3.831938 Z M 6.673344 -17.519438 C 5.646 -17.519438 4.755375 -18.374906 4.755375 -19.437406 C 4.755375 -20.499906 5.646 -21.351469 6.673344 -21.351469 C 7.731938 -21.351469 8.622563 -20.499906 8.622563 -19.437406 C 8.622563 -18.374906 7.731938 -17.519438 6.673344 -17.519438 Z M 13.517094 -17.519438 C 12.4585 -17.519438 11.599125 -18.374906 11.599125 -19.437406 C 11.599125 -20.499906 12.4585 -21.351469 13.517094 -21.351469 C 14.579594 -21.351469 15.431156 -20.499906 15.431156 -19.437406 C 15.431156 -18.374906 14.579594 -17.519438 13.517094 -17.519438 Z M 20.325688 -17.519438 C 19.267094 -17.519438 18.411625 -18.374906 18.411625 -19.437406 C 18.411625 -20.499906 19.267094 -21.351469 20.325688 -21.351469 C 21.388188 -21.351469 22.243656 -20.499906 22.243656 -19.437406 C 22.243656 -18.374906 21.388188 -17.519438 20.325688 -17.519438 Z M 27.169438 -17.519438 C 26.110844 -17.519438 25.220219 -18.374906 25.220219 -19.437406 C 25.220219 -20.499906 26.110844 -21.351469 27.169438 -21.351469 C 28.196781 -21.351469 29.087406 -20.499906 29.087406 -19.437406 C 29.087406 -18.374906 28.196781 -17.519438 27.169438 -17.519438 Z M -88.389156 -11.08975 C -89.44775 -11.08975 -90.303219 -11.941313 -90.303219 -13.003813 C -90.303219 -14.066313 -89.44775 -14.956938 -88.389156 -14.956938 C -87.326656 -14.956938 -86.471187 -14.066313 -86.471187 -13.003813 C -86.471187 -11.941313 -87.326656 -11.08975 -88.389156 -11.08975 Z M -81.580562 -11.08975 C -82.604 -11.08975 -83.494625 -11.941313 -83.494625 -13.003813 C -83.494625 -14.066313 -82.604 -14.956938 -81.580562 -14.956938 C -80.518062 -14.956938 -79.627437 -14.066313 -79.627437 -13.003813 C -79.627437 -11.941313 -80.518062 -11.08975 -81.580562 -11.08975 Z M -88.389156 -18.785063 C -89.44775 -18.785063 -90.303219 -19.640531 -90.303219 -20.703031 C -90.303219 -21.765531 -89.44775 -22.621 -88.389156 -22.621 C -87.326656 -22.621 -86.471187 -21.765531 -86.471187 -20.703031 C -86.471187 -19.640531 -87.326656 -18.785063 -88.389156 -18.785063 Z M -81.580562 -18.785063 C -82.604 -18.785063 -83.494625 -19.640531 -83.494625 -20.703031 C -83.494625 -21.765531 -82.604 -22.621 -81.580562 -22.621 C -80.518062 -22.621 -79.627437 -21.765531 -79.627437 -20.703031 C -79.627437 -19.640531 -80.518062 -18.785063 -81.580562 -18.785063 Z M -74.736812 -18.785063 C -75.795406 -18.785063 -76.650875 -19.640531 -76.650875 -20.703031 C -76.650875 -21.765531 -75.795406 -22.621 -74.736812 -22.621 C -73.674312 -22.621 -72.818844 -21.765531 -72.818844 -20.703031 C -72.818844 -19.640531 -73.674312 -18.785063 -74.736812 -18.785063 Z M -95.19775 -18.785063 C -96.26025 -18.785063 -97.115719 -19.640531 -97.115719 -20.703031 C -97.115719 -21.765531 -96.26025 -22.621 -95.19775 -22.621 C -94.139156 -22.621 -93.283687 -21.765531 -93.283687 -20.703031 C -93.283687 -19.640531 -94.139156 -18.785063 -95.19775 -18.785063 Z M -95.19775 -18.581938 L -90.100094 -13.859281 M -88.389156 -18.581938 L -88.799312 -14.304594 M -81.580562 -18.581938 L -87.943844 -14.304594 M -75.178219 -18.581938 L -87.533687 -14.304594 M -95.19775 -18.136625 L -81.990719 -14.304594 M -87.943844 -18.581938 L -81.580562 -14.304594 M -81.990719 -18.581938 L -81.580562 -14.71475 M -74.736812 -18.581938 L -81.131344 -14.304594 M -81.990719 -10.882719 L -70.490719 -7.050688 M -81.990719 -10.882719 L -77.713375 -7.050688 M -81.580562 -10.472563 L -84.111812 -7.460844 M -81.990719 -10.472563 L -90.100094 -7.906156 M -81.990719 -10.882719 L -97.354 -7.050688 M -88.799312 -11.292875 L -97.354 -7.460844 M -88.799312 -10.882719 L -90.955562 -7.460844 M -88.799312 -10.472563 L -84.111812 -7.050688 M -88.389156 -10.472563 L -77.713375 -7.460844 M -87.943844 -10.882719 L -70.490719 -7.460844 M 6.263188 -17.726469 L 1.985844 -7.906156 M 6.673344 -17.281156 L 8.829594 -7.460844 M 6.673344 -17.281156 L 15.228031 -7.906156 M 7.118656 -17.281156 L 23.30225 -7.906156 M 7.118656 -17.281156 L 29.704594 -7.906156 M 13.517094 -16.871 L 2.841313 -7.906156 M 13.517094 -17.281156 L 9.23975 -7.906156 M 13.517094 -17.281156 L 15.638188 -7.906156 M 13.517094 -16.871 L 23.30225 -7.906156 M 14.372563 -16.871 L 29.704594 -7.906156 M 20.325688 -17.281156 L 3.286625 -7.906156 M 20.325688 -17.281156 L 9.685063 -7.906156 M 20.325688 -17.281156 L 16.0835 -7.906156 M 20.771 -16.425688 L 22.892094 -7.906156 M 20.325688 -17.281156 L 29.290531 -7.906156 M 27.169438 -17.281156 L 3.286625 -7.460844 M 27.169438 -16.425688 L 9.685063 -7.906156 M 27.169438 -17.281156 L 16.493656 -8.316313 M 27.579594 -16.871 L 23.30225 -7.906156 M 27.579594 -16.871 L 29.704594 -7.906156 M -24.021969 30.558687 L -21.01025 30.488375 "
     transform="matrix(1, 0, 0, -1, 112.104, 87.879)"
     id="path71" />
  <g
     fill="rgb(13.729858%, 12.159729%, 12.548828%)"
     fill-opacity="1"
     id="g72">
    <use
       xlink:href="#glyph-2-0"
       x="10.5416"
       y="124.2191"
       id="use71" />
    <use
       xlink:href="#glyph-2-1"
       x="16.254771"
       y="124.2191"
       id="use72" />
  </g>
  <g
     fill="rgb(13.729858%, 12.159729%, 12.548828%)"
     fill-opacity="1"
     id="g73">
    <use
       xlink:href="#glyph-2-2"
       x="20.703238"
       y="124.2191"
       id="use73" />
  </g>
  <g
     fill="rgb(13.729858%, 12.159729%, 12.548828%)"
     fill-opacity="1"
     id="g74">
    <use
       xlink:href="#glyph-2-3"
       x="22.957469"
       y="124.2191"
       id="use74" />
  </g>
  <g
     fill="rgb(13.729858%, 12.159729%, 12.548828%)"
     fill-opacity="1"
     id="g76">
    <use
       xlink:href="#glyph-2-4"
       x="25.589271"
       y="124.2191"
       id="use75" />
    <use
       xlink:href="#glyph-2-1"
       x="27.302743"
       y="124.2191"
       id="use76" />
  </g>
  <g
     fill="rgb(13.729858%, 12.159729%, 12.548828%)"
     fill-opacity="1"
     id="g77">
    <use
       xlink:href="#glyph-2-5"
       x="31.751209"
       y="124.2191"
       id="use77" />
  </g>
  <g
     fill="rgb(13.729858%, 12.159729%, 12.548828%)"
     fill-opacity="1"
     id="g78">
    <use
       xlink:href="#glyph-2-1"
       x="35.614919"
       y="124.2191"
       id="use78" />
  </g>
  <g
     fill="rgb(13.729858%, 12.159729%, 12.548828%)"
     fill-opacity="1"
     id="g79">
    <use
       xlink:href="#glyph-2-6"
       x="40.062586"
       y="124.2191"
       id="use79" />
  </g>
  <g
     fill="rgb(13.729858%, 12.159729%, 12.548828%)"
     fill-opacity="1"
     id="g83">
    <use
       xlink:href="#glyph-2-7"
       x="10.5416"
       y="133.729554"
       id="use80" />
    <use
       xlink:href="#glyph-2-8"
       x="15.862001"
       y="133.729554"
       id="use81" />
    <use
       xlink:href="#glyph-2-9"
       x="20.294468"
       y="133.729554"
       id="use82" />
    <use
       xlink:href="#glyph-2-10"
       x="24.726936"
       y="133.729554"
       id="use83" />
  </g>
  <g
     fill="rgb(13.729858%, 12.159729%, 12.548828%)"
     fill-opacity="1"
     id="g88">
    <use
       xlink:href="#glyph-2-9"
       x="29.111407"
       y="133.729554"
       id="use84" />
    <use
       xlink:href="#glyph-2-11"
       x="33.543875"
       y="133.729554"
       id="use85" />
    <use
       xlink:href="#glyph-2-9"
       x="35.304543"
       y="133.729554"
       id="use86" />
    <use
       xlink:href="#glyph-2-12"
       x="39.73701"
       y="133.729554"
       id="use87" />
    <use
       xlink:href="#glyph-2-13"
       x="44.169478"
       y="133.729554"
       id="use88" />
  </g>
  <g
     fill="rgb(13.729858%, 12.159729%, 12.548828%)"
     fill-opacity="1"
     id="g89">
    <use
       xlink:href="#glyph-2-14"
       x="48.073185"
       y="133.729554"
       id="use89" />
  </g>
  <g
     fill="rgb(13.729858%, 12.159729%, 12.548828%)"
     fill-opacity="1"
     id="g91">
    <use
       xlink:href="#glyph-2-15"
       x="113.813854"
       y="124.2191"
       id="use90" />
    <use
       xlink:href="#glyph-2-16"
       x="119.118256"
       y="124.2191"
       id="use91" />
  </g>
  <g
     fill="rgb(13.729858%, 12.159729%, 12.548828%)"
     fill-opacity="1"
     id="g98">
    <use
       xlink:href="#glyph-2-16"
       x="123.149154"
       y="124.2191"
       id="use92" />
    <use
       xlink:href="#glyph-2-1"
       x="127.117656"
       y="124.2191"
       id="use93" />
    <use
       xlink:href="#glyph-2-17"
       x="131.534125"
       y="124.2191"
       id="use94" />
    <use
       xlink:href="#glyph-2-18"
       x="138.166427"
       y="124.2191"
       id="use95" />
    <use
       xlink:href="#glyph-2-11"
       x="142.582896"
       y="124.2191"
       id="use96" />
    <use
       xlink:href="#glyph-2-1"
       x="144.327565"
       y="124.2191"
       id="use97" />
    <use
       xlink:href="#glyph-2-6"
       x="148.744034"
       y="124.2191"
       id="use98" />
  </g>
  <g
     fill="rgb(13.729858%, 12.159729%, 12.548828%)"
     fill-opacity="1"
     id="g102">
    <use
       xlink:href="#glyph-2-7"
       x="113.60587"
       y="133.729554"
       id="use99" />
    <use
       xlink:href="#glyph-2-8"
       x="118.93427"
       y="133.729554"
       id="use100" />
    <use
       xlink:href="#glyph-2-9"
       x="123.374737"
       y="133.729554"
       id="use101" />
    <use
       xlink:href="#glyph-2-10"
       x="127.815204"
       y="133.729554"
       id="use102" />
  </g>
  <g
     fill="rgb(13.729858%, 12.159729%, 12.548828%)"
     fill-opacity="1"
     id="g107">
    <use
       xlink:href="#glyph-2-9"
       x="132.200475"
       y="133.729554"
       id="use103" />
    <use
       xlink:href="#glyph-2-11"
       x="136.640942"
       y="133.729554"
       id="use104" />
    <use
       xlink:href="#glyph-2-9"
       x="138.409609"
       y="133.729554"
       id="use105" />
    <use
       xlink:href="#glyph-2-12"
       x="142.850076"
       y="133.729554"
       id="use106" />
    <use
       xlink:href="#glyph-2-13"
       x="147.290543"
       y="133.729554"
       id="use107" />
  </g>
  <g
     fill="rgb(13.729858%, 12.159729%, 12.548828%)"
     fill-opacity="1"
     id="g108">
    <use
       xlink:href="#glyph-2-14"
       x="151.162253"
       y="133.729554"
       id="use108" />
  </g>
  <g
     fill="rgb(13.729858%, 12.159729%, 12.548828%)"
     fill-opacity="1"
     id="g112">
    <use
       xlink:href="#glyph-2-7"
       x="102.686689"
       y="56.326134"
       id="use109" />
    <use
       xlink:href="#glyph-2-8"
       x="108.015889"
       y="56.326134"
       id="use110" />
    <use
       xlink:href="#glyph-2-9"
       x="112.457156"
       y="56.326134"
       id="use111" />
    <use
       xlink:href="#glyph-2-10"
       x="116.898423"
       y="56.326134"
       id="use112" />
  </g>
  <g
     fill="rgb(13.729858%, 12.159729%, 12.548828%)"
     fill-opacity="1"
     id="g117">
    <use
       xlink:href="#glyph-2-9"
       x="121.275694"
       y="56.326134"
       id="use113" />
    <use
       xlink:href="#glyph-2-11"
       x="125.716961"
       y="56.326134"
       id="use114" />
    <use
       xlink:href="#glyph-2-9"
       x="127.486428"
       y="56.326134"
       id="use115" />
    <use
       xlink:href="#glyph-2-12"
       x="131.927695"
       y="56.326134"
       id="use116" />
    <use
       xlink:href="#glyph-2-4"
       x="136.368962"
       y="56.326134"
       id="use117" />
  </g>
  <g
     fill="rgb(13.729858%, 12.159729%, 12.548828%)"
     fill-opacity="1"
     id="g120">
    <use
       xlink:href="#glyph-2-19"
       x="138.041637"
       y="56.326134"
       id="use118" />
    <use
       xlink:href="#glyph-2-20"
       x="142.034937"
       y="56.326134"
       id="use119" />
    <use
       xlink:href="#glyph-2-11"
       x="146.476204"
       y="56.326134"
       id="use120" />
  </g>
  <g
     fill="rgb(13.729858%, 12.159729%, 12.548828%)"
     fill-opacity="1"
     id="g121">
    <use
       xlink:href="#glyph-2-21"
       x="102.686689"
       y="65.908577"
       id="use121" />
  </g>
  <g
     fill="rgb(13.729858%, 12.159729%, 12.548828%)"
     fill-opacity="1"
     id="g126">
    <use
       xlink:href="#glyph-2-1"
       x="108.407859"
       y="65.908577"
       id="use122" />
    <use
       xlink:href="#glyph-2-19"
       x="112.857926"
       y="65.908577"
       id="use123" />
    <use
       xlink:href="#glyph-2-4"
       x="116.860026"
       y="65.908577"
       id="use124" />
    <use
       xlink:href="#glyph-2-16"
       x="118.638292"
       y="65.908577"
       id="use125" />
    <use
       xlink:href="#glyph-2-4"
       x="122.640392"
       y="65.908577"
       id="use126" />
  </g>
  <g
     fill="rgb(13.729858%, 12.159729%, 12.548828%)"
     fill-opacity="1"
     id="g128">
    <use
       xlink:href="#glyph-2-9"
       x="124.354663"
       y="65.908577"
       id="use127" />
    <use
       xlink:href="#glyph-2-10"
       x="128.80473"
       y="65.908577"
       id="use128" />
  </g>
  <g
     fill="rgb(13.729858%, 12.159729%, 12.548828%)"
     fill-opacity="1"
     id="g131">
    <use
       xlink:href="#glyph-2-14"
       x="133.190001"
       y="65.908577"
       id="use129" />
    <use
       xlink:href="#glyph-2-22"
       x="135.445032"
       y="65.908577"
       id="use130" />
    <use
       xlink:href="#glyph-2-13"
       x="140.783031"
       y="65.908577"
       id="use131" />
  </g>
  <g
     fill="rgb(13.729858%, 12.159729%, 12.548828%)"
     fill-opacity="1"
     id="g135">
    <use
       xlink:href="#glyph-2-16"
       x="144.686738"
       y="65.908577"
       id="use132" />
    <use
       xlink:href="#glyph-2-2"
       x="148.688838"
       y="65.908577"
       id="use133" />
    <use
       xlink:href="#glyph-2-1"
       x="150.915071"
       y="65.908577"
       id="use134" />
    <use
       xlink:href="#glyph-2-17"
       x="155.365137"
       y="65.908577"
       id="use135" />
  </g>
  <path
     fill-rule="evenodd"
     fill="rgb(13.729858%, 12.159729%, 12.548828%)"
     fill-opacity="1"
     d="M 92.566406 56.671875 C 92.085938 56.671875 91.710938 57.046875 91.710938 57.527344 C 91.710938 58.007812 92.085938 58.382812 92.566406 58.382812 C 93.042969 58.382812 93.421875 58.007812 93.421875 57.527344 C 93.421875 57.046875 93.042969 56.671875 92.566406 56.671875 "
     id="path135" />
  <path
     fill="none"
     stroke-width="0.427"
     stroke-linecap="round"
     stroke-linejoin="round"
     stroke="rgb(13.729858%, 12.159729%, 12.548828%)"
     stroke-opacity="1"
     stroke-miterlimit="10"
     d="M 0.00140625 0.000125 C -0.479063 0.000125 -0.854063 -0.374875 -0.854063 -0.855344 C -0.854063 -1.335813 -0.479063 -1.710813 0.00140625 -1.710813 C 0.477969 -1.710813 0.856875 -1.335813 0.856875 -0.855344 C 0.856875 -0.374875 0.477969 0.000125 0.00140625 0.000125 Z M 0.00140625 0.000125 "
     transform="matrix(1, 0, 0, -1, 92.565, 56.672)"
     id="path136" />
  <path
     fill-rule="evenodd"
     fill="rgb(13.729858%, 12.159729%, 12.548828%)"
     fill-opacity="1"
     d="M 89.179688 56.671875 C 88.699219 56.671875 88.320312 57.046875 88.320312 57.527344 C 88.320312 58.007812 88.699219 58.382812 89.179688 58.382812 C 89.621094 58.382812 90.03125 58.007812 90.03125 57.527344 C 90.03125 57.046875 89.621094 56.671875 89.179688 56.671875 "
     id="path137" />
  <path
     fill="none"
     stroke-width="0.427"
     stroke-linecap="round"
     stroke-linejoin="round"
     stroke="rgb(13.729858%, 12.159729%, 12.548828%)"
     stroke-opacity="1"
     stroke-miterlimit="10"
     d="M 0.0016875 0.000125 C -0.478781 0.000125 -0.857687 -0.374875 -0.857687 -0.855344 C -0.857687 -1.335813 -0.478781 -1.710813 0.0016875 -1.710813 C 0.443094 -1.710813 0.85325 -1.335813 0.85325 -0.855344 C 0.85325 -0.374875 0.443094 0.000125 0.0016875 0.000125 Z M -10.470969 -0.648313 L -7.45925 -0.718625 "
     transform="matrix(1, 0, 0, -1, 89.178, 56.672)"
     id="path138" />
  <path
     fill-rule="evenodd"
     fill="rgb(13.729858%, 12.159729%, 12.548828%)"
     fill-opacity="1"
     d="M 83.1875 56.671875 C 82.710938 56.671875 82.335938 57.046875 82.335938 57.527344 C 82.335938 58.007812 82.710938 58.382812 83.1875 58.382812 C 83.667969 58.382812 84.046875 58.007812 84.046875 57.527344 C 84.046875 57.046875 83.667969 56.671875 83.1875 56.671875 "
     id="path139" />
  <path
     fill="none"
     stroke-width="0.427"
     stroke-linecap="round"
     stroke-linejoin="round"
     stroke="rgb(13.729858%, 12.159729%, 12.548828%)"
     stroke-opacity="1"
     stroke-miterlimit="10"
     d="M -0.0015 0.000125 C -0.478063 0.000125 -0.853063 -0.374875 -0.853063 -0.855344 C -0.853063 -1.335813 -0.478063 -1.710813 -0.0015 -1.710813 C 0.478969 -1.710813 0.857875 -1.335813 0.857875 -0.855344 C 0.857875 -0.374875 0.478969 0.000125 -0.0015 0.000125 Z M -0.0015 0.000125 "
     transform="matrix(1, 0, 0, -1, 83.189, 56.672)"
     id="path140" />
  <path
     fill-rule="evenodd"
     fill="rgb(13.729858%, 12.159729%, 12.548828%)"
     fill-opacity="1"
     d="M 79.765625 56.671875 C 79.320312 56.671875 78.945312 57.046875 78.945312 57.527344 C 78.945312 58.007812 79.320312 58.382812 79.765625 58.382812 C 80.246094 58.382812 80.621094 58.007812 80.621094 57.527344 C 80.621094 57.046875 80.246094 56.671875 79.765625 56.671875 "
     id="path141" />
  <path
     fill="none"
     stroke-width="0.427"
     stroke-linecap="round"
     stroke-linejoin="round"
     stroke="rgb(13.729858%, 12.159729%, 12.548828%)"
     stroke-opacity="1"
     stroke-miterlimit="10"
     d="M -0.001375 0.000125 C -0.446687 0.000125 -0.821687 -0.374875 -0.821687 -0.855344 C -0.821687 -1.335813 -0.446687 -1.710813 -0.001375 -1.710813 C 0.479094 -1.710813 0.854094 -1.335813 0.854094 -0.855344 C 0.854094 -0.374875 0.479094 0.000125 -0.001375 0.000125 Z M -10.438875 -0.648313 L -7.458406 -0.718625 "
     transform="matrix(1, 0, 0, -1, 79.767, 56.672)"
     id="path142" />
  <path
     fill-rule="evenodd"
     fill="rgb(13.729858%, 12.159729%, 12.548828%)"
     fill-opacity="1"
     d="M 73.8125 56.671875 C 73.332031 56.671875 72.957031 57.046875 72.957031 57.527344 C 72.957031 58.007812 73.332031 58.382812 73.8125 58.382812 C 74.292969 58.382812 74.667969 58.007812 74.667969 57.527344 C 74.667969 57.046875 74.292969 56.671875 73.8125 56.671875 "
     id="path143" />
  <path
     fill="none"
     stroke-width="0.427"
     stroke-linecap="round"
     stroke-linejoin="round"
     stroke="rgb(13.729858%, 12.159729%, 12.548828%)"
     stroke-opacity="1"
     stroke-miterlimit="10"
     d="M -0.0005 0.000125 C -0.480969 0.000125 -0.855969 -0.374875 -0.855969 -0.855344 C -0.855969 -1.335813 -0.480969 -1.710813 -0.0005 -1.710813 C 0.479969 -1.710813 0.854969 -1.335813 0.854969 -0.855344 C 0.854969 -0.374875 0.479969 0.000125 -0.0005 0.000125 Z M -0.0005 0.000125 "
     transform="matrix(1, 0, 0, -1, 73.813, 56.672)"
     id="path144" />
  <path
     fill-rule="evenodd"
     fill="rgb(13.729858%, 12.159729%, 12.548828%)"
     fill-opacity="1"
     d="M 70.390625 56.671875 C 69.945312 56.671875 69.535156 57.046875 69.535156 57.527344 C 69.535156 58.007812 69.945312 58.382812 70.390625 58.382812 C 70.871094 58.382812 71.246094 58.007812 71.246094 57.527344 C 71.246094 57.046875 70.871094 56.671875 70.390625 56.671875 "
     id="path145" />
  <path
     fill="none"
     stroke-width="0.427"
     stroke-linecap="round"
     stroke-linejoin="round"
     stroke="rgb(13.729858%, 12.159729%, 12.548828%)"
     stroke-opacity="1"
     stroke-miterlimit="10"
     d="M -0.000375 0.000125 C -0.445688 0.000125 -0.855844 -0.374875 -0.855844 -0.855344 C -0.855844 -1.335813 -0.445688 -1.710813 -0.000375 -1.710813 C 0.480094 -1.710813 0.855094 -1.335813 0.855094 -0.855344 C 0.855094 -0.374875 0.480094 0.000125 -0.000375 0.000125 Z M -9.992563 -0.648313 L -7.012094 -0.718625 "
     transform="matrix(1, 0, 0, -1, 70.391, 56.672)"
     id="path146" />
  <path
     fill-rule="evenodd"
     fill="rgb(13.729858%, 12.159729%, 12.548828%)"
     fill-opacity="1"
     d="M 64.847656 56.671875 C 64.402344 56.671875 64.023438 57.046875 64.023438 57.527344 C 64.023438 58.007812 64.402344 58.382812 64.847656 58.382812 C 65.328125 58.382812 65.703125 58.007812 65.703125 57.527344 C 65.703125 57.046875 65.328125 56.671875 64.847656 56.671875 "
     id="path147" />
  <path
     fill="none"
     stroke-width="0.427"
     stroke-linecap="round"
     stroke-linejoin="round"
     stroke="rgb(13.729858%, 12.159729%, 12.548828%)"
     stroke-opacity="1"
     stroke-miterlimit="10"
     d="M -0.00034375 0.000125 C -0.445656 0.000125 -0.824562 -0.374875 -0.824562 -0.855344 C -0.824562 -1.335813 -0.445656 -1.710813 -0.00034375 -1.710813 C 0.480125 -1.710813 0.855125 -1.335813 0.855125 -0.855344 C 0.855125 -0.374875 0.480125 0.000125 -0.00034375 0.000125 Z M -0.00034375 0.000125 "
     transform="matrix(1, 0, 0, -1, 64.848, 56.672)"
     id="path148" />
  <path
     fill-rule="evenodd"
     fill="rgb(13.729858%, 12.159729%, 12.548828%)"
     fill-opacity="1"
     d="M 61.460938 56.671875 C 60.980469 56.671875 60.605469 57.046875 60.605469 57.527344 C 60.605469 58.007812 60.980469 58.382812 61.460938 58.382812 C 61.9375 58.382812 62.316406 58.007812 62.316406 57.527344 C 62.316406 57.046875 61.9375 56.671875 61.460938 56.671875 "
     id="path149" />
  <path
     fill="none"
     stroke-width="0.427"
     stroke-linecap="round"
     stroke-linejoin="round"
     stroke="rgb(13.729858%, 12.159729%, 12.548828%)"
     stroke-opacity="1"
     stroke-miterlimit="10"
     d="M 0.0009375 0.000125 C -0.479531 0.000125 -0.854531 -0.374875 -0.854531 -0.855344 C -0.854531 -1.335813 -0.479531 -1.710813 0.0009375 -1.710813 C 0.4775 -1.710813 0.856406 -1.335813 0.856406 -0.855344 C 0.856406 -0.374875 0.4775 0.000125 0.0009375 0.000125 Z M 0.0009375 0.000125 "
     transform="matrix(1, 0, 0, -1, 61.46, 56.672)"
     id="path150" />
  <g
     fill="rgb(13.729858%, 12.159729%, 12.548828%)"
     fill-opacity="1"
     id="g151">
    <use
       xlink:href="#glyph-0-0"
       x="124.2521"
       y="84.2508"
       id="use150" />
    <use
       xlink:href="#glyph-0-1"
       x="126.507131"
       y="84.2508"
       id="use151" />
  </g>
  <g
     fill="rgb(13.729858%, 12.159729%, 12.548828%)"
     fill-opacity="1"
     id="g153">
    <use
       xlink:href="#glyph-0-3"
       x="131.265174"
       y="84.2508"
       id="use152" />
    <use
       xlink:href="#glyph-0-4"
       x="133.520205"
       y="84.2508"
       id="use153" />
  </g>
  <g
     fill="rgb(13.729858%, 12.159729%, 12.548828%)"
     fill-opacity="1"
     id="g154">
    <use
       xlink:href="#glyph-0-5"
       x="138.352642"
       y="84.2508"
       id="use154" />
  </g>
  <g
     fill="rgb(13.729858%, 12.159729%, 12.548828%)"
     fill-opacity="1"
     id="g155">
    <use
       xlink:href="#glyph-0-0"
       x="140.959647"
       y="84.2508"
       id="use155" />
  </g>
  <g
     fill="rgb(13.729858%, 12.159729%, 12.548828%)"
     fill-opacity="1"
     id="g157">
    <use
       xlink:href="#glyph-0-0"
       x="14.612324"
       y="84.898695"
       id="use156" />
    <use
       xlink:href="#glyph-0-1"
       x="16.867354"
       y="84.898695"
       id="use157" />
  </g>
  <g
     fill="rgb(13.729858%, 12.159729%, 12.548828%)"
     fill-opacity="1"
     id="g158">
    <use
       xlink:href="#glyph-0-2"
       x="21.73019"
       y="84.898695"
       id="use158" />
  </g>
  <g
     fill="rgb(13.729858%, 12.159729%, 12.548828%)"
     fill-opacity="1"
     id="g160">
    <use
       xlink:href="#glyph-0-3"
       x="26.084263"
       y="84.898695"
       id="use159" />
    <use
       xlink:href="#glyph-0-4"
       x="28.339294"
       y="84.898695"
       id="use160" />
  </g>
  <g
     fill="rgb(13.729858%, 12.159729%, 12.548828%)"
     fill-opacity="1"
     id="g161">
    <use
       xlink:href="#glyph-0-5"
       x="33.130935"
       y="84.898695"
       id="use161" />
  </g>
  <g
     fill="rgb(13.729858%, 12.159729%, 12.548828%)"
     fill-opacity="1"
     id="g162">
    <use
       xlink:href="#glyph-0-0"
       x="35.771537"
       y="84.898695"
       id="use162" />
  </g>
  <path
     fill-rule="evenodd"
     fill="rgb(13.729858%, 12.159729%, 12.548828%)"
     fill-opacity="1"
     d="M 74.152344 33.539062 L 75.96875 33.539062 L 75.96875 40.996094 L 79.597656 40.996094 L 79.597656 33.539062 L 81.410156 33.539062 L 77.78125 26.046875 "
     id="path162" />
  <path
     fill="none"
     stroke-width="0.569"
     stroke-linecap="round"
     stroke-linejoin="miter"
     stroke="rgb(64.457703%, 63.81073%, 63.970947%)"
     stroke-opacity="1"
     stroke-miterlimit="8"
     d="M -0.00165625 -0.0000625 L 1.81475 -0.0000625 L 1.81475 -7.457094 L 5.443656 -7.457094 L 5.443656 -0.0000625 L 7.256156 -0.0000625 L 3.62725 7.492125 Z M -0.00165625 -0.0000625 "
     transform="matrix(1, 0, 0, -1, 74.154, 33.539)"
     id="path163" />
  <path
     fill-rule="evenodd"
     fill="rgb(13.729858%, 12.159729%, 12.548828%)"
     fill-opacity="1"
     d="M 98.382812 80.761719 L 99.855469 79.53125 L 105.535156 86.375 L 108.511719 83.910156 L 102.796875 77.066406 L 104.269531 75.835938 L 95.609375 71.421875 "
     id="path164" />
  <path
     fill="none"
     stroke-width="0.569"
     stroke-linecap="round"
     stroke-linejoin="miter"
     stroke="rgb(64.457703%, 63.81073%, 63.970947%)"
     stroke-opacity="1"
     stroke-miterlimit="8"
     d="M 0.0008125 0.00028125 L 1.473469 1.23075 L 7.153156 -5.613 L 10.129719 -3.148156 L 4.414875 3.695594 L 5.887531 4.926063 L -2.772625 9.340125 Z M 0.0008125 0.00028125 "
     transform="matrix(1, 0, 0, -1, 98.382, 80.762)"
     id="path165" />
  <path
     fill-rule="evenodd"
     fill="rgb(13.729858%, 12.159729%, 12.548828%)"
     fill-opacity="1"
     d="M 50.03125 77.785156 L 51.503906 78.984375 L 45.855469 85.894531 L 48.832031 88.359375 L 54.480469 81.410156 L 55.949219 82.644531 L 58.652344 73.300781 "
     id="path166" />
  <path
     fill="none"
     stroke-width="0.569"
     stroke-linecap="round"
     stroke-linejoin="miter"
     stroke="rgb(64.457703%, 63.81073%, 63.970947%)"
     stroke-opacity="1"
     stroke-miterlimit="8"
     d="M 0.00125 -0.00015625 L 1.473906 -1.199375 L -4.174531 -8.109531 L -1.197969 -10.574375 L 4.450469 -3.625156 L 5.919219 -4.859531 L 8.622344 4.484219 Z M 0.00125 -0.00015625 "
     transform="matrix(1, 0, 0, -1, 50.03, 77.785)"
     id="path167" />
  <g
     fill="rgb(13.729858%, 12.159729%, 12.548828%)"
     fill-opacity="1"
     id="g170">
    <use
       xlink:href="#glyph-3-0"
       x="70.52"
       y="145.904"
       id="use167" />
    <use
       xlink:href="#glyph-3-1"
       x="75.855333"
       y="145.904"
       id="use168" />
    <use
       xlink:href="#glyph-3-2"
       x="78.079055"
       y="145.904"
       id="use169" />
    <use
       xlink:href="#glyph-3-3"
       x="83.854333"
       y="145.904"
       id="use170" />
  </g>
  <g
     clip-path="url(#clip-1)"
     id="g177">
    <g
       fill="rgb(13.729858%, 12.159729%, 12.548828%)"
       fill-opacity="1"
       id="g176">
      <use
         xlink:href="#glyph-3-4"
         x="68.05"
         y="153.903"
         id="use171" />
      <use
         xlink:href="#glyph-3-0"
         x="70.713667"
         y="153.903"
         id="use172" />
      <use
         xlink:href="#glyph-3-5"
         x="76.049"
         y="153.903"
         id="use173" />
      <use
         xlink:href="#glyph-3-6"
         x="79.160611"
         y="153.903"
         id="use174" />
      <use
         xlink:href="#glyph-3-7"
         x="81.384333"
         y="153.903"
         id="use175" />
      <use
         xlink:href="#glyph-3-8"
         x="86.271722"
         y="153.903"
         id="use176" />
    </g>
  </g>
  <g
     clip-path="url(#clip-2)"
     id="g179">
    <g
       fill="rgb(13.729858%, 12.159729%, 12.548828%)"
       fill-opacity="1"
       id="g178">
      <use
         xlink:href="#glyph-4-0"
         x="88.935389"
         y="153.903"
         id="use177" />
    </g>
  </g>
</svg>
