<?xml version="1.0" encoding="UTF-8" standalone="no"?>
<svg
   xmlns:dc="http://purl.org/dc/elements/1.1/"
   xmlns:cc="http://creativecommons.org/ns#"
   xmlns:rdf="http://www.w3.org/1999/02/22-rdf-syntax-ns#"
   xmlns:svg="http://www.w3.org/2000/svg"
   xmlns="http://www.w3.org/2000/svg"
   xmlns:sodipodi="http://sodipodi.sourceforge.net/DTD/sodipodi-0.dtd"
   xmlns:inkscape="http://www.inkscape.org/namespaces/inkscape"
   width="217.316pt"
   height="153.558pt"
   viewBox="0 0 217.316 153.558"
   version="1.1"
   id="svg2"
   inkscape:version="0.91 r13725"
   sodipodi:docname="04_07earlyStopping.svg">
  <metadata
     id="metadata29">
    <rdf:RDF>
      <cc:Work
         rdf:about="">
        <dc:format>image/svg+xml</dc:format>
        <dc:type
           rdf:resource="http://purl.org/dc/dcmitype/StillImage" />
        <dc:title></dc:title>
      </cc:Work>
    </rdf:RDF>
  </metadata>
  <defs
     id="defs27" />
  <sodipodi:namedview
     pagecolor="#ffffff"
     bordercolor="#666666"
     borderopacity="1"
     objecttolerance="10"
     gridtolerance="10"
     guidetolerance="10"
     inkscape:pageopacity="0"
     inkscape:pageshadow="2"
     inkscape:window-width="675"
     inkscape:window-height="480"
     id="namedview25"
     showgrid="false"
     inkscape:zoom="1.2295029"
     inkscape:cx="13.008631"
     inkscape:cy="95.973749"
     inkscape:window-x="0"
     inkscape:window-y="0"
     inkscape:window-maximized="0"
     inkscape:current-layer="svg2" />
  <g
     id="surface597">
    <rect
       x="0"
       y="0"
       width="217.316"
       height="153.558"
       style="fill:rgb(99.607849%,98.823547%,92.549133%);fill-opacity:1;stroke:none;"
       id="rect5" />
    <path
       style="fill:none;stroke-width:1.223534;stroke-linecap:round;stroke-linejoin:round;stroke:rgb(0%,0%,0%);stroke-opacity:1;stroke-miterlimit:10;"
       d="M 393.165298 218.357879 C 393.165298 220.785613 393.165298 223.206186 393.165298 225.626759 M 393.165298 225.626759 C 393.165298 228.054494 393.165298 230.475067 393.165298 232.902802 M 393.165298 232.902802 C 393.165298 235.323375 393.165298 237.751109 393.165298 240.171683 M 393.165298 240.171683 C 393.165298 242.592256 393.165298 245.01999 393.165298 247.440563 M 393.165298 247.440563 C 393.165298 249.868298 393.165298 252.288871 393.165298 254.716606 M 393.165298 254.716606 C 393.165298 257.137179 393.165298 259.557752 393.165298 261.985486 M 393.165298 261.985486 C 393.165298 264.40606 393.165298 266.833794 393.165298 269.254367 M 393.165298 269.254367 C 393.165298 271.682102 393.165298 274.102675 393.165298 276.523248 M 393.165298 276.523248 C 393.165298 278.950983 393.165298 281.371556 393.165298 283.79929 M 393.165298 283.79929 C 393.165298 286.219863 393.165298 288.647598 393.165298 291.068171 M 393.165298 291.068171 C 393.165298 293.488744 393.165298 295.916479 393.165298 298.337052 M 393.165298 298.337052 C 393.165298 300.764787 393.165298 303.18536 393.165298 305.613094 M 393.165298 305.613094 C 393.165298 308.033667 393.165298 310.45424 393.165298 312.881975 M 393.165298 312.881975 C 393.165298 315.302548 393.165298 317.730283 393.165298 320.150856 M 393.165298 320.150856 C 393.165298 322.57859 393.165298 324.999164 393.165298 327.419737 M 393.165298 327.419737 C 393.165298 329.847471 393.165298 332.268044 393.165298 334.695779 M 393.165298 334.695779 C 393.165298 337.116352 393.165298 339.544087 393.165298 341.96466 M 393.165298 341.96466 C 393.165298 344.385233 393.165298 346.812967 393.165298 349.233541 M 393.165298 349.233541 C 393.165298 351.661275 393.165298 354.081848 393.165298 356.509583 M 393.165298 356.509583 C 393.165298 358.930156 393.165298 361.350729 393.165298 363.778464 M 393.165298 363.778464 C 393.165298 366.199037 393.165298 368.626771 393.165298 371.047344 M 393.165298 371.047344 C 393.165298 373.475079 393.165298 375.895652 393.165298 378.316225 M 393.165298 378.316225 C 393.165298 380.74396 393.165298 383.164533 393.165298 385.592268 M 393.165298 385.592268 C 393.165298 388.012841 393.165298 390.440575 393.165298 392.861148 M 393.165298 392.861148 C 393.165298 395.281721 393.165298 397.709456 393.165298 400.130029 M 393.165298 400.130029 C 393.165298 402.557764 393.165298 404.978337 393.165298 407.406071 M 393.165298 407.406071 C 393.165298 409.826645 393.165298 412.247218 393.165298 414.674952 M 393.165298 414.674952 C 393.165298 417.095525 393.165298 419.52326 393.165298 421.943833 M 393.165298 421.943833 C 393.165298 424.371568 393.165298 426.792141 393.165298 429.212714 M 393.165298 429.212714 C 393.165298 431.640448 393.165298 434.061022 393.165298 436.488756 M 393.165298 436.488756 C 393.165298 438.909329 393.165298 441.337064 393.165298 443.757637 "
       transform="matrix(0.545454,0,0,0.545454,-167.028,-106.8621)"
       id="path7" />
    <path
       style="fill:none;stroke-width:1.223534;stroke-linecap:round;stroke-linejoin:round;stroke:rgb(0%,0%,0%);stroke-opacity:1;stroke-miterlimit:10;"
       d="M 361.003186 426.025865 C 364.26165 426.025865 367.527275 426.025865 370.785739 426.025865 M 370.785739 426.025865 C 374.051365 426.025865 377.309828 426.025865 380.575454 426.025865 M 380.575454 426.025865 C 383.833917 426.025865 387.099543 426.025865 390.358006 426.025865 M 390.358006 426.025865 C 393.61647 426.025865 396.882096 426.025865 400.140559 426.025865 M 400.140559 426.025865 C 403.406185 426.025865 406.664648 426.025865 409.930274 426.025865 M 409.930274 426.025865 C 413.188738 426.025865 416.454363 426.025865 419.712827 426.025865 M 419.712827 426.025865 C 422.97129 426.025865 426.236916 426.025865 429.49538 426.025865 M 429.49538 426.025865 C 432.761005 426.025865 436.019469 426.025865 439.285094 426.025865 M 439.285094 426.025865 C 442.543558 426.025865 445.809183 426.025865 449.067647 426.025865 M 449.067647 426.025865 C 452.326111 426.025865 455.591736 426.025865 458.8502 426.025865 M 458.8502 426.025865 C 462.115825 426.025865 465.374289 426.025865 468.639914 426.025865 M 468.639914 426.025865 C 471.898378 426.025865 475.164003 426.025865 478.422467 426.025865 M 478.422467 426.025865 C 481.688092 426.025865 484.946556 426.025865 488.20502 426.025865 M 488.20502 426.025865 C 491.470645 426.025865 494.729109 426.025865 497.994734 426.025865 M 497.994734 426.025865 C 501.253198 426.025865 504.518823 426.025865 507.777287 426.025865 M 507.777287 426.025865 C 511.042912 426.025865 514.301376 426.025865 517.55984 426.025865 M 517.55984 426.025865 C 520.825465 426.025865 524.083929 426.025865 527.349554 426.025865 M 527.349554 426.025865 C 530.608018 426.025865 533.873643 426.025865 537.132107 426.025865 M 537.132107 426.025865 C 540.397733 426.025865 543.656196 426.025865 546.91466 426.025865 M 546.91466 426.025865 C 550.180285 426.025865 553.438749 426.025865 556.704375 426.025865 M 556.704375 426.025865 C 559.962838 426.025865 563.228464 426.025865 566.486927 426.025865 M 566.486927 426.025865 C 569.752553 426.025865 573.011017 426.025865 576.276642 426.025865 M 576.276642 426.025865 C 579.535106 426.025865 582.793569 426.025865 586.059195 426.025865 M 586.059195 426.025865 C 589.317658 426.025865 592.583284 426.025865 595.841748 426.025865 M 595.841748 426.025865 C 599.107373 426.025865 602.365837 426.025865 605.631462 426.025865 M 605.631462 426.025865 C 608.889926 426.025865 612.14839 426.025865 615.414015 426.025865 M 615.414015 426.025865 C 618.672479 426.025865 621.938104 426.025865 625.196568 426.025865 M 625.196568 426.025865 C 628.462193 426.025865 631.720657 426.025865 634.986282 426.025865 M 634.986282 426.025865 C 638.244746 426.025865 641.50321 426.025865 644.768835 426.025865 M 644.768835 426.025865 C 648.027299 426.025865 651.292924 426.025865 654.551388 426.025865 M 654.551388 426.025865 C 657.817013 426.025865 661.075477 426.025865 664.341102 426.025865 "
       transform="matrix(0.545454,0,0,0.545454,-167.028,-106.8621)"
       id="path9" />
    <path
       style="fill:none;stroke-width:1.223534;stroke-linecap:round;stroke-linejoin:round;stroke:rgb(0%,0%,0%);stroke-opacity:1;stroke-miterlimit:10;"
       d="M 327.279876 268.695773 C 327.222585 268.702935 327.165293 268.710096 327.10084 268.717258 M 327.10084 268.717258 C 326.986256 268.731581 327.122324 268.831841 327.509043 269.018039 M 327.509043 269.018039 C 327.895762 269.204237 328.354095 269.325982 328.86972 269.376112 M 328.86972 269.376112 C 329.392507 269.426242 330.008392 269.440565 330.724538 269.426242 M 330.724538 269.426242 C 331.440684 269.411919 332.056569 269.361789 332.565033 269.283013 M 332.565033 269.283013 C 333.080658 269.197076 334.183523 268.982232 335.873627 268.624159 M 335.873627 268.624159 C 337.570893 268.266086 339.22519 267.922336 340.850841 267.578586 M 340.850841 267.578586 C 342.476492 267.241997 343.701102 267.012831 344.524669 266.891086 M 344.524669 266.891086 C 345.355399 266.776502 345.856701 266.669081 346.035737 266.583143 M 346.035737 266.583143 C 346.121675 266.540174 346.214774 266.490044 346.300711 266.447075 "
       transform="matrix(0.545454,0,0,0.545454,-167.028,-106.8621)"
       id="path11" />
    <path
       style="fill:none;stroke-width:1.223534;stroke-linecap:round;stroke-linejoin:round;stroke:rgb(0%,0%,0%);stroke-opacity:1;stroke-miterlimit:10;"
       d="M 344.846935 266.948377 C 344.531831 267.048638 344.216727 267.148898 343.901622 267.249159 M 343.901622 267.249159 C 343.271414 267.44968 342.805919 267.628716 342.505138 267.779107 M 342.505138 267.779107 C 342.211518 267.936659 341.932221 268.130018 341.667247 268.373508 M 341.667247 268.373508 C 341.402273 268.616997 341.151622 268.903456 340.922455 269.21856 M 340.922455 269.21856 C 340.693289 269.533664 340.428315 269.991997 340.120372 270.600722 M 340.120372 270.600722 C 339.819591 271.202284 339.561778 271.8683 339.361257 272.598769 M 339.361257 272.598769 C 339.160737 273.329237 338.996023 274.124159 338.874278 274.990696 M 338.874278 274.990696 C 338.752533 275.864394 338.645112 277.089003 338.559174 278.678847 M 338.559174 278.678847 C 338.480398 280.268691 338.387299 281.550592 338.2942 282.538874 M 338.2942 282.538874 C 338.19394 283.519993 338.086518 284.372207 337.964773 285.081191 M 337.964773 285.081191 C 337.85019 285.790176 337.692638 286.477676 337.50644 287.150853 M 337.50644 287.150853 C 337.320242 287.82403 337.112559 288.439916 336.876231 289.012832 M 336.876231 289.012832 C 336.639903 289.578588 336.382091 290.122859 336.102794 290.638484 M 336.102794 290.638484 C 335.830658 291.154109 335.458262 291.727025 334.992767 292.371557 M 334.992767 292.371557 C 334.527273 293.016088 334.068939 293.574682 333.610606 294.047338 M 333.610606 294.047338 C 333.145111 294.527156 332.758392 294.870906 332.428965 295.092911 M 332.428965 295.092911 C 332.099538 295.314916 331.669851 295.493953 331.132741 295.644343 M 331.132741 295.644343 C 330.58847 295.787573 330.122975 295.859187 329.721934 295.866349 M 329.721934 295.866349 C 329.328053 295.87351 328.91985 295.801895 328.504486 295.651505 M 328.504486 295.651505 C 328.089121 295.501114 327.666595 295.257625 327.244069 294.928197 M 327.244069 294.928197 C 326.821543 294.591609 326.427663 294.212052 326.062428 293.782364 M 326.062428 293.782364 C 325.697194 293.352677 325.353444 292.894343 325.03834 292.407364 M 325.03834 292.407364 C 324.730397 291.920385 324.458261 291.411921 324.229095 290.889135 M 324.229095 290.889135 C 323.999928 290.359187 323.828053 289.843562 323.720631 289.34226 M 323.720631 289.34226 C 323.606048 288.840957 323.498626 288.182103 323.405527 287.365697 M 323.405527 287.365697 C 323.305267 286.549291 323.240813 285.919082 323.205006 285.482233 M 323.205006 285.482233 C 323.17636 285.045384 323.12623 284.615697 323.054615 284.193171 M 323.054615 284.193171 C 322.983001 283.770644 323.183522 283.627415 323.656178 283.763483 M 323.656178 283.763483 C 323.892506 283.835098 324.128834 283.899551 324.365162 283.971165 "
       transform="matrix(0.545454,0,0,0.545454,-167.028,-106.8621)"
       id="path13" />
    <path
       style="fill:none;stroke-width:1.223534;stroke-linecap:round;stroke-linejoin:round;stroke:rgb(0%,0%,0%);stroke-opacity:1;stroke-miterlimit:10;"
       d="M 658.04618 437.720527 C 658.003211 438.157376 657.967404 438.594225 657.924435 439.031074 M 657.924435 439.031074 C 657.838498 439.904772 657.738237 440.785632 657.609331 441.666491 M 657.609331 441.666491 C 657.487586 442.54735 657.380164 443.406725 657.287065 444.237455 M 657.287065 444.237455 C 657.193966 445.068184 657.11519 446.120918 657.036414 447.381335 M 657.036414 447.381335 C 656.957638 448.641752 656.914669 449.873523 656.900346 451.076648 M 656.900346 451.076648 C 656.886023 452.272612 656.893185 453.017403 656.928992 453.2967 M 656.928992 453.2967 C 656.9648 453.575997 657.050737 453.798002 657.179643 453.969877 M 657.179643 453.969877 C 657.315711 454.141752 657.516232 454.27782 657.795529 454.378081 M 657.795529 454.378081 C 658.074826 454.47118 658.497352 454.52131 659.063107 454.514148 M 659.063107 454.514148 C 659.636024 454.506987 660.144487 454.370919 660.581336 454.105945 M 660.581336 454.105945 C 661.025347 453.840971 661.462196 453.54019 661.884722 453.210763 M 661.884722 453.210763 C 662.307248 452.874174 662.815711 452.423002 663.402951 451.842924 M 663.402951 451.842924 C 663.997352 451.270007 664.462847 450.747221 664.813759 450.288888 M 664.813759 450.288888 C 665.157509 449.823393 665.465451 449.329252 665.737587 448.799304 M 665.737587 448.799304 C 666.009722 448.269356 666.210243 447.789538 666.339149 447.352689 M 666.339149 447.352689 C 666.410764 447.130684 666.475217 446.908679 666.53967 446.693835 "
       transform="matrix(0.545454,0,0,0.545454,-167.028,-106.8621)"
       id="path15" />
    <path
       style="fill:none;stroke-width:1.223534;stroke-linecap:round;stroke-linejoin:round;stroke:rgb(0%,0%,0%);stroke-opacity:1;stroke-miterlimit:10;"
       d="M 655.29618 441.967272 C 655.195919 441.888496 655.095659 441.816882 654.995398 441.738106 M 654.995398 441.738106 C 654.794877 441.587715 654.923784 441.494616 655.389279 441.451647 M 655.389279 441.451647 C 655.854773 441.408678 656.370398 441.394356 656.943315 441.401517 M 656.943315 441.401517 C 657.516232 441.408678 658.375607 441.523262 659.535763 441.752428 M 659.535763 441.752428 C 660.69592 441.974434 661.38342 442.124824 661.612586 442.196439 M 661.612586 442.196439 C 661.72717 442.232246 661.841753 442.268054 661.956336 442.303861 "
       transform="matrix(0.545454,0,0,0.545454,-167.028,-106.8621)"
       id="path17" />
    <path
       style="fill:none;stroke-width:1.223534;stroke-linecap:round;stroke-linejoin:round;stroke:rgb(0%,0%,0%);stroke-opacity:1;stroke-miterlimit:10;"
       d="M 413.081316 218.357879 C 413.045508 218.637176 413.00254 218.916472 412.959571 219.195769 M 412.959571 219.195769 C 412.873633 219.747202 412.830665 222.869598 412.830665 228.562958 M 412.830665 228.562958 C 412.830665 234.256317 412.852149 237.256969 412.887956 237.564911 M 412.887956 237.564911 C 412.923764 237.872854 413.045508 238.331188 413.253191 238.925589 M 413.253191 238.925589 C 413.460873 239.527151 413.747331 240.293427 414.126889 241.23874 M 414.126889 241.23874 C 414.499285 242.184052 414.807227 243.029105 415.050717 243.773896 M 415.050717 243.773896 C 415.294206 244.511527 415.573503 245.499808 415.881446 246.73874 M 415.881446 246.73874 C 416.19655 247.970511 416.504493 249.273897 416.805274 250.641735 M 416.805274 250.641735 C 417.113217 252.002413 417.406837 253.370251 417.686134 254.73809 M 417.686134 254.73809 C 417.965431 256.105929 418.201759 257.237439 418.40228 258.12546 M 418.40228 258.12546 C 418.602801 259.013481 418.831967 259.901502 419.08978 260.796684 M 419.08978 260.796684 C 419.347592 261.691867 419.619728 262.529757 419.913347 263.303195 M 419.913347 263.303195 C 420.199806 264.083794 420.457618 264.728325 420.679624 265.229627 M 420.679624 265.229627 C 420.901629 265.738091 421.288348 266.554497 421.846941 267.678846 M 421.846941 267.678846 C 422.398374 268.796034 422.828061 269.712701 423.11452 270.407362 M 423.11452 270.407362 C 423.408139 271.109185 423.716082 271.961399 424.031186 272.964003 M 424.031186 272.964003 C 424.353452 273.959446 424.682879 274.933404 425.019468 275.864394 M 425.019468 275.864394 C 425.363218 276.802545 425.757098 277.797988 426.201108 278.850722 M 426.201108 278.850722 C 426.637957 279.910618 427.010353 280.820123 427.303973 281.579238 M 427.303973 281.579238 C 427.590431 282.345514 427.87689 283.176243 428.156187 284.064264 M 428.156187 284.064264 C 428.428322 284.959447 428.671812 285.783014 428.879494 286.520645 M 428.879494 286.520645 C 429.087176 287.265436 429.344989 288.103327 429.652932 289.034317 M 429.652932 289.034317 C 429.960874 289.965306 430.23301 290.745905 430.469338 291.376114 M 430.469338 291.376114 C 430.698505 292.006322 431.085223 292.922989 431.60801 294.118953 M 431.60801 294.118953 C 432.137958 295.322078 432.761005 296.811661 433.484312 298.594864 M 433.484312 298.594864 C 434.200458 300.378068 434.708922 301.588354 435.009703 302.218563 M 435.009703 302.218563 C 435.310484 302.848771 435.654234 303.536271 436.040953 304.281063 M 436.040953 304.281063 C 436.434833 305.025855 437.000589 306.064266 437.752542 307.403459 M 437.752542 307.403459 C 438.497333 308.742652 439.055927 309.76674 439.428323 310.475725 M 439.428323 310.475725 C 439.793557 311.184709 440.223245 312.087053 440.710224 313.182756 M 440.710224 313.182756 C 441.197203 314.27846 441.605407 315.144996 441.949157 315.782366 M 441.949157 315.782366 C 442.285745 316.419736 442.643818 317.035621 443.023375 317.622861 M 443.023375 317.622861 C 443.410094 318.217262 443.83262 318.79734 444.305277 319.363095 M 444.305277 319.363095 C 444.777933 319.936012 445.336527 320.537575 445.981058 321.182106 M 445.981058 321.182106 C 446.625589 321.833799 447.313089 322.47833 448.029235 323.130023 M 448.029235 323.130023 C 448.752543 323.781716 449.389912 324.39044 449.948506 324.963356 M 449.948506 324.963356 C 450.499939 325.529112 451.359314 326.467263 452.51947 327.763487 M 452.51947 327.763487 C 453.679626 329.059711 454.553324 330.055154 455.140564 330.749815 M 455.140564 330.749815 C 455.734965 331.444477 456.25059 331.995909 456.694601 332.411274 M 456.694601 332.411274 C 457.138611 332.826638 457.690043 333.284972 458.348898 333.779112 M 458.348898 333.779112 C 459.007752 334.266091 459.924419 334.889138 461.113221 335.626769 M 461.113221 335.626769 C 462.302023 336.37156 463.118429 336.901508 463.56244 337.209451 M 463.56244 337.209451 C 464.00645 337.524555 464.565044 337.997211 465.238221 338.620258 M 465.238221 338.620258 C 465.911398 339.243305 466.627544 339.973774 467.386659 340.818826 M 467.386659 340.818826 C 468.138612 341.656717 468.740174 342.25828 469.184185 342.623514 M 469.184185 342.623514 C 469.621034 342.988748 470.115175 343.346821 470.645123 343.697733 M 470.645123 343.697733 C 471.182232 344.041483 472.0058 344.521301 473.115826 345.122863 M 473.115826 345.122863 C 474.225852 345.724426 475.536399 346.426249 477.047467 347.221171 M 477.047467 347.221171 C 478.565696 348.023254 479.697207 348.631978 480.441998 349.047343 M 480.441998 349.047343 C 481.193952 349.462707 481.953066 349.892395 482.719342 350.336405 M 482.719342 350.336405 C 483.49278 350.780416 484.352155 351.231588 485.297468 351.689921 M 485.297468 351.689921 C 486.24278 352.148254 487.102155 352.592265 487.875593 353.014791 M 487.875593 353.014791 C 488.656192 353.430155 489.608666 353.995911 490.725853 354.697734 M 490.725853 354.697734 C 491.850202 355.399557 493.01752 356.144348 494.213484 356.924947 M 494.213484 356.924947 C 495.416609 357.705546 496.233015 358.221172 496.669864 358.471823 M 496.669864 358.471823 C 497.106713 358.722474 498.009057 359.180807 499.369734 359.839661 M 499.369734 359.839661 C 500.730412 360.498515 501.883406 361.085755 502.843042 361.608542 M 502.843042 361.608542 C 503.802677 362.131328 504.633407 362.589661 505.342391 362.997865 M 505.342391 362.997865 C 506.051376 363.398906 506.774683 363.792787 507.519475 364.179505 M 507.519475 364.179505 C 508.257105 364.566224 508.973251 364.952943 509.667912 365.346823 M 509.667912 365.346823 C 510.362574 365.733542 511.12885 366.120261 511.966741 366.499818 M 511.966741 366.499818 C 512.811793 366.879375 513.599553 367.223125 514.344345 367.516745 M 514.344345 367.516745 C 515.089137 367.817526 515.755152 368.068178 516.349553 368.27586 M 516.349553 368.27586 C 516.951116 368.483542 517.767522 368.727032 518.805934 369.006329 M 518.805934 369.006329 C 519.844345 369.285626 520.689398 369.5506 521.326767 369.801251 M 521.326767 369.801251 C 521.964137 370.04474 522.608669 370.316876 523.260361 370.610495 M 523.260361 370.610495 C 523.912054 370.904115 524.556585 371.154766 525.186794 371.362449 M 525.186794 371.362449 C 525.817002 371.570131 526.54031 371.770652 527.349554 371.964011 M 527.349554 371.964011 C 528.165961 372.157371 529.562445 372.40086 531.546169 372.680157 M 531.546169 372.680157 C 533.529893 372.966615 534.869086 373.174298 535.563748 373.296043 M 535.563748 373.296043 C 536.258409 373.417787 536.917263 373.518048 537.533149 373.596824 M 537.533149 373.596824 C 538.149034 373.6756 538.986925 373.754376 540.053983 373.840313 M 540.053983 373.840313 C 541.113878 373.919089 542.159451 373.990704 543.18354 374.047996 M 543.18354 374.047996 C 544.207629 374.098126 545.088488 374.162579 545.818957 374.234194 M 545.818957 374.234194 C 546.549426 374.305808 547.487577 374.449037 548.647733 374.671043 M 548.647733 374.671043 C 549.80789 374.893048 550.953723 375.079246 552.092395 375.222475 M 552.092395 375.222475 C 553.231067 375.365704 554.269478 375.516095 555.20763 375.666485 M 555.20763 375.666485 C 556.138619 375.824038 557.07677 376.003074 558.00776 376.217918 M 558.00776 376.217918 C 558.93875 376.432762 559.755156 376.66909 560.46414 376.926902 M 560.46414 376.926902 C 561.165963 377.184715 561.960885 377.521303 562.834583 377.936668 M 562.834583 377.936668 C 563.708281 378.352033 564.531849 378.695783 565.298125 378.960757 M 565.298125 378.960757 C 566.071563 379.225731 567.08849 379.526512 568.348907 379.877423 M 568.348907 379.877423 C 569.609324 380.221173 570.755157 380.521955 571.772084 380.779767 M 571.772084 380.779767 C 572.796173 381.03758 573.798777 381.338361 574.779897 381.689272 M 574.779897 381.689272 C 575.768178 382.033022 576.548777 382.283674 577.121694 382.426903 M 577.121694 382.426903 C 577.701772 382.570132 578.346303 382.7062 579.062449 382.827944 M 579.062449 382.827944 C 579.771434 382.956851 580.859975 383.186017 582.30659 383.515444 M 582.30659 383.515444 C 583.753205 383.852033 585.027945 384.124168 586.123648 384.346174 M 586.123648 384.346174 C 587.226512 384.57534 588.107372 384.7687 588.773388 384.940575 M 588.773388 384.940575 C 589.439403 385.119611 590.040966 385.284325 590.570914 385.4562 M 590.570914 385.4562 C 591.108023 385.620913 591.888622 385.842919 592.934195 386.122216 M 592.934195 386.122216 C 593.972607 386.394351 595.01818 386.666486 596.063753 386.93146 M 596.063753 386.93146 C 597.109326 387.196434 597.990185 387.396955 598.69917 387.533023 M 598.69917 387.533023 C 599.408154 387.669091 600.310498 387.833804 601.406201 388.012841 M 601.406201 388.012841 C 602.501904 388.191877 603.568962 388.378075 604.600212 388.564273 M 604.600212 388.564273 C 605.631462 388.750471 606.712842 388.929507 607.844353 389.094221 M 607.844353 389.094221 C 608.975863 389.258935 610.021436 389.445132 610.981072 389.638492 M 610.981072 389.638492 C 611.940707 389.831851 612.864535 390.032372 613.759718 390.240054 M 613.759718 390.240054 C 614.6549 390.447737 615.521437 390.626773 616.352166 390.784325 M 616.352166 390.784325 C 617.182895 390.934716 618.178338 391.070784 619.338494 391.185367 M 619.338494 391.185367 C 620.498651 391.307112 621.665968 391.407372 622.833286 391.500471 M 622.833286 391.500471 C 624.007766 391.586409 624.924432 391.686669 625.583287 391.794091 M 625.583287 391.794091 C 626.242141 391.894351 626.850865 392.008935 627.41662 392.123518 M 627.41662 392.123518 C 627.975214 392.245263 629.364537 392.62482 631.591751 393.269352 M 631.591751 393.269352 C 633.811803 393.913883 635.444615 394.365055 636.490188 394.622867 M 636.490188 394.622867 C 637.535761 394.88068 638.402298 395.059716 639.089798 395.159977 M 639.089798 395.159977 C 639.777298 395.267399 640.364538 395.339013 640.851517 395.37482 M 640.851517 395.37482 C 641.338496 395.410628 642.133418 395.424951 643.243444 395.424951 M 643.243444 395.424951 C 644.35347 395.424951 645.399043 395.389143 646.373002 395.310367 M 646.373002 395.310367 C 647.339799 395.231591 648.557247 395.1743 650.011023 395.145654 M 650.011023 395.145654 C 651.471961 395.109846 652.59631 395.066878 653.398393 395.009586 M 653.398393 395.009586 C 654.193315 394.952294 655.224565 394.809065 656.484982 394.579899 M 656.484982 394.579899 C 657.745399 394.350732 658.712196 394.207503 659.37105 394.14305 M 659.37105 394.14305 C 660.029904 394.078596 661.634071 394.042789 664.190712 394.028466 M 664.190712 394.028466 C 666.740191 394.014143 668.315712 394.021305 668.917274 394.049951 M 668.917274 394.049951 C 669.511676 394.078596 670.292275 394.092919 671.25191 394.092919 M 671.25191 394.092919 C 672.218707 394.092919 672.934853 394.128727 673.400348 394.186018 M 673.400348 394.186018 C 673.865843 394.250471 674.216754 394.336409 674.460244 394.450992 M 674.460244 394.450992 C 674.703733 394.558414 674.861285 394.658675 674.925739 394.744612 M 674.925739 394.744612 C 674.997353 394.837711 674.889931 394.873518 674.603473 394.866357 M 674.603473 394.866357 C 674.317015 394.866357 673.894488 394.708805 673.335895 394.415185 M 673.335895 394.415185 C 672.770139 394.114404 672.290322 393.885237 671.882118 393.727685 M 671.882118 393.727685 C 671.466754 393.570133 671.037066 393.455549 670.578733 393.383935 M 670.578733 393.383935 C 670.1204 393.31232 669.783811 393.233544 669.568967 393.133284 M 669.568967 393.133284 C 669.354123 393.040185 669.196571 392.932763 669.103472 392.81818 M 669.103472 392.81818 C 669.053342 392.753726 669.003212 392.696435 668.953082 392.639143 "
       transform="matrix(0.545454,0,0,0.545454,-167.028,-106.8621)"
       id="path19" />
    <path
       style="fill:none;stroke-width:1.223534;stroke-linecap:round;stroke-linejoin:round;stroke:rgb(82.745361%,0%,0%);stroke-opacity:1;stroke-miterlimit:10;"
       d="M 424.654233 217.613087 C 424.604103 217.620248 424.546811 217.62741 424.48952 217.634571 M 424.48952 217.634571 C 424.382098 217.648894 424.331968 217.856576 424.339129 218.26478 M 424.339129 218.26478 C 424.339129 218.680144 424.453712 219.253061 424.682879 219.997853 M 424.682879 219.997853 C 424.904884 220.742644 425.291603 221.845509 425.857358 223.306447 M 425.857358 223.306447 C 426.415952 224.767384 426.988869 226.335744 427.568947 228.011525 M 427.568947 228.011525 C 428.156187 229.680145 428.643166 231.112437 429.037046 232.308401 M 429.037046 232.308401 C 429.430926 233.504364 429.810484 234.56426 430.175718 235.480927 M 430.175718 235.480927 C 430.533791 236.404755 430.913348 237.31426 431.300067 238.209443 M 431.300067 238.209443 C 431.686786 239.104625 432.24538 240.365042 432.968687 241.990693 M 432.968687 241.990693 C 433.699156 243.609183 434.229104 244.805146 434.55137 245.578584 M 434.55137 245.578584 C 434.880797 246.352022 435.210224 247.08249 435.553974 247.762829 M 435.553974 247.762829 C 435.897724 248.450329 436.241474 249.109183 436.592385 249.746553 M 436.592385 249.746553 C 436.950458 250.376761 437.544859 251.343558 438.38275 252.646944 M 438.38275 252.646944 C 439.227802 253.950329 439.900979 255.08184 440.402281 256.055798 M 440.402281 256.055798 C 440.910745 257.029757 441.447854 258.168429 442.006448 259.478976 M 442.006448 259.478976 C 442.572204 260.789523 443.030537 261.75632 443.381448 262.379367 M 443.381448 262.379367 C 443.73236 262.995252 444.17637 263.689914 444.699157 264.463351 M 444.699157 264.463351 C 445.229105 265.236789 445.880798 266.146294 446.647074 267.199029 M 446.647074 267.199029 C 447.420511 268.251763 447.971944 269.046685 448.301371 269.590956 M 448.301371 269.590956 C 448.637959 270.135227 449.210876 271.195123 450.041605 272.777805 M 450.041605 272.777805 C 450.872334 274.360487 451.531189 275.563613 452.032491 276.38718 M 452.032491 276.38718 C 452.526631 277.21791 453.149678 278.191868 453.901632 279.309056 M 453.901632 279.309056 C 454.653585 280.433405 455.305278 281.450332 455.871033 282.352676 M 455.871033 282.352676 C 456.429627 283.255019 456.966736 284.064264 457.4752 284.787572 M 457.4752 284.787572 C 457.983663 285.510879 458.570903 286.377416 459.24408 287.387181 M 459.24408 287.387181 C 459.917257 288.404108 460.733663 289.557103 461.70046 290.853327 M 461.70046 290.853327 C 462.667257 292.149551 463.426372 293.166479 463.977804 293.896947 M 463.977804 293.896947 C 464.529237 294.620255 465.016216 295.28627 465.424419 295.880672 M 465.424419 295.880672 C 465.832622 296.475073 466.233664 297.090958 466.613221 297.721166 M 466.613221 297.721166 C 466.992778 298.358536 467.422466 299.117651 467.902284 300.012833 M 467.902284 300.012833 C 468.382102 300.908016 468.811789 301.659969 469.191346 302.261531 M 469.191346 302.261531 C 469.578065 302.863094 470.072206 303.52911 470.68093 304.259578 M 470.68093 304.259578 C 471.296815 304.990047 471.95567 305.684709 472.671815 306.343563 M 472.671815 306.343563 C 473.387961 307.002417 474.11843 307.661271 474.877545 308.320126 M 474.877545 308.320126 C 475.629498 308.97898 476.274029 309.56622 476.811139 310.096168 M 476.811139 310.096168 C 477.348248 310.626115 477.956972 311.292131 478.651634 312.108537 M 478.651634 312.108537 C 479.346295 312.917782 480.076764 313.827288 480.850202 314.82273 M 480.850202 314.82273 C 481.616478 315.825335 482.246686 316.591611 482.726504 317.121559 M 482.726504 317.121559 C 483.206322 317.658668 483.736269 318.174293 484.330671 318.682757 M 484.330671 318.682757 C 484.91791 319.19122 485.55528 319.6782 486.24278 320.143694 M 486.24278 320.143694 C 486.93028 320.609189 487.968692 321.268043 489.365176 322.127419 M 489.365176 322.127419 C 490.761661 322.986794 491.871687 323.702939 492.702416 324.261533 M 492.702416 324.261533 C 493.533145 324.827289 494.499942 325.564919 495.588484 326.474424 M 495.588484 326.474424 C 496.677026 327.383929 497.557885 328.064268 498.231062 328.522601 M 498.231062 328.522601 C 498.904239 328.980935 499.613224 329.424945 500.365177 329.861794 M 500.365177 329.861794 C 501.11713 330.298643 502.205672 330.878721 503.637964 331.60919 M 503.637964 331.60919 C 505.063094 332.339659 506.617131 333.098774 508.285751 333.900857 M 508.285751 333.900857 C 509.954371 334.70294 511.400985 335.347472 512.625595 335.834451 M 512.625595 335.834451 C 513.843043 336.328592 515.25385 336.880024 516.843694 337.488748 M 516.843694 337.488748 C 518.433538 338.104633 519.62234 338.534321 520.402939 338.792133 M 520.402939 338.792133 C 521.183538 339.049946 521.856715 339.228982 522.408148 339.336404 M 522.408148 339.336404 C 522.966741 339.436665 524.055283 339.536925 525.680934 339.637186 M 525.680934 339.637186 C 527.299424 339.730285 528.509711 339.830545 529.311794 339.937967 M 529.311794 339.937967 C 530.106716 340.045389 530.994737 340.131326 531.961534 340.210102 M 531.961534 340.210102 C 532.935492 340.281717 534.589789 340.324686 536.931586 340.331847 M 536.931586 340.331847 C 539.266222 340.339009 541.586535 340.331847 543.885363 340.317524 M 543.885363 340.317524 C 546.17703 340.310363 548.053332 340.360493 549.51427 340.475076 M 549.51427 340.475076 C 550.968046 340.596821 552.106718 340.668436 552.915963 340.68992 M 552.915963 340.68992 C 553.725208 340.711404 555.665963 340.718566 558.731067 340.718566 M 558.731067 340.718566 C 561.803333 340.718566 563.722604 340.68992 564.48888 340.618305 M 564.48888 340.618305 C 565.255156 340.546691 566.436797 340.389139 568.026641 340.138488 M 568.026641 340.138488 C 569.616485 339.887837 570.991485 339.644347 572.158803 339.408019 M 572.158803 339.408019 C 573.326121 339.171691 574.421824 338.913878 575.460235 338.634581 M 575.460235 338.634581 C 576.491486 338.355284 577.49409 338.097472 578.47521 337.861144 M 578.47521 337.861144 C 579.45633 337.631977 580.795522 337.331196 582.492788 336.9588 M 582.492788 336.9588 C 584.197215 336.593566 586.016226 336.206847 587.956981 335.784321 M 587.956981 335.784321 C 589.897737 335.368956 592.132112 334.939269 594.660107 334.509581 M 594.660107 334.509581 C 597.188102 334.072732 598.935498 333.757628 599.909456 333.557107 M 599.909456 333.557107 C 600.876253 333.363748 602.057894 333.077289 603.447217 332.704893 M 603.447217 332.704893 C 604.83654 332.325336 606.104118 331.988747 607.24279 331.695128 M 607.24279 331.695128 C 608.388624 331.394346 609.706332 331.014789 611.195916 330.549294 M 611.195916 330.549294 C 612.69266 330.083799 613.759718 329.711404 614.404249 329.424945 M 614.404249 329.424945 C 615.04878 329.145648 615.908155 328.680153 616.968051 328.035622 M 616.968051 328.035622 C 618.027947 327.391091 618.830031 326.889789 619.381463 326.546039 M 619.381463 326.546039 C 619.925734 326.202289 621.028599 325.564919 622.668573 324.648252 M 622.668573 324.648252 C 624.315708 323.731585 626.077427 322.77195 627.946568 321.776507 M 627.946568 321.776507 C 629.82287 320.773903 631.004511 320.158017 631.498652 319.921689 M 631.498652 319.921689 C 631.985631 319.685361 632.959589 319.277158 634.399042 318.69708 M 634.399042 318.69708 C 635.845657 318.10984 637.106074 317.587054 638.187454 317.121559 M 638.187454 317.121559 C 639.268835 316.656064 640.235631 316.276507 641.073522 315.975725 M 641.073522 315.975725 C 641.911413 315.682105 642.641882 315.40997 643.257767 315.16648 M 643.257767 315.16648 C 643.873653 314.922991 644.539668 314.636532 645.255814 314.307105 M 645.255814 314.307105 C 645.97196 313.970517 646.874304 313.44773 647.970007 312.731584 M 647.970007 312.731584 C 649.06571 312.015439 649.910762 311.521298 650.498002 311.249162 M 650.498002 311.249162 C 651.092403 310.977027 651.557898 310.74786 651.894487 310.547339 M 651.894487 310.547339 C 652.238237 310.346819 652.546179 310.124813 652.832638 309.881324 M 652.832638 309.881324 C 653.111935 309.637834 653.398393 309.365699 653.67769 309.057756 M 653.67769 309.057756 C 653.949825 308.749813 654.350867 308.563615 654.859331 308.492001 M 654.859331 308.492001 C 655.374956 308.420386 655.79032 308.312964 656.112586 308.148251 M 656.112586 308.148251 C 656.42769 307.990699 656.785763 307.768693 657.172482 307.489396 M 657.172482 307.489396 C 657.559201 307.202938 657.953081 306.852027 658.346961 306.436662 M 658.346961 306.436662 C 658.740841 306.021297 659.0273 305.69187 659.192013 305.455542 M 659.192013 305.455542 C 659.356727 305.219214 659.449826 305.0545 659.464149 304.947079 M 659.464149 304.947079 C 659.478472 304.839657 659.120399 304.789526 658.404253 304.789526 M 658.404253 304.789526 C 657.680945 304.789526 657.201128 304.818172 656.957638 304.875464 M 656.957638 304.875464 C 656.706987 304.932756 656.356076 305.147599 655.890581 305.519995 M 655.890581 305.519995 C 655.661414 305.706193 655.425086 305.892391 655.195919 306.078589 "
       transform="matrix(0.545454,0,0,0.545454,-167.028,-106.8621)"
       id="path21" />
    <path
       style="fill:none;stroke-width:1.223534;stroke-linecap:round;stroke-linejoin:round;stroke:rgb(0%,58.824158%,0%);stroke-opacity:1;stroke-miterlimit:10;"
       d="M 542.309842 339.135883 C 542.25255 339.121561 542.20242 339.114399 542.145129 339.107238 M 542.145129 339.107238 C 542.030545 339.085753 541.966092 338.928201 541.958931 338.62742 M 541.958931 338.62742 C 541.944608 338.3338 541.937446 338.462706 541.937446 339.014139 M 541.937446 339.014139 C 541.937446 339.565571 541.901639 339.959451 541.830024 340.188618 M 541.830024 340.188618 C 541.75841 340.417785 541.722602 340.811665 541.722602 341.37742 M 541.722602 341.37742 C 541.722602 341.936014 541.658149 342.501769 541.529243 343.060363 M 541.529243 343.060363 C 541.393175 343.618957 541.321561 344.356587 541.300076 345.266092 M 541.300076 345.266092 C 541.278592 346.175598 541.292915 347.099426 541.343045 348.037577 M 541.343045 348.037577 C 541.393175 348.968567 541.479113 350.107239 541.600858 351.446431 M 541.600858 351.446431 C 541.729764 352.785624 541.801378 353.909973 541.822863 354.819479 M 541.822863 354.819479 C 541.837186 355.736145 541.751248 356.803203 541.550727 358.034974 M 541.550727 358.034974 C 541.343045 359.273906 541.192654 360.391094 541.078071 361.386536 M 541.078071 361.386536 C 540.970649 362.389141 540.87755 363.227031 540.798774 363.900208 M 540.798774 363.900208 C 540.72716 364.573386 540.669868 365.396953 540.626899 366.36375 M 540.626899 366.36375 C 540.58393 367.337709 540.562446 369.872865 540.562446 373.976381 M 540.562446 373.976381 C 540.562446 378.072736 540.58393 380.35008 540.619738 380.801252 M 540.619738 380.801252 C 540.662707 381.252423 540.770128 381.803856 540.934842 382.469871 M 540.934842 382.469871 C 541.099556 383.128726 541.228462 383.780418 541.307238 384.432111 M 541.307238 384.432111 C 541.393175 385.083804 541.436144 385.678205 541.428983 386.215314 M 541.428983 386.215314 C 541.421821 386.745262 541.335884 387.260887 541.17117 387.755028 M 541.17117 387.755028 C 541.013618 388.249169 540.755805 388.886539 540.390571 389.681461 M 540.390571 389.681461 C 540.032498 390.469221 539.760363 391.14956 539.574165 391.715315 M 539.574165 391.715315 C 539.387967 392.288232 539.251899 392.86831 539.165962 393.455549 M 539.165962 393.455549 C 539.080024 394.042789 539.037055 394.98094 539.029894 396.262841 M 539.029894 396.262841 C 539.022732 397.551904 539.094347 398.783675 539.244738 399.972477 M 539.244738 399.972477 C 539.40229 401.161279 539.538357 402.24266 539.652941 403.230941 M 539.652941 403.230941 C 539.774686 404.212061 539.882107 405.04279 539.982368 405.708806 M 539.982368 405.708806 C 540.075467 406.374821 540.168566 407.133936 540.247342 407.98615 M 540.247342 407.98615 C 540.333279 408.838363 540.376248 410.04865 540.38341 411.609848 M 540.38341 411.609848 C 540.390571 413.171046 540.347602 414.281072 540.247342 414.947088 M 540.247342 414.947088 C 540.154243 415.613103 540.096951 416.501124 540.082628 417.61115 M 540.082628 417.61115 C 540.068305 418.721177 540.161404 419.659328 540.361925 420.425604 M 540.361925 420.425604 C 540.562446 421.184718 540.719998 421.764797 540.820259 422.165838 M 540.820259 422.165838 C 540.920519 422.559719 540.970649 422.996568 540.970649 423.476385 M 540.970649 423.476385 C 540.970649 423.956203 540.891873 424.307115 540.72716 424.536281 M 540.72716 424.536281 C 540.555285 424.765448 540.462186 425.059068 540.43354 425.409979 M 540.43354 425.409979 C 540.404894 425.760891 540.447863 425.839667 540.555285 425.646307 M 540.555285 425.646307 C 540.669868 425.452948 540.741483 425.123521 540.784451 424.643703 M 540.784451 424.643703 C 540.82742 424.163885 540.848904 421.857896 540.848904 417.732895 M 540.848904 417.732895 C 540.848904 413.600733 540.870389 411.022608 540.920519 410.005681 M 540.920519 410.005681 C 540.970649 408.981592 541.006457 408.000473 541.027941 407.05516 M 541.027941 407.05516 C 541.049425 406.117009 541.063748 405.028467 541.063748 403.803858 M 541.063748 403.803858 C 541.063748 402.579248 541.035102 401.669743 540.977811 401.075342 M 540.977811 401.075342 C 540.920519 400.488102 540.755805 399.356592 540.476509 397.695133 M 540.476509 397.695133 C 540.197212 396.026513 539.989529 394.68732 539.853462 393.677555 M 539.853462 393.677555 C 539.717394 392.667789 539.617134 391.858544 539.55268 391.264143 M 539.55268 391.264143 C 539.488227 390.66258 539.438097 389.831851 539.387967 388.771955 M 539.387967 388.771955 C 539.337837 387.712059 539.302029 386.709455 539.280545 385.756981 M 539.280545 385.756981 C 539.259061 384.804507 539.201769 383.694481 539.101508 382.41258 M 539.101508 382.41258 C 539.00841 381.13784 538.943956 380.085106 538.908149 379.261538 M 538.908149 379.261538 C 538.872342 378.430809 538.858019 377.242006 538.858019 375.68797 M 538.858019 375.68797 C 538.858019 374.133933 538.893826 373.074037 538.958279 372.522605 M 538.958279 372.522605 C 539.029894 371.971173 539.251899 370.789532 539.624295 368.984844 M 539.624295 368.984844 C 539.996691 367.180157 540.247342 365.86961 540.376248 365.03888 M 540.376248 365.03888 C 540.497993 364.215313 540.576769 363.420391 540.619738 362.668438 M 540.619738 362.668438 C 540.662707 361.916484 540.677029 361.15737 540.655545 360.398255 M 540.655545 360.398255 C 540.634061 359.646302 540.540962 358.858541 540.376248 358.034974 M 540.376248 358.034974 C 540.211535 357.218567 540.068305 356.394999 539.946561 355.557109 M 539.946561 355.557109 C 539.831977 354.72638 539.74604 353.909973 539.69591 353.10789 M 539.69591 353.10789 C 539.645779 352.298645 539.609972 351.310364 539.581326 350.128723 M 539.581326 350.128723 C 539.55268 348.947082 539.509712 347.922994 539.459581 347.056457 M 539.459581 347.056457 C 539.40229 346.189921 539.323514 345.172993 539.230415 343.998514 M 539.230415 343.998514 C 539.130154 342.824035 539.072863 341.714009 539.051378 340.675597 M 539.051378 340.675597 C 539.029894 339.637186 539.022732 338.892394 539.037055 338.448383 M 539.037055 338.448383 C 539.051378 338.004373 539.080024 337.954243 539.122993 338.305154 M 539.122993 338.305154 C 539.165962 338.648904 539.087186 338.827941 538.886665 338.835102 M 538.886665 338.835102 C 538.786404 338.835102 538.686144 338.842264 538.585883 338.842264 "
       transform="matrix(0.545454,0,0,0.545454,-167.028,-106.8621)"
       id="path23" />
  </g>
</svg>
