<?xml version="1.0" encoding="UTF-8" standalone="no"?>
<!-- Created with Inkscape (http://www.inkscape.org/) -->

<svg
   version="1.1"
   id="svg2"
   xml:space="preserve"
   width="393.75"
   height="241.49933"
   viewBox="0 0 393.75 241.49933"
   sodipodi:docname="formal_neuron.eps"
   xmlns:inkscape="http://www.inkscape.org/namespaces/inkscape"
   xmlns:sodipodi="http://sodipodi.sourceforge.net/DTD/sodipodi-0.dtd"
   xmlns="http://www.w3.org/2000/svg"
   xmlns:svg="http://www.w3.org/2000/svg"><defs
     id="defs6" /><sodipodi:namedview
     id="namedview4"
     pagecolor="#ffffff"
     bordercolor="#666666"
     borderopacity="1.0"
     inkscape:pageshadow="2"
     inkscape:pageopacity="0.0"
     inkscape:pagecheckerboard="0" /><g
     id="g8"
     inkscape:groupmode="layer"
     inkscape:label="ink_ext_XXXXXX"
     transform="matrix(1.3333333,0,0,-1.3333333,-74.249998,1086.042)"><g
       id="g10"
       transform="scale(0.1)"><path
         d="M 2250,7228.44 843.75,8072.19"
         style="fill:none;stroke:#000000;stroke-width:28.125;stroke-linecap:butt;stroke-linejoin:miter;stroke-miterlimit:1;stroke-dasharray:none;stroke-opacity:1"
         id="path12" /><path
         d="M 2250,7228.44 843.75,7509.69"
         style="fill:none;stroke:#000000;stroke-width:28.125;stroke-linecap:butt;stroke-linejoin:miter;stroke-miterlimit:1;stroke-dasharray:none;stroke-opacity:1"
         id="path14" /><path
         d="M 2221.88,7200.32 843.75,6947.19"
         style="fill:none;stroke:#000000;stroke-width:28.125;stroke-linecap:butt;stroke-linejoin:miter;stroke-miterlimit:1;stroke-dasharray:none;stroke-opacity:1"
         id="path16" /><path
         d="M 2250,7228.44 843.75,6384.69"
         style="fill:none;stroke:#000000;stroke-width:28.125;stroke-linecap:butt;stroke-linejoin:miter;stroke-miterlimit:1;stroke-dasharray:none;stroke-opacity:1"
         id="path18" /><path
         d="m 2812.5,7228.44 c 0,-310.66 -251.84,-562.5 -562.5,-562.5 -310.66,0 -562.5,251.84 -562.5,562.5 0,310.66 251.84,562.5 562.5,562.5 310.66,0 562.5,-251.84 562.5,-562.5"
         style="fill:#ffffff;fill-opacity:1;fill-rule:nonzero;stroke:none"
         id="path20" /><path
         d="m 2812.5,7228.44 c 0,-310.66 -251.84,-562.5 -562.5,-562.5 -310.66,0 -562.5,251.84 -562.5,562.5 0,310.66 251.84,562.5 562.5,562.5 310.66,0 562.5,-251.84 562.5,-562.5"
         style="fill:none;stroke:#000000;stroke-width:28.125;stroke-linecap:butt;stroke-linejoin:miter;stroke-miterlimit:1;stroke-dasharray:none;stroke-opacity:1"
         id="path22" /><path
         d="m 2761.88,7228.44 -202.21,-476.36 c -191.15,81.14 -315.29,268.7 -315.29,476.36 0,207.67 124.14,395.22 315.29,476.36 l 202.21,-476.36"
         style="fill:#ffffff;fill-opacity:1;fill-rule:nonzero;stroke:none"
         id="path24" /><path
         d="m 2559.67,6752.08 c -191.15,81.14 -315.29,268.7 -315.29,476.36 0,207.67 124.14,395.22 315.29,476.36"
         style="fill:none;stroke:#000000;stroke-width:28.125;stroke-linecap:butt;stroke-linejoin:miter;stroke-miterlimit:1;stroke-dasharray:none;stroke-opacity:1"
         id="path26" /><path
         d="m 556.875,7880.94 h 236.25 v 264.375 h -236.25 z"
         style="fill:#ffffff;fill-opacity:1;fill-rule:nonzero;stroke:none"
         id="path28" /><g
         id="g30"
         transform="scale(10)"><text
           transform="matrix(1,0,0,-1,56.25,793.157)"
           style="font-variant:normal;font-weight:normal;font-size:22.5px;font-family:Helvetica;-inkscape-font-specification:Helvetica;writing-mode:lr-tb;fill:#000000;fill-opacity:1;fill-rule:nonzero;stroke:none"
           id="text34"><tspan
             x="0 11.25"
             y="0"
             sodipodi:role="line"
             id="tspan32">x1</tspan></text></g><path
         d="m 556.875,7459.07 h 236.25 v 264.375 h -236.25 z"
         style="fill:#ffffff;fill-opacity:1;fill-rule:nonzero;stroke:none"
         id="path36" /><g
         id="g38"
         transform="scale(10)"><text
           transform="matrix(1,0,0,-1,56.25,750.969)"
           style="font-variant:normal;font-weight:normal;font-size:22.5px;font-family:Helvetica;-inkscape-font-specification:Helvetica;writing-mode:lr-tb;fill:#000000;fill-opacity:1;fill-rule:nonzero;stroke:none"
           id="text42"><tspan
             x="0 11.25"
             y="0"
             sodipodi:role="line"
             id="tspan40">x2</tspan></text></g><path
         d="m 556.875,6896.57 h 236.25 v 264.375 h -236.25 z"
         style="fill:#ffffff;fill-opacity:1;fill-rule:nonzero;stroke:none"
         id="path44" /><g
         id="g46"
         transform="scale(10)"><text
           transform="matrix(1,0,0,-1,56.25,694.719)"
           style="font-variant:normal;font-weight:normal;font-size:22.5px;font-family:Helvetica;-inkscape-font-specification:Helvetica;writing-mode:lr-tb;fill:#000000;fill-opacity:1;fill-rule:nonzero;stroke:none"
           id="text50"><tspan
             x="0 11.25"
             y="0"
             sodipodi:role="line"
             id="tspan48">x3</tspan></text></g><path
         d="m 556.875,6334.07 h 236.25 v 264.375 h -236.25 z"
         style="fill:#ffffff;fill-opacity:1;fill-rule:nonzero;stroke:none"
         id="path52" /><g
         id="g54"
         transform="scale(10)"><text
           transform="matrix(1,0,0,-1,56.25,638.469)"
           style="font-variant:normal;font-weight:normal;font-size:22.5px;font-family:Helvetica;-inkscape-font-specification:Helvetica;writing-mode:lr-tb;fill:#000000;fill-opacity:1;fill-rule:nonzero;stroke:none"
           id="text58"><tspan
             x="0 11.25"
             y="0"
             sodipodi:role="line"
             id="tspan56">x4</tspan></text></g><path
         d="m 1203.75,7655.94 h 286.875 v 264.375 H 1203.75 Z"
         style="fill:#ffffff;fill-opacity:1;fill-rule:nonzero;stroke:none"
         id="path60" /><g
         id="g62"
         transform="scale(10)"><text
           transform="matrix(1,0,0,-1,120.938,770.657)"
           style="font-variant:normal;font-weight:normal;font-size:22.5px;font-family:Helvetica;-inkscape-font-specification:Helvetica;writing-mode:lr-tb;fill:#000000;fill-opacity:1;fill-rule:nonzero;stroke:none"
           id="text66"><tspan
             x="0 16.245001"
             y="0"
             sodipodi:role="line"
             id="tspan64">w1</tspan></text></g><path
         d="m 1119.38,7318.44 h 286.875 v 264.375 H 1119.38 Z"
         style="fill:#ffffff;fill-opacity:1;fill-rule:nonzero;stroke:none"
         id="path68" /><g
         id="g70"
         transform="scale(10)"><text
           transform="matrix(1,0,0,-1,112.5,736.907)"
           style="font-variant:normal;font-weight:normal;font-size:22.5px;font-family:Helvetica;-inkscape-font-specification:Helvetica;writing-mode:lr-tb;fill:#000000;fill-opacity:1;fill-rule:nonzero;stroke:none"
           id="text74"><tspan
             x="0 16.245001"
             y="0"
             sodipodi:role="line"
             id="tspan72">w2</tspan></text></g><path
         d="m 1119.38,6896.57 h 286.875 v 264.375 H 1119.38 Z"
         style="fill:#ffffff;fill-opacity:1;fill-rule:nonzero;stroke:none"
         id="path76" /><g
         id="g78"
         transform="scale(10)"><text
           transform="matrix(1,0,0,-1,112.5,694.719)"
           style="font-variant:normal;font-weight:normal;font-size:22.5px;font-family:Helvetica;-inkscape-font-specification:Helvetica;writing-mode:lr-tb;fill:#000000;fill-opacity:1;fill-rule:nonzero;stroke:none"
           id="text82"><tspan
             x="0 16.245001"
             y="0"
             sodipodi:role="line"
             id="tspan80">w3</tspan></text></g><path
         d="m 1260,6615.32 h 286.875 v 264.375 H 1260 Z"
         style="fill:#ffffff;fill-opacity:1;fill-rule:nonzero;stroke:none"
         id="path84" /><g
         id="g86"
         transform="scale(10)"><text
           transform="matrix(1,0,0,-1,126.563,666.594)"
           style="font-variant:normal;font-weight:normal;font-size:22.5px;font-family:Helvetica;-inkscape-font-specification:Helvetica;writing-mode:lr-tb;fill:#000000;fill-opacity:1;fill-rule:nonzero;stroke:none"
           id="text90"><tspan
             x="0 16.245001"
             y="0"
             sodipodi:role="line"
             id="tspan88">w4</tspan></text></g><path
         d="m 2469.38,7127.19 h 129.375 v 264.375 H 2469.38 Z"
         style="fill:#ffffff;fill-opacity:1;fill-rule:nonzero;stroke:none"
         id="path92" /><g
         id="g94"
         transform="scale(10)"><text
           transform="matrix(1,0,0,-1,247.5,717.782)"
           style="font-variant:normal;font-weight:normal;font-size:22.5px;font-family:Helvetica;-inkscape-font-specification:Helvetica;writing-mode:lr-tb;fill:#000000;fill-opacity:1;fill-rule:nonzero;stroke:none"
           id="text98"><tspan
             x="0"
             y="0"
             id="tspan96">h</tspan></text></g><path
         d="m 2812.5,7228.44 h 461.25"
         style="fill:none;stroke:#000000;stroke-width:28.125;stroke-linecap:butt;stroke-linejoin:miter;stroke-miterlimit:1;stroke-dasharray:none;stroke-opacity:1"
         id="path100" /><path
         d="m 3375,7228.44 -101.25,-39.37 v 78.75"
         style="fill:#ffffff;fill-opacity:1;fill-rule:nonzero;stroke:none"
         id="path102" /><path
         d="m 3375,7228.44 -101.25,-39.37 v 78.75"
         style="fill:#000000;fill-opacity:1;fill-rule:nonzero;stroke:none"
         id="path104" /><path
         d="M 3397.5,7099.07 H 3510 v 264.375 h -112.5 z"
         style="fill:#ffffff;fill-opacity:1;fill-rule:nonzero;stroke:none"
         id="path106" /><g
         id="g108"
         transform="scale(10)"><text
           transform="matrix(1,0,0,-1,340.313,714.969)"
           style="font-variant:normal;font-weight:normal;font-size:22.5px;font-family:Helvetica;-inkscape-font-specification:Helvetica;writing-mode:lr-tb;fill:#000000;fill-opacity:1;fill-rule:nonzero;stroke:none"
           id="text112"><tspan
             x="0"
             y="0"
             id="tspan110">z</tspan></text></g></g></g></svg>
