<?xml version="1.0" encoding="UTF-8" standalone="no"?>
<!-- Created with Inkscape (http://www.inkscape.org/) -->

<svg
   version="1.1"
   id="svg2"
   xml:space="preserve"
   width="182.25"
   height="182.25"
   viewBox="0 0 182.25 182.25"
   sodipodi:docname="matrix-notation.eps"
   xmlns:inkscape="http://www.inkscape.org/namespaces/inkscape"
   xmlns:sodipodi="http://sodipodi.sourceforge.net/DTD/sodipodi-0.dtd"
   xmlns="http://www.w3.org/2000/svg"
   xmlns:svg="http://www.w3.org/2000/svg"><defs
     id="defs6" /><sodipodi:namedview
     id="namedview4"
     pagecolor="#ffffff"
     bordercolor="#666666"
     borderopacity="1.0"
     inkscape:pageshadow="2"
     inkscape:pageopacity="0.0"
     inkscape:pagecheckerboard="0" /><g
     id="g8"
     inkscape:groupmode="layer"
     inkscape:label="ink_ext_XXXXXX"
     transform="matrix(1.3333333,0,0,-1.3333333,-46.874999,1018.917)"><g
       id="g10"
       transform="scale(0.1)"><path
         d="m 1710,7498.44 c 0,-74.55 -60.45,-135 -135,-135 -74.55,0 -135,60.45 -135,135 0,74.56 60.45,135 135,135 74.55,0 135,-60.44 135,-135"
         style="fill:none;stroke:#000000;stroke-width:16.875;stroke-linecap:butt;stroke-linejoin:miter;stroke-miterlimit:1;stroke-dasharray:none;stroke-opacity:1"
         id="path12" /><g
         id="g14"
         transform="scale(10)"><text
           transform="matrix(1,0,0,-1,154.125,745.344)"
           style="font-variant:normal;font-weight:bold;font-size:13.5px;font-family:Times;-inkscape-font-specification:Times-Bold;writing-mode:lr-tb;fill:#000000;fill-opacity:1;fill-rule:nonzero;stroke:none"
           id="text18"><tspan
             x="0"
             y="0"
             id="tspan16">x</tspan></text><text
           transform="matrix(1,0,0,-1,162,740.844)"
           style="font-variant:normal;font-weight:bold;font-size:9.5625px;font-family:Helvetica;-inkscape-font-specification:Helvetica-Bold;writing-mode:lr-tb;fill:#000000;fill-opacity:1;fill-rule:nonzero;stroke:none"
           id="text22"><tspan
             x="0"
             y="0"
             id="tspan20">1</tspan></text></g><path
         d="m 1710,6913.44 c 0,-74.55 -60.45,-135 -135,-135 -74.55,0 -135,60.45 -135,135 0,74.56 60.45,135 135,135 74.55,0 135,-60.44 135,-135"
         style="fill:none;stroke:#000000;stroke-width:16.875;stroke-linecap:butt;stroke-linejoin:miter;stroke-miterlimit:1;stroke-dasharray:none;stroke-opacity:1"
         id="path24" /><g
         id="g26"
         transform="scale(10)"><text
           transform="matrix(1,0,0,-1,154.125,686.844)"
           style="font-variant:normal;font-weight:bold;font-size:13.5px;font-family:Times;-inkscape-font-specification:Times-Bold;writing-mode:lr-tb;fill:#000000;fill-opacity:1;fill-rule:nonzero;stroke:none"
           id="text30"><tspan
             x="0"
             y="0"
             id="tspan28">x</tspan></text><text
           transform="matrix(1,0,0,-1,162,682.344)"
           style="font-variant:normal;font-weight:bold;font-size:9.5625px;font-family:Helvetica;-inkscape-font-specification:Helvetica-Bold;writing-mode:lr-tb;fill:#000000;fill-opacity:1;fill-rule:nonzero;stroke:none"
           id="text34"><tspan
             x="0"
             y="0"
             id="tspan32">2</tspan></text></g><path
         d="m 1710,6418.44 c 0,-74.55 -60.45,-135 -135,-135 -74.55,0 -135,60.45 -135,135 0,74.56 60.45,135 135,135 74.55,0 135,-60.44 135,-135"
         style="fill:none;stroke:#000000;stroke-width:16.875;stroke-linecap:butt;stroke-linejoin:miter;stroke-miterlimit:1;stroke-dasharray:none;stroke-opacity:1"
         id="path36" /><g
         id="g38"
         transform="scale(10)"><text
           transform="matrix(1,0,0,-1,154.125,637.344)"
           style="font-variant:normal;font-weight:bold;font-size:13.5px;font-family:Times;-inkscape-font-specification:Times-Bold;writing-mode:lr-tb;fill:#000000;fill-opacity:1;fill-rule:nonzero;stroke:none"
           id="text42"><tspan
             x="0"
             y="0"
             id="tspan40">x</tspan></text><text
           transform="matrix(1,0,0,-1,162,632.844)"
           style="font-variant:normal;font-weight:bold;font-size:9.5625px;font-family:Helvetica;-inkscape-font-specification:Helvetica-Bold;writing-mode:lr-tb;fill:#000000;fill-opacity:1;fill-rule:nonzero;stroke:none"
           id="text46"><tspan
             x="0"
             y="0"
             id="tspan44">3</tspan></text></g><path
         d="m 630,6418.44 c 0,-74.55 -60.445,-135 -135,-135 -74.555,0 -135,60.45 -135,135 0,74.56 60.445,135 135,135 74.555,0 135,-60.44 135,-135"
         style="fill:none;stroke:#000000;stroke-width:16.875;stroke-linecap:butt;stroke-linejoin:miter;stroke-miterlimit:1;stroke-dasharray:none;stroke-opacity:1"
         id="path48" /><g
         id="g50"
         transform="scale(10)"><text
           transform="matrix(1,0,0,-1,45,637.344)"
           style="font-variant:normal;font-weight:bold;font-size:13.5px;font-family:Times;-inkscape-font-specification:Times-Bold;writing-mode:lr-tb;fill:#000000;fill-opacity:1;fill-rule:nonzero;stroke:none"
           id="text54"><tspan
             x="0"
             y="0"
             id="tspan52">Y</tspan></text><text
           transform="matrix(1,0,0,-1,54,632.844)"
           style="font-variant:normal;font-weight:bold;font-size:9.5625px;font-family:Helvetica;-inkscape-font-specification:Helvetica-Bold;writing-mode:lr-tb;fill:#000000;fill-opacity:1;fill-rule:nonzero;stroke:none"
           id="text58"><tspan
             x="0"
             y="0"
             id="tspan56">2</tspan></text></g><path
         d="m 630,7498.44 c 0,-74.55 -60.445,-135 -135,-135 -74.555,0 -135,60.45 -135,135 0,74.56 60.445,135 135,135 74.555,0 135,-60.44 135,-135"
         style="fill:none;stroke:#000000;stroke-width:16.875;stroke-linecap:butt;stroke-linejoin:miter;stroke-miterlimit:1;stroke-dasharray:none;stroke-opacity:1"
         id="path60" /><g
         id="g62"
         transform="scale(10)"><text
           transform="matrix(1,0,0,-1,45,745.344)"
           style="font-variant:normal;font-weight:bold;font-size:13.5px;font-family:Times;-inkscape-font-specification:Times-Bold;writing-mode:lr-tb;fill:#000000;fill-opacity:1;fill-rule:nonzero;stroke:none"
           id="text66"><tspan
             x="0"
             y="0"
             id="tspan64">Y</tspan></text><text
           transform="matrix(1,0,0,-1,54,740.844)"
           style="font-variant:normal;font-weight:bold;font-size:9.5625px;font-family:Helvetica;-inkscape-font-specification:Helvetica-Bold;writing-mode:lr-tb;fill:#000000;fill-opacity:1;fill-rule:nonzero;stroke:none"
           id="text70"><tspan
             x="0"
             y="0"
             id="tspan68">1</tspan></text></g><path
         d="M 1440,7498.44 H 697.5"
         style="fill:none;stroke:#000000;stroke-width:16.875;stroke-linecap:butt;stroke-linejoin:miter;stroke-miterlimit:1;stroke-dasharray:none;stroke-opacity:1"
         id="path72" /><path
         d="m 630,7498.44 67.5,28.13 v -56.25"
         style="fill:#ffffff;fill-opacity:1;fill-rule:nonzero;stroke:none"
         id="path74" /><path
         d="m 630,7498.44 67.5,28.13 v -56.25"
         style="fill:#000000;fill-opacity:1;fill-rule:nonzero;stroke:none"
         id="path76" /><path
         d="M 1440,7498.44 630.285,6603.49"
         style="fill:none;stroke:#000000;stroke-width:16.875;stroke-linecap:butt;stroke-linejoin:miter;stroke-miterlimit:1;stroke-dasharray:none;stroke-opacity:1"
         id="path78" /><path
         d="m 585,6553.44 24.43,68.92 41.711,-37.73"
         style="fill:#ffffff;fill-opacity:1;fill-rule:nonzero;stroke:none"
         id="path80" /><path
         d="m 585,6553.44 24.43,68.92 41.711,-37.73"
         style="fill:#000000;fill-opacity:1;fill-rule:nonzero;stroke:none"
         id="path82" /><path
         d="M 1440,6913.44 731.672,7371.77"
         style="fill:none;stroke:#000000;stroke-width:16.875;stroke-linecap:butt;stroke-linejoin:miter;stroke-miterlimit:1;stroke-dasharray:none;stroke-opacity:1"
         id="path84" /><path
         d="m 675,7408.44 71.949,-13.06 -30.558,-47.22"
         style="fill:#ffffff;fill-opacity:1;fill-rule:nonzero;stroke:none"
         id="path86" /><path
         d="m 675,7408.44 71.949,-13.06 -30.558,-47.22"
         style="fill:#000000;fill-opacity:1;fill-rule:nonzero;stroke:none"
         id="path88" /><path
         d="M 1440,6418.44 630.285,7313.39"
         style="fill:none;stroke:#000000;stroke-width:16.875;stroke-linecap:butt;stroke-linejoin:miter;stroke-miterlimit:1;stroke-dasharray:none;stroke-opacity:1"
         id="path90" /><path
         d="m 585,7363.44 66.141,-31.19 -41.711,-37.73"
         style="fill:#ffffff;fill-opacity:1;fill-rule:nonzero;stroke:none"
         id="path92" /><path
         d="m 585,7363.44 66.141,-31.19 -41.711,-37.73"
         style="fill:#000000;fill-opacity:1;fill-rule:nonzero;stroke:none"
         id="path94" /><path
         d="M 1440,6913.44 690.375,6538.63"
         style="fill:none;stroke:#000000;stroke-width:16.875;stroke-linecap:butt;stroke-linejoin:miter;stroke-miterlimit:1;stroke-dasharray:none;stroke-opacity:1"
         id="path96" /><path
         d="m 630,6508.44 47.797,55.34 25.156,-50.31"
         style="fill:#ffffff;fill-opacity:1;fill-rule:nonzero;stroke:none"
         id="path98" /><path
         d="m 630,6508.44 47.797,55.34 25.156,-50.31"
         style="fill:#000000;fill-opacity:1;fill-rule:nonzero;stroke:none"
         id="path100" /><path
         d="M 1440,6418.44 H 697.5"
         style="fill:none;stroke:#000000;stroke-width:16.875;stroke-linecap:butt;stroke-linejoin:miter;stroke-miterlimit:1;stroke-dasharray:none;stroke-opacity:1"
         id="path102" /><path
         d="m 630,6418.44 67.5,28.13 v -56.25"
         style="fill:#ffffff;fill-opacity:1;fill-rule:nonzero;stroke:none"
         id="path104" /><path
         d="m 630,6418.44 67.5,28.13 v -56.25"
         style="fill:#000000;fill-opacity:1;fill-rule:nonzero;stroke:none"
         id="path106" /><g
         id="g108"
         transform="scale(10)"><text
           transform="matrix(1,0,0,-1,67.5,753.219)"
           style="font-variant:normal;font-weight:normal;font-size:11.25px;font-family:Times;-inkscape-font-specification:Times-Roman;writing-mode:lr-tb;fill:#000000;fill-opacity:1;fill-rule:nonzero;stroke:none"
           id="text122"><tspan
             x="0 8.1225004 13.7475"
             y="0"
             sodipodi:role="line"
             id="tspan110">w11</tspan><tspan
             x="13.5 21.622499 27.247499"
             y="22.5"
             sodipodi:role="line"
             id="tspan112">w12</tspan><tspan
             x="-18 -9.8774996 -4.2525001"
             y="36"
             sodipodi:role="line"
             id="tspan114">w13</tspan><tspan
             x="-13.5 -5.3775001 0.2475"
             y="85.5"
             sodipodi:role="line"
             id="tspan116">w21</tspan><tspan
             x="13.5 21.622499 27.247499"
             y="99"
             sodipodi:role="line"
             id="tspan118">w22</tspan><tspan
             x="9 17.122499 22.747499"
             y="121.5"
             sodipodi:role="line"
             id="tspan120">w32</tspan></text></g></g></g></svg>
